{
.appVersion = "3316";
.formatVersion = 3;
axes = (
{
name = Width;
tag = wdth;
},
{
name = Weight;
tag = wght;
}
);
customParameters = (
{
name = fsType;
value = (
);
},
{
name = "Use Typo Metrics";
value = 1;
},
{
name = "Axis Mappings";
value = {
wdth = {
60 = 60;
100 = 90;
140 = 140;
};
wght = {
100 = 100;
400 = 480;
900 = 900;
};
};
}
);
date = "2024-07-28 20:29:35 +0000";
familyName = Nigggli;
featurePrefixes = (
{
automatic = 1;
code = "languagesystem DFLT dflt;

languagesystem latn dflt;
languagesystem latn AZE;
languagesystem latn CRT;
languagesystem latn KAZ;
languagesystem latn TAT;
languagesystem latn TRK;
languagesystem latn ROM;
languagesystem latn MOL;
languagesystem latn MAH;
languagesystem latn CAT;
languagesystem latn NLD;
";
name = Languagesystems;
}
);
features = (
{
automatic = 1;
code = "feature locl;
feature ordn;
feature case;
";
tag = aalt;
},
{
automatic = 1;
code = "lookup ccmp_DFLT_1 {
	@CombiningTopAccents = [acutecomb brevecomb caroncomb circumflexcomb commaturnedabovecomb dieresiscomb dotaccentcomb gravecomb hookabovecomb hungarumlautcomb macroncomb ringcomb tildecomb];
	lookupflag UseMarkFilteringSet @CombiningTopAccents;
	sub i' @CombiningTopAccents by idotless;
	sub j' @CombiningTopAccents by jdotless;
} ccmp_DFLT_1;

lookup ccmp_DFLT_2 {
	lookupflag 0;
	sub brevecomb acutecomb by brevecomb_acutecomb;
	sub brevecomb gravecomb by brevecomb_gravecomb;
	sub brevecomb hookabovecomb by brevecomb_hookabovecomb;
	sub brevecomb tildecomb by brevecomb_tildecomb;
	sub circumflexcomb acutecomb by circumflexcomb_acutecomb;
	sub circumflexcomb gravecomb by circumflexcomb_gravecomb;
	sub circumflexcomb hookabovecomb by circumflexcomb_hookabovecomb;
	sub circumflexcomb tildecomb by circumflexcomb_tildecomb;
} ccmp_DFLT_2;
";
tag = ccmp;
},
{
automatic = 1;
code = "script latn;
language AZE;
lookup locl_latn_0 {
	sub i by idotaccent;
} locl_latn_0;
language CRT;
lookup locl_latn_0;
language KAZ;
lookup locl_latn_0;
language TAT;

glyphs = (
{
color = 9;
glyphname = A;
kernLeft = A;
kernRight = A;
lastChange = "2024-08-09 20:01:23 +0000";
layers = (
{
anchors = (
{
name = bottom;
pos = (204,1);
},
{
name = ogonek;
pos = (414,11);
},
{
name = top;
pos = (316,799);
}
);
layerId = m01;
shapes = (
{
closed = 1;
nodes = (
(96,1,l),
(150,147,l),
(300,147,l),
(313,1,l),
(465,1,l),
(407,799,l),
(226,799,l),
(-56,1,l)
);
},
{
closed = 1;
nodes = (
(287,588,l),
(304,271,l),
(180,271,l)
);
}
);
width = 520;
},
{
anchors = (
{
name = bottom;
pos = (226,1);
},
{
name = ogonek;
pos = (481,1);
},
{
name = top;
pos = (337,799);
}
);
background = {
shapes = (
{
closed = 1;
nodes = (
(175,0,l),
(208,146,l),
(358,146,l),
(391,0,l),
(543,0,l),
(373,800,l),
(193,800,l),
(23,0,l)
);
},
{
closed = 1;
nodes = (
(283,588,l),
(345,271,l),
(221,271,l)
);
}
);
};
layerId = m002;
shapes = (
{
closed = 1;
nodes = (
(-13,1,l),
(75,196,l),
(433,196,l),
(467,1,l),
(477,1,l),
(342,799,l),
(332,799,l),
(-23,1,l)
);
},
{
closed = 1;
nodes = (
(335,778,l),
(432,206,l),
(79,206,l)
);
}
);
width = 566;
},
{
anchors = (
{
name = bottom;
pos = (511,1);
},
{
name = ogonek;
pos = (966,11);
},
{
name = top;
pos = (619,799);
}
);
background = {
shapes = (
{
closed = 1;
nodes = (
(175,0,l),
(208,146,l),
(358,146,l),
(391,0,l),
(543,0,l),
(373,800,l),
(193,800,l),
(23,0,l)
);
},
{
closed = 1;
nodes = (
(283,588,l),
(345,271,l),
(221,271,l)
);
}
);
};
layerId = m003;
shapes = (
{
closed = 1;
nodes = (
(20,1,l),
(169,196,l),
(905,196,l),
(999,1,l),
(1010,1,l),
(623,799,l),
(615,799,l),
(10,1,l)
);
},
{
closed = 1;
nodes = (
(617,787,l),
(900,206,l),
(176,206,l)
);
}
);
width = 1130;
},
{
anchors = (
{
name = bottom;
pos = (465,1);
},
{
name = ogonek;
pos = (883,11);
},
{
name = top;
pos = (577,799);
}
);
layerId = m004;
shapes = (
{
closed = 1;
nodes = (
(248,1,l),
(308,97,l),
(649,97,l),
(681,1,l),
(986,1,l),
(757,799,l),
(396,799,l),
(-56,1,l)
);
},
{
closed = 1;
nodes = (
(540,538,l),
(627,271,l),
(378,271,l)
);
}
);
width = 1041;
},
{
anchors = (
{
name = bottom;
pos = (322,1);
},
{
name = ogonek;
pos = (657,8);
},
{
name = top;
pos = (434,799);
}
);
layerId = "C42BF1BA-B3BB-492C-A865-1DF6B235F68F";
shapes = (
{
closed = 1;
nodes = (
(68,1,l),
(153,161,l),
(534,161,l),
(574,1,l),
(704,1,l),
(501,799,l),
(363,799,l),
(-61,1,l)
);
},
{
closed = 1;
nodes = (
(413,662,l),
(510,250,l),
(202,250,l)
);
}
);
width = 754;
}
);
unicode = 65;
},
{
color = 9;
glyphname = AE;
lastChange = "2024-08-09 20:01:23 +0000";
layers = (
{
anchors = (
{
name = bottom;
pos = (468,1);
},
{
name = top;
pos = (587,799);
}
);
layerId = m002;
shapes = (
{
closed = 1;
nodes = (
(791,1,l),
(792,11,l),
(470,11,l),
(468,1,l)
);
},
{
closed = 1;
nodes = (
(902,789,l),
(903,799,l),
(580,799,l),
(579,789,l)
);
},
{
closed = 1;
nodes = (
(828,405,l),
(829,415,l),
(526,415,l),
(525,405,l)
);
},
{
closed = 1;
nodes = (
(-13,1,l),
(137,200,l),
(130,196,l),
(493,196,l),
(465,1,l),
(475,1,l),
(587,799,l),
(576,799,l),
(-24,1,l)
);
},
{
closed = 1;
nodes = (
(575,781,l),
(494,206,l),
(142,206,l)
);
}
);
width = 936;
},
{
anchors = (
{
name = bottom;
pos = (397,1);
},
{
name = top;
pos = (509,799);
}
);
layerId = m01;
shapes = (
{
closed = 1;
nodes = (
(671,1,l),
(691,141,l),
(417,141,l),
(397,1,l)
);
},
{
closed = 1;
nodes = (
(763,659,l),
(783,799,l),
(509,799,l),
(490,659,l)
);
},
{
closed = 1;
nodes = (
(698,340,l),
(718,480,l),
(444,480,l),
(425,340,l)
);
},
{
closed = 1;
nodes = (
(119,1,l),
(238,212,l),
(129,147,l),
(354,147,l),
(333,1,l),
(498,1,l),
(609,799,l),
(382,799,l),
(-57,1,l)
);
},
{
closed = 1;
nodes = (
(424,588,l),
(380,271,l),
(256,271,l)
);
}
);
width = 766;
},
{
anchors = (
{
name = bottom;
pos = (986,1);
},
{
name = top;
pos = (1112,799);
}
);
layerId = m003;
shapes = (
{
closed = 1;
nodes = (
(1632,1,l),
(1633,11,l),
(988,11,l),
(986,1,l)
);
},
{
closed = 1;
nodes = (
(1743,789,l),
(1744,799,l),
(1098,799,l),
(1097,789,l)
);
},
{
closed = 1;
nodes = (
(1649,405,l),
(1650,415,l),
(1045,415,l),
(1043,405,l)
);
},
{
closed = 1;
nodes = (
(23,1,l),
(295,199,l),
(286,196,l),
(1008,196,l),
(980,1,l),
(990,1,l),
(1102,799,l),
(1096,799,l),
(8,1,l)
);
},
{
closed = 1;
nodes = (
(1090,782,l),
(1009,206,l),
(304,206,l)
);
}
);
width = 1866;
},
{
anchors = (
{
name = bottom;
pos = (840,1);
},
{
name = top;
pos = (952,799);
}
);
layerId = m004;
shapes = (
{
closed = 1;
nodes = (
(1422,1,l),
(1455,240,l),
(874,240,l),
(840,1,l)
);
},
{
closed = 1;
nodes = (
(1500,560,l),
(1534,799,l),
(952,799,l),
(919,560,l)
);
},
{
closed = 1;
nodes = (
(1427,320,l),
(1452,500,l),
(870,500,l),
(845,320,l)
);
},
{
closed = 1;
nodes = (
(283,1,l),
(483,201,l),
(354,132,l),
(730,132,l),
(712,1,l),
(1041,1,l),
(1153,799,l),
(708,799,l),
(-58,1,l)
);
},
{
closed = 1;
nodes = (
(812,588,l),
(771,291,l),
(547,291,l)
);
}
);
width = 1556;
},
{
anchors = (
{
name = bottom;
pos = (632,1);
},
{
name = top;
pos = (750,799);
}
);
layerId = "C42BF1BA-B3BB-492C-A865-1DF6B235F68F";
shapes = (
{
closed = 1;
nodes = (
(1011,1,l),
(1025,101,l),
(596,101,l),
(582,1,l)
);
},
{
closed = 1;
nodes = (
(1109,699,l),
(1123,799,l),
(694,799,l),
(680,699,l)
);
},
{
closed = 1;
nodes = (
(1032,360,l),
(1046,460,l),
(633,460,l),
(619,360,l)
);
},
{
closed = 1;
nodes = (
(85,1,l),
(256,201,l),
(164,158,l),
(562,158,l),
(540,1,l),
(661,1,l),
(772,799,l),
(617,799,l),
(-62,1,l)
);
},
{
closed = 1;
nodes = (
(630,641,l),
(575,247,l),
(295,247,l)
);
}
);
width = 1154;
}
);
metricLeft = A;
metricRight = E;
unicode = 198;
},
{
color = 9;
glyphname = B;
kernLeft = H;
kernRight = O;
lastChange = "2024-08-09 20:01:23 +0000";
layers = (
{
anchors = (
{
name = bottom;
pos = (203,1);
},
{
name = center;
pos = (101,200);
},
{
name = top;
pos = (315,799);
}
);
layerId = m01;
shapes = (
{
closed = 1;
nodes = (
(247,468,l),
(195,468,l),
(222,664,l),
(265,664,l),
(283,799,l),
(96,799,l),
(-16,1,l),
(182,1,l),
(200,136,l),
(150,138,l),
(179,343,l),
(230,343,l)
);
},
{
closed = 1;
nodes = (
(227,393,l),
(394,393,o),
(483,452,o),
(500,572,cs),
(522,724,o),
(451,799,o),
(283,799,c),
(265,664,l),
(324,664,o),
(348,633,o),
(340,572,cs),
(330,502,o),
(296,468,o),
(237,468,c)
);
},
{
closed = 1;
nodes = (
(292,343,o),
(317,304,o),
(306,223,cs),
(298,165,o),
(263,136,o),
(200,136,c),
(182,1,l),
(352,1,o),
(445,74,o),
(466,223,cs),
(485,354,o),
(410,418,o),
(240,418,c),
(230,343,l)
);
}
);
width = 515;
},
{
anchors = (
{
name = bottom;
pos = (228,1);
},
{
name = center;
pos = (113,200);
},
{
name = top;
pos = (339,799);
}
);
background = {
shapes = (
{
closed = 1;
nodes = (
(277,468,l),
(225,468,l),
(225,665,l),
(267,665,l),
(267,800,l),
(80,800,l),
(80,0,l),
(277,0,l),
(277,135,l),
(226,137,l),
(227,343,l),
(277,343,l)
);
},
{
closed = 1;
nodes = (
(267,393,l),
(434,393,o),
(515,452,o),
(515,572,cs),
(515,725,o),
(434,800,o),
(267,800,c),
(267,665,l),
(326,665,o),
(355,634,o),
(355,572,cs),
(355,502,o),
(326,468,o),
(267,468,c)
);
},
{
closed = 1;
nodes = (
(339,343,o),
(370,304,o),
(370,223,cs),
(370,164,o),
(339,135,o),
(277,135,c),
(277,0,l),
(447,0,o),
(530,73,o),
(530,223,cs),
(530,354,o),
(447,418,o),
(277,418,c),
(277,343,l)
);
}
);
};
layerId = m002;
shapes = (
{
closed = 1;
nodes = (
(259,410,l),
(101,410,l),
(155,789,l),
(302,789,l),
(303,799,l),
(146,799,l),
(34,1,l),
(202,1,l),
(203,11,l),
(45,11,l),
(100,400,l),
(257,400,l)
);
},
{
closed = 1;
nodes = (
(257,400,l),
(425,400,o),
(503,452,o),
(520,572,cs),
(542,731,o),
(478,799,o),
(303,799,c),
(302,789,l),
(469,789,o),
(531,724,o),
(510,572,cs),
(494,459,o),
(419,410,o),
(259,410,c)
);
},
{
closed = 1;
nodes = (
(428,400,o),
(494,347,o),
(476,223,cs),
(455,75,o),
(373,11,o),
(203,11,c),
(202,1,l),
(379,1,o),
(465,68,o),
(486,223,cs),
(505,354,o),
(436,410,o),
(259,410,c),
(257,400,l)
);
}
);
width = 565;
},
{
anchors = (
{
name = bottom;
pos = (511,1);
},
{
name = center;
pos = (254,200);
},
{
name = top;
pos = (623,799);
}
);
background = {
shapes = (
{
closed = 1;
nodes = (
(277,468,l),
(225,468,l),
(225,665,l),
(267,665,l),
(267,800,l),
(80,800,l),
(80,0,l),
(277,0,l),
(277,135,l),
(226,137,l),
(227,343,l),
(277,343,l)
);
},
{
closed = 1;
nodes = (
(267,393,l),
(434,393,o),
(515,452,o),
(515,572,cs),
(515,725,o),
(434,800,o),
(267,800,c),
(267,665,l),
(326,665,o),
(355,634,o),
(355,572,cs),
(355,502,o),
(326,468,o),
(267,468,c)
);
},
{
closed = 1;
nodes = (
(339,343,o),
(370,304,o),
(370,223,cs),
(370,164,o),
(339,135,o),
(277,135,c),
(277,0,l),
(447,0,o),
(530,73,o),
(530,223,cs),
(530,354,o),
(447,418,o),
(277,418,c),
(277,343,l)
);
}
);
};
layerId = m003;
shapes = (
{
closed = 1;
nodes = (
(616,410,l),
(191,410,l),
(244,789,l),
(649,789,l),
(651,799,l),
(236,799,l),
(124,1,l),
(559,1,l),
(560,11,l),
(133,11,l),
(190,400,l),
(615,400,l)
);
},
{
closed = 1;
nodes = (
(615,400,l),
(847,400,o),
(1001,466,o),
(1016,572,cs),
(1035,711,o),
(894,799,o),
(651,799,c),
(649,789,l),
(887,789,o),
(1025,705,o),
(1006,572,cs),
(992,472,o),
(842,410,o),
(616,410,c)
);
},
{
closed = 1;
nodes = (
(859,400,o),
(1002,332,o),
(987,223,cs),
(969,93,o),
(804,11,o),
(560,11,c),
(559,1,l),
(809,1,o),
(978,87,o),
(997,223,cs),
(1013,338,o),
(866,410,o),
(616,410,c),
(615,400,l)
);
}
);
width = 1130;
},
{
anchors = (
{
name = bottom;
pos = (461,1);
},
{
name = center;
pos = (230,200);
},
{
name = top;
pos = (573,799);
}
);
layerId = m004;
shapes = (
{
closed = 1;
nodes = (
(586,478,l),
(381,478,l),
(394,565,l),
(578,565,l),
(611,799,l),
(136,799,l),
(24,1,l),
(519,1,l),
(552,235,l),
(350,237,l),
(364,323,l),
(564,323,l)
);
},
{
closed = 1;
nodes = (
(551,373,l),
(807,373,o),
(958,444,o),
(976,572,cs),
(997,718,o),
(867,799,o),
(611,799,c),
(578,565,l),
(627,565,o),
(652,549,o),
(648,521,cs),
(644,493,o),
(615,478,o),
(566,478,c)
);
},
{
closed = 1;
nodes = (
(619,323,o),
(648,309,o),
(645,285,cs),
(641,253,o),
(607,235,o),
(552,235,c),
(519,1,l),
(781,1,o),
(937,81,o),
(957,223,cs),
(975,348,o),
(839,418,o),
(578,418,c),
(564,323,l)
);
}
);
width = 1030;
},
{
anchors = (
{
name = bottom;
pos = (341,1);
},
{
name = center;
pos = (164,200);
},
{
name = top;
pos = (453,799);
}
);
layerId = "C42BF1BA-B3BB-492C-A865-1DF6B235F68F";
shapes = (
{
closed = 1;
nodes = (
(422,454,l),
(216,454,l),
(250,699,l),
(442,699,l),
(456,799,l),
(144,799,l),
(32,1,l),
(359,1,l),
(373,100,l),
(165,101,l),
(202,354,l),
(408,354,l)
);
},
{
closed = 1;
nodes = (
(407,392,l),
(573,392,o),
(687,459,o),
(702,566,cs),
(722,709,o),
(627,799,o),
(456,799,c),
(442,699,l),
(540,699,o),
(594,647,o),
(582,566,cs),
(573,497,o),
(508,454,o),
(415,454,c)
);
},
{
closed = 1;
nodes = (
(512,354,o),
(569,307,o),
(558,231,cs),
(547,151,o),
(476,100,o),
(373,100,c),
(359,1,l),
(535,1,o),
(658,90,o),
(678,231,cs),
(693,343,o),
(593,414,o),
(417,414,c),
(408,354,l)
);
}
);
width = 755;
}
);
metricLeft = N;
metricRight = O;
unicode = 66;
},
{
color = 9;
glyphname = C;
kernLeft = O;
kernRight = C;
lastChange = "2024-08-09 20:01:23 +0000";
layers = (
{
anchors = (
{
name = bottom;
pos = (194,1);
},
{
name = top;
pos = (315,799);
}
);
layerId = m01;
shapes = (
{
closed = 1;
nodes = (
(497,564,l),
(521,731,o),
(455,813,o),
(317,813,cs),
(166,813,o),
(64,684,o),
(27,422,cs),
(-13,133,o),
(51,-9,o),
(201,-9,cs),
(338,-9,o),
(426,72,o),
(449,237,c),
(296,237,l),
(287,170,o),
(256,136,o),
(222,136,cs),
(182,136,o),
(166,229,o),
(193,422,cs),
(216,588,o),
(256,668,o),
(296,668,cs),
(330,668,o),
(353,633,o),
(343,564,c)
);
}
);
width = 499;
},
{
anchors = (
{
name = bottom;
pos = (212,1);
},
{
name = top;
pos = (345,799);
}
);
background = {
shapes = (
{
closed = 1;
nodes = (
(494,564,l),
(494,732,o),
(417,814,o),
(279,814,cs),
(129,814,o),
(45,685,o),
(45,422,cs),
(45,132,o),
(129,-10,o),
(279,-10,cs),
(415,-10,o),
(492,71,o),
(492,237,c),
(339,237,l),
(339,169,o),
(313,135,o),
(279,135,cs),
(239,135,o),
(210,229,o),
(210,422,cs),
(210,588,o),
(239,669,o),
(279,669,cs),
(313,669,o),
(340,634,o),
(340,564,c)
);
}
);
};
layerId = m002;
shapes = (
{
closed = 1;
nodes = (
(511,613,l),
(520,744,o),
(456,809,o),
(346,809,cs),
(189,809,o),
(94,681,o),
(57,422,cs),
(17,133,o),
(74,-9,o),
(232,-9,cs),
(340,-9,o),
(421,56,o),
(450,188,c),
(440,188,l),
(412,62,o),
(334,1,o),
(233,1,cs),
(83,1,o),
(28,140,o),
(67,422,cs),
(103,674,o),
(195,799,o),
(345,799,cs),
(447,799,o),
(509,737,o),
(501,613,c)
);
}
);
width = 536;
},
{
anchors = (
{
name = bottom;
pos = (480,1);
},
{
name = top;
pos = (634,799);
}
);
background = {
shapes = (
{
closed = 1;
nodes = (
(494,564,l),
(494,732,o),
(417,814,o),
(279,814,cs),
(129,814,o),
(45,685,o),
(45,422,cs),
(45,132,o),
(129,-10,o),
(279,-10,cs),
(415,-10,o),
(492,71,o),
(492,237,c),
(339,237,l),
(339,169,o),
(313,135,o),
(279,135,cs),
(239,135,o),
(210,229,o),
(210,422,cs),
(210,588,o),
(239,669,o),
(279,669,cs),
(313,669,o),
(340,634,o),
(340,564,c)
);
}
);
};
layerId = m003;
shapes = (
{
closed = 1;
nodes = (
(993,613,l),
(992,733,o),
(854,809,o),
(635,809,cs),
(348,809,o),
(145,659,o),
(112,422,cs),
(75,158,o),
(233,-9,o),
(521,-9,cs),
(736,-9,o),
(894,67,o),
(929,188,c),
(919,188,l),
(885,73,o),
(731,1,o),
(522,1,cs),
(240,1,o),
(86,164,o),
(122,422,cs),
(154,653,o),
(352,799,o),
(634,799,cs),
(845,799,o),
(981,727,o),
(983,613,c)
);
}
);
width = 1072;
},
{
anchors = (
{
name = bottom;
pos = (444,1);
},
{
name = top;
pos = (574,799);
}
);
layerId = m004;
shapes = (
{
closed = 1;
nodes = (
(958,464,l),
(989,688,o),
(852,813,o),
(576,813,cs),
(274,813,o),
(87,673,o),
(52,422,cs),
(13,145,o),
(159,-9,o),
(460,-9,cs),
(735,-9,o),
(905,115,o),
(936,337,c),
(629,337,l),
(620,271,o),
(572,235,o),
(495,235,cs),
(405,235,o),
(366,302,o),
(382,422,cs),
(396,516,o),
(452,569,o),
(541,569,cs),
(620,569,o),
(658,531,o),
(649,464,c)
);
}
);
width = 998;
},
{
anchors = (
{
name = bottom;
pos = (350,1);
},
{
name = top;
pos = (462,799);
}
);
layerId = "C42BF1BA-B3BB-492C-A865-1DF6B235F68F";
shapes = (
{
closed = 1;
nodes = (
(734,567,l),
(748,716,o),
(644,811,o),
(465,811,cs),
(248,811,o),
(91,661,o),
(57,422,cs),
(20,158,o),
(133,-9,o),
(350,-9,cs),
(531,-9,o),
(661,86,o),
(689,235,c),
(569,235,l),
(550,147,o),
(471,91,o),
(364,91,cs),
(224,91,o),
(154,218,o),
(182,422,cs),
(207,600,o),
(311,711,o),
(451,711,cs),
(557,711,o),
(619,655,o),
(614,567,c)
);
}
);
width = 767;
}
);
metricLeft = O;
metricRight = O;
unicode = 67;
},
{
color = 9;
glyphname = D;
kernLeft = H;
kernRight = O;
lastChange = "2024-08-09 20:01:23 +0000";
layers = (
{
anchors = (
{
name = bottom;
pos = (205,1);
},
{
name = center;
pos = (130,400);
},
{
name = top;
pos = (316,799);
}
);
layerId = m01;
shapes = (
{
closed = 1;
nodes = (
(210,136,l),
(148,136,l),
(222,664,l),
(285,664,l),
(303,799,l),
(96,799,l),
(-16,1,l),
(192,1,l)
);
},
{
closed = 1;
nodes = (
(192,1,l),
(359,1,o),
(460,140,o),
(499,422,cs),
(535,675,o),
(471,799,o),
(303,799,c),
(285,664,l),
(344,664,o),
(362,585,o),
(339,422,cs),
(312,229,o),
(270,136,o),
(210,136,c)
);
}
);
width = 520;
},
{
anchors = (
{
name = bottom;
pos = (235,1);
},
{
name = center;
pos = (145,400);
},
{
name = top;
pos = (346,799);
}
);
background = {
shapes = (
{
closed = 1;
nodes = (
(287,135,l),
(225,135,l),
(225,665,l),
(287,665,l),
(287,800,l),
(80,800,l),
(80,0,l),
(287,0,l)
);
},
{
closed = 1;
nodes = (
(287,0,l),
(454,0,o),
(535,139,o),
(535,422,cs),
(535,676,o),
(454,800,o),
(287,800,c),
(287,665,l),
(346,665,o),
(375,585,o),
(375,422,cs),
(375,229,o),
(346,135,o),
(287,135,c)
);
}
);
};
layerId = m002;
shapes = (
{
closed = 1;
nodes = (
(233,11,l),
(45,11,l),
(155,789,l),
(342,789,l),
(343,799,l),
(146,799,l),
(34,1,l),
(232,1,l)
);
},
{
closed = 1;
nodes = (
(232,1,l),
(392,1,o),
(490,140,o),
(529,422,cs),
(565,675,o),
(504,799,o),
(343,799,c),
(342,789,l),
(495,789,o),
(554,668,o),
(519,422,cs),
(480,146,o),
(386,11,o),
(233,11,c)
);
}
);
width = 580;
},
{
anchors = (
{
name = bottom;
pos = (525,1);
},
{
name = center;
pos = (290,400);
},
{
name = top;
pos = (637,799);
}
);
background = {
shapes = (
{
closed = 1;
nodes = (
(287,135,l),
(225,135,l),
(225,665,l),
(287,665,l),
(287,800,l),
(80,800,l),
(80,0,l),
(287,0,l)
);
},
{
closed = 1;
nodes = (
(287,0,l),
(454,0,o),
(535,139,o),
(535,422,cs),
(535,676,o),
(454,800,o),
(287,800,c),
(287,665,l),
(346,665,o),
(375,585,o),
(375,422,cs),
(375,229,o),
(346,135,o),
(287,135,c)
);
}
);
};
layerId = m003;
shapes = (
{
closed = 1;
nodes = (
(620,11,l),
(135,11,l),
(244,789,l),
(730,789,l),
(731,799,l),
(236,799,l),
(124,1,l),
(619,1,l)
);
},
{
closed = 1;
nodes = (
(619,1,l),
(851,1,o),
(1019,164,o),
(1055,422,cs),
(1087,653,o),
(963,799,o),
(731,799,c),
(730,789,l),
(955,789,o),
(1077,647,o),
(1045,422,cs),
(1010,170,o),
(846,11,o),
(620,11,c)
);
}
);
width = 1160;
},
{
anchors = (
{
name = bottom;
pos = (465,1);
},
{
name = center;
pos = (260,400);
},
{
name = top;
pos = (577,799);
}
);
layerId = m004;
shapes = (
{
closed = 1;
nodes = (
(522,235,l),
(348,235,l),
(394,565,l),
(568,565,l),
(601,799,l),
(136,799,l),
(24,1,l),
(489,1,l)
);
},
{
closed = 1;
nodes = (
(489,1,l),
(777,1,o),
(957,152,o),
(995,422,cs),
(1029,664,o),
(889,799,o),
(601,799,c),
(568,565,l),
(649,565,o),
(687,514,o),
(674,422,cs),
(658,302,o),
(603,235,o),
(522,235,c)
);
}
);
width = 1040;
},
{
anchors = (
{
name = bottom;
pos = (348,1);
},
{
name = center;
pos = (196,400);
},
{
name = top;
pos = (460,799);
}
);
layerId = "C42BF1BA-B3BB-492C-A865-1DF6B235F68F";
shapes = (
{
closed = 1;
nodes = (
(372,101,l),
(156,101,l),
(240,699,l),
(456,699,l),
(470,799,l),
(144,799,l),
(32,1,l),
(358,1,l)
);
},
{
closed = 1;
nodes = (
(358,1,l),
(568,1,o),
(723,164,o),
(760,422,cs),
(792,653,o),
(680,799,o),
(470,799,c),
(456,699,l),
(592,699,o),
(663,593,o),
(639,422,cs),
(612,224,o),
(508,101,o),
(372,101,c)
);
}
);
width = 810;
}
);
metricLeft = N;
metricRight = O;
unicode = 68;
},
{
color = 9;
glyphname = E;
kernLeft = H;
kernRight = H;
lastChange = "2024-08-09 20:01:23 +0000";
layers = (
{
anchors = (
{
name = bottom;
pos = (157,1);
},
{
name = ogonek;
pos = (329,11);
},
{
name = top;
pos = (269,799);
},
{
name = topleft;
pos = (75,799);
}
);
layerId = m01;
shapes = (
{
closed = 1;
nodes = (
(251,799,l),
(96,799,l),
(-16,1,l),
(139,1,l)
);
},
{
closed = 1;
nodes = (
(329,1,l),
(349,141,l),
(75,141,l),
(56,1,l)
);
},
{
closed = 1;
nodes = (
(422,659,l),
(441,799,l),
(168,799,l),
(148,659,l)
);
},
{
closed = 1;
nodes = (
(357,340,l),
(377,480,l),
(103,480,l),
(83,340,l)
);
}
);
width = 425;
},
{
anchors = (
{
name = bottom;
pos = (197,1);
},
{
name = ogonek;
pos = (401,11);
},
{
name = top;
pos = (309,799);
},
{
name = topleft;
pos = (75,799);
}
);
background = {
shapes = (
{
closed = 1;
nodes = (
(235,800,l),
(80,800,l),
(80,0,l),
(235,0,l)
);
},
{
closed = 1;
nodes = (
(425,0,l),
(425,140,l),
(152,140,l),
(152,0,l)
);
},
{
closed = 1;
nodes = (
(425,660,l),
(425,800,l),
(152,800,l),
(152,660,l)
);
},
{
closed = 1;
nodes = (
(405,340,l),
(405,480,l),
(132,480,l),
(132,340,l)
);
}
);
};
layerId = m002;
shapes = (
{
closed = 1;
nodes = (
(156,799,l),
(146,799,l),
(34,1,l),
(44,1,l)
);
},
{
closed = 1;
nodes = (
(359,1,l),
(361,11,l),
(38,11,l),
(37,1,l)
);
},
{
closed = 1;
nodes = (
(470,789,l),
(471,799,l),
(149,799,l),
(147,789,l)
);
},
{
closed = 1;
nodes = (
(396,405,l),
(397,415,l),
(95,415,l),
(93,405,l)
);
}
);
width = 505;
},
{
anchors = (
{
name = bottom;
pos = (450,1);
},
{
name = ogonek;
pos = (856,11);
},
{
name = top;
pos = (562,799);
},
{
name = topleft;
pos = (95,799);
}
);
background = {
shapes = (
{
closed = 1;
nodes = (
(235,800,l),
(80,800,l),
(80,0,l),
(235,0,l)
);
},
{
closed = 1;
nodes = (
(425,0,l),
(425,140,l),
(152,140,l),
(152,0,l)
);
},
{
closed = 1;
nodes = (
(425,660,l),
(425,800,l),
(152,800,l),
(152,660,l)
);
},
{
closed = 1;
nodes = (
(405,340,l),
(405,480,l),
(132,480,l),
(132,340,l)
);
}
);
};
layerId = m003;
shapes = (
{
closed = 1;
nodes = (
(245,799,l),
(235,799,l),
(123,1,l),
(133,1,l)
);
},
{
closed = 1;
nodes = (
(775,1,l),
(776,11,l),
(131,11,l),
(129,1,l)
);
},
{
closed = 1;
nodes = (
(885,789,l),
(887,799,l),
(241,799,l),
(240,789,l)
);
},
{
closed = 1;
nodes = (
(791,405,l),
(793,415,l),
(187,415,l),
(186,405,l)
);
}
);
width = 1010;
},
{
anchors = (
{
name = bottom;
pos = (370,1);
},
{
name = ogonek;
pos = (712,11);
},
{
name = top;
pos = (482,799);
},
{
name = topleft;
pos = (95,799);
}
);
layerId = m004;
shapes = (
{
closed = 1;
nodes = (
(446,799,l),
(135,799,l),
(23,1,l),
(334,1,l)
);
},
{
closed = 1;
nodes = (
(715,1,l),
(748,240,l),
(201,240,l),
(168,1,l)
);
},
{
closed = 1;
nodes = (
(793,560,l),
(827,799,l),
(279,799,l),
(246,560,l)
);
},
{
closed = 1;
nodes = (
(718,310,l),
(743,490,l),
(196,490,l),
(171,310,l)
);
}
);
width = 850;
},
{
anchors = (
{
name = bottom;
pos = (285,1);
},
{
name = ogonek;
pos = (567,11);
},
{
name = top;
pos = (397,799);
},
{
name = topleft;
pos = (75,799);
}
);
layerId = "C42BF1BA-B3BB-492C-A865-1DF6B235F68F";
shapes = (
{
closed = 1;
nodes = (
(264,799,l),
(143,799,l),
(31,1,l),
(152,1,l)
);
},
{
closed = 1;
nodes = (
(536,1,l),
(550,101,l),
(101,101,l),
(87,1,l)
);
},
{
closed = 1;
nodes = (
(634,699,l),
(648,799,l),
(198,799,l),
(184,699,l)
);
},
{
closed = 1;
nodes = (
(556,358,l),
(570,458,l),
(137,458,l),
(123,358,l)
);
}
);
width = 679;
}
);
metricLeft = N;
metricRight = N;
unicode = 69;
},
{
color = 9;
glyphname = Schwa;
lastChange = "2024-08-09 20:01:23 +0000";
layers = (
{
anchors = (
{
name = bottom;
pos = (231,1);
},
{
name = top;
pos = (335,800);
}
);
layerId = m002;
shapes = (
{
closed = 1;
nodes = (
(217,809,o),
(135,742,o),
(107,619,c),
(117,619,l),
(144,735,o),
(221,799,o),
(335,799,cs),
(487,799,o),
(547,650,o),
(509,380,cs),
(475,137,o),
(375,1,o),
(231,1,cs),
(88,1,o),
(28,138,o),
(62,383,c),
(512,383,l),
(514,393,l),
(53,393,l),
(53,388,o),
(53,386,o),
(52,381,cs),
(17,131,o),
(80,-9,o),
(230,-9,cs),
(380,-9,o),
(484,130,o),
(519,380,cs),
(558,656,o),
(496,809,o),
(336,809,cs)
);
}
);
width = 576;
},
{
anchors = (
{
name = bottom;
pos = (240,1);
},
{
name = top;
pos = (356,799);
}
);
layerId = m01;
shapes = (
{
closed = 1;
nodes = (
(205,811,o),
(108,728,o),
(62,559,c),
(213,559,l),
(234,637,o),
(275,676,o),
(338,676,cs),
(416,676,o),
(440,579,o),
(412,380,cs),
(388,205,o),
(336,121,o),
(255,121,cs),
(174,121,o),
(143,188,o),
(162,325,c),
(459,325,l),
(477,455,l),
(36,455,l),
(30,431,o),
(25,406,o),
(21,380,cs),
(-10,119,o),
(60,-9,o),
(237,-9,cs),
(419,-9,o),
(526,119,o),
(563,380,cs),
(603,669,o),
(536,811,o),
(356,811,cs)
);
}
);
width = 590;
},
{
anchors = (
{
name = bottom;
pos = (518,1);
},
{
name = top;
pos = (614,800);
}
);
layerId = m003;
shapes = (
{
closed = 1;
nodes = (
(386,809,o),
(219,736,o),
(184,619,c),
(194,619,l),
(228,730,o),
(390,799,o),
(614,799,cs),
(906,799,o),
(1066,637,o),
(1030,380,cs),
(998,148,o),
(800,1,o),
(518,1,cs),
(238,1,o),
(83,149,o),
(116,383,c),
(1037,383,l),
(1038,393,l),
(108,393,l),
(107,388,o),
(107,386,o),
(106,381,cs),
(73,142,o),
(231,-9,o),
(517,-9,cs),
(804,-9,o),
(1007,141,o),
(1040,380,cs),
(1077,643,o),
(913,809,o),
(615,809,cs)
);
}
);
width = 1152;
},
{
anchors = (
{
name = bottom;
pos = (436,1);
},
{
name = top;
pos = (556,799);
}
);
layerId = m004;
shapes = (
{
closed = 1;
nodes = (
(336,811,o),
(151,693,o),
(75,505,c),
(376,505,l),
(394,549,o),
(451,577,o),
(523,577,cs),
(604,577,o),
(644,501,o),
(627,380,cs),
(614,282,o),
(550,220,o),
(463,220,cs),
(375,220,o),
(326,261,o),
(335,325,c),
(728,325,l),
(746,455,l),
(64,455,l),
(57,434,o),
(49,405,o),
(46,380,cs),
(22,141,o),
(171,-9,o),
(430,-9,cs),
(703,-9,o),
(895,141,o),
(928,380,cs),
(965,644,o),
(821,811,o),
(555,811,cs)
);
}
);
width = 980;
},
{
anchors = (
{
name = bottom;
pos = (288,1);
},
{
name = top;
pos = (397,800);
}
);
layerId = "C42BF1BA-B3BB-492C-A865-1DF6B235F68F";
shapes = (
{
closed = 1;
nodes = (
(248,810,o),
(128,725,o),
(87,591,c),
(207,591,l),
(228,664,o),
(296,710,o),
(383,710,cs),
(504,710,o),
(564,595,o),
(538,410,cs),
(510,213,o),
(419,91,o),
(300,91,cs),
(183,91,o),
(123,184,o),
(144,332,c),
(582,332,l),
(595,422,l),
(37,422,l),
(34,411,o),
(30,395,o),
(29,381,cs),
(-1,142,o),
(98,-9,o),
(286,-9,cs),
(478,-9,o),
(622,153,o),
(658,410,cs),
(692,655,o),
(592,810,o),
(397,810,cs)
);
}
);
width = 688;
}
);
metricLeft = O;
metricRight = O;
unicode = 399;
},
{
color = 9;
glyphname = F;
kernLeft = H;
kernRight = V;
lastChange = "2024-08-09 20:01:23 +0000";
layers = (
{
anchors = (
{
name = bottom;
pos = (157,1);
},
{
name = top;
pos = (269,799);
}
);
layerId = m01;
shapes = (
{
closed = 1;
nodes = (
(251,799,l),
(96,799,l),
(-16,1,l),
(139,1,l)
);
},
{
closed = 1;
nodes = (
(422,659,l),
(441,799,l),
(168,799,l),
(148,659,l)
);
},
{
closed = 1;
nodes = (
(357,340,l),
(377,480,l),
(103,480,l),
(83,340,l)
);
}
);
width = 425;
},
{
anchors = (
{
name = bottom;
pos = (197,1);
},
{
name = top;
pos = (309,799);
}
);
layerId = m002;
shapes = (
{
closed = 1;
nodes = (
(156,799,l),
(146,799,l),
(34,1,l),
(44,1,l)
);
},
{
closed = 1;
nodes = (
(470,789,l),
(471,799,l),
(149,799,l),
(147,789,l)
);
},
{
closed = 1;
nodes = (
(396,405,l),
(397,415,l),
(95,415,l),
(93,405,l)
);
}
);
width = 505;
},
{
anchors = (
{
name = bottom;
pos = (450,1);
},
{
name = top;
pos = (562,799);
}
);
layerId = m003;
shapes = (
{
closed = 1;
nodes = (
(245,799,l),
(235,799,l),
(123,1,l),
(133,1,l)
);
},
{
closed = 1;
nodes = (
(885,789,l),
(887,799,l),
(241,799,l),
(240,789,l)
);
},
{
closed = 1;
nodes = (
(791,405,l),
(793,415,l),
(187,415,l),
(186,405,l)
);
}
);
width = 1010;
},
{
anchors = (
{
name = bottom;
pos = (370,1);
},
{
name = top;
pos = (482,799);
}
);
layerId = m004;
shapes = (
{
closed = 1;
nodes = (
(446,799,l),
(135,799,l),
(23,1,l),
(334,1,l)
);
},
{
closed = 1;
nodes = (
(793,560,l),
(827,799,l),
(279,799,l),
(246,560,l)
);
},
{
closed = 1;
nodes = (
(708,240,l),
(742,480,l),
(195,480,l),
(161,240,l)
);
}
);
width = 850;
},
{
anchors = (
{
name = bottom;
pos = (284,1);
},
{
name = top;
pos = (396,799);
}
);
layerId = "C42BF1BA-B3BB-492C-A865-1DF6B235F68F";
shapes = (
{
closed = 1;
nodes = (
(264,799,l),
(143,799,l),
(31,1,l),
(152,1,l)
);
},
{
closed = 1;
nodes = (
(633,699,l),
(647,799,l),
(197,799,l),
(183,699,l)
);
},
{
closed = 1;
nodes = (
(553,346,l),
(567,446,l),
(134,446,l),
(120,346,l)
);
}
);
width = 601;
}
);
metricLeft = N;
unicode = 70;
},
{
color = 9;
glyphname = G;
kernLeft = O;
kernRight = O;
lastChange = "2024-08-09 20:01:23 +0000";
layers = (
{
anchors = (
{
name = bottom;
pos = (213,1);
},
{
name = top;
pos = (325,799);
}
);
layerId = m01;
shapes = (
{
closed = 1;
nodes = (
(532,564,l),
(556,731,o),
(497,813,o),
(344,813,cs),
(168,813,o),
(64,684,o),
(27,422,cs),
(-13,133,o),
(53,-9,o),
(228,-9,cs),
(381,-9,o),
(469,93,o),
(498,300,c),
(362,300,l),
(346,190,o),
(309,136,o),
(249,136,cs),
(184,136,o),
(166,229,o),
(193,422,cs),
(216,588,o),
(259,668,o),
(323,668,cs),
(375,668,o),
(392,633,o),
(382,564,c)
);
},
{
closed = 1;
nodes = (
(498,300,l),
(516,430,l),
(300,430,l),
(282,300,l)
);
},
{
closed = 1;
nodes = (
(359,300,l),
(338,152,l),
(403,1,l),
(456,1,l),
(498,300,l)
);
}
);
width = 537;
},
{
anchors = (
{
name = bottom;
pos = (234,1);
},
{
name = top;
pos = (346,799);
}
);
background = {
shapes = (
{
closed = 1;
nodes = (
(529,564,l),
(529,732,o),
(459,814,o),
(306,814,cs),
(131,814,o),
(45,685,o),
(45,422,cs),
(45,132,o),
(131,-10,o),
(306,-10,cs),
(458,-10,o),
(532,92,o),
(532,300,c),
(396,300,l),
(396,189,o),
(366,135,o),
(306,135,cs),
(242,135,o),
(210,229,o),
(210,422,cs),
(210,588,o),
(242,669,o),
(306,669,cs),
(358,669,o),
(379,634,o),
(379,564,c)
);
},
{
closed = 1;
nodes = (
(532,300,l),
(532,430,l),
(316,430,l),
(316,300,l)
);
}
);
};
layerId = m002;
shapes = (
{
closed = 1;
nodes = (
(537,613,l),
(549,733,o),
(482,809,o),
(363,809,cs),
(209,809,o),
(91,659,o),
(57,422,cs),
(20,158,o),
(94,-9,o),
(249,-9,cs),
(382,-9,o),
(485,134,o),
(517,360,c),
(507,360,l),
(476,140,o),
(377,1,o),
(250,1,cs),
(102,1,o),
(31,164,o),
(67,422,cs),
(100,653,o),
(214,799,o),
(362,799,cs),
(474,799,o),
(538,727,o),
(527,613,c)
);
},
{
closed = 1;
nodes = (
(517,360,l),
(518,370,l),
(332,370,l),
(330,360,l)
);
},
{
closed = 1;
nodes = (
(507,360,l),
(478,152,l),
(457,1,l),
(467,1,l),
(517,360,l)
);
}
);
width = 579;
},
{
anchors = (
{
name = bottom;
pos = (524,1);
},
{
name = top;
pos = (636,799);
}
);
background = {
shapes = (
{
closed = 1;
nodes = (
(529,564,l),
(529,732,o),
(459,814,o),
(306,814,cs),
(131,814,o),
(45,685,o),
(45,422,cs),
(45,132,o),
(131,-10,o),
(306,-10,cs),
(458,-10,o),
(532,92,o),
(532,300,c),
(396,300,l),
(396,189,o),
(366,135,o),
(306,135,cs),
(242,135,o),
(210,229,o),
(210,422,cs),
(210,588,o),
(242,669,o),
(306,669,cs),
(358,669,o),
(379,634,o),
(379,564,c)
);
},
{
closed = 1;
nodes = (
(532,300,l),
(532,430,l),
(316,430,l),
(316,300,l)
);
}
);
};
layerId = m003;
shapes = (
{
closed = 1;
nodes = (
(1045,613,l),
(1051,733,o),
(898,809,o),
(649,809,cs),
(353,809,o),
(145,659,o),
(112,422,cs),
(75,158,o),
(238,-9,o),
(535,-9,cs),
(813,-9,o),
(1008,134,o),
(1039,360,c),
(1029,360,l),
(999,140,o),
(809,1,o),
(536,1,cs),
(245,1,o),
(86,164,o),
(122,422,cs),
(154,653,o),
(357,799,o),
(648,799,cs),
(890,799,o),
(1040,727,o),
(1035,613,c)
);
},
{
closed = 1;
nodes = (
(1039,360,l),
(1041,370,l),
(668,370,l),
(667,360,l)
);
},
{
closed = 1;
nodes = (
(1029,360,l),
(1000,152,l),
(979,1,l),
(989,1,l),
(1039,360,l)
);
}
);
width = 1158;
},
{
anchors = (
{
name = bottom;
pos = (516,1);
},
{
name = top;
pos = (628,799);
}
);
layerId = m004;
shapes = (
{
closed = 1;
nodes = (
(1035,514,l),
(1060,697,o),
(904,813,o),
(630,813,cs),
(308,813,o),
(85,662,o),
(51,422,cs),
(14,158,o),
(193,-9,o),
(514,-9,cs),
(781,-9,o),
(972,111,o),
(1011,300,c),
(728,300,l),
(703,260,o),
(634,235,o),
(549,235,cs),
(430,235,o),
(366,307,o),
(382,422,cs),
(395,512,o),
(477,569,o),
(595,569,cs),
(686,569,o),
(739,548,o),
(734,514,c)
);
},
{
closed = 1;
nodes = (
(1011,300,l),
(1033,460,l),
(600,460,l),
(578,300,l)
);
},
{
closed = 1;
nodes = (
(738,300,l),
(717,152,l),
(861,1,l),
(969,1,l),
(1011,300,l)
);
}
);
width = 1074;
},
{
anchors = (
{
name = bottom;
pos = (366,1);
},
{
name = top;
pos = (491,799);
}
);
background = {
shapes = (
{
closed = 1;
nodes = (
(636,-10,o),
(775,157,o),
(775,422,cs),
(775,663,o),
(636,814,o),
(414,814,cs),
(193,814,o),
(55,663,o),
(55,422,cs),
(55,157,o),
(193,-10,o),
(414,-10,cs)
);
},
{
closed = 1;
nodes = (
(270,90,o),
(180,217,o),
(180,420,cs),
(180,601,o),
(270,714,o),
(414,714,cs),
(559,714,o),
(650,601,o),
(650,420,cs),
(650,217,o),
(559,90,o),
(414,90,cs)
);
}
);
};
layerId = "C42BF1BA-B3BB-492C-A865-1DF6B235F68F";
shapes = (
{
closed = 1;
nodes = (
(769,578,l),
(785,721,o),
(675,811,o),
(484,811,cs),
(255,811,o),
(91,661,o),
(57,422,cs),
(20,158,o),
(140,-9,o),
(369,-9,cs),
(571,-9,o),
(722,123,o),
(761,332,c),
(649,332,l),
(628,184,o),
(526,91,o),
(383,91,cs),
(231,91,o),
(154,218,o),
(182,422,cs),
(207,600,o),
(318,711,o),
(470,711,cs),
(587,711,o),
(656,659,o),
(649,578,c)
);
},
{
closed = 1;
nodes = (
(760,326,l),
(773,416,l),
(472,416,l),
(460,326,l)
);
},
{
closed = 1;
nodes = (
(648,326,l),
(624,152,l),
(662,1,l),
(715,1,l),
(760,326,l)
);
}
);
width = 825;
}
);
metricLeft = O;
metricRight = O;
unicode = 71;
},
{
color = 9;
glyphname = H;
kernLeft = H;
kernRight = H;
lastChange = "2024-08-09 20:01:23 +0000";
layers = (
{
anchors = (
{
name = bottom;
pos = (204,1);
},
{
name = center;
pos = (288,600);
},
{
name = top;
pos = (316,799);
},
{
name = topleft;
pos = (75,799);
}
);
layerId = m01;
shapes = (
{
closed = 1;
nodes = (
(144,1,l),
(191,336,l),
(311,336,l),
(264,1,l),
(425,1,l),
(536,799,l),
(376,799,l),
(330,471,l),
(210,471,l),
(256,799,l),
(95,799,l),
(-16,1,l)
);
}
);
width = 520;
},
{
anchors = (
{
name = bottom;
pos = (234,1);
},
{
name = center;
pos = (318,601);
},
{
name = top;
pos = (346,799);
},
{
name = topleft;
pos = (75,799);
}
);
background = {
shapes = (
{
closed = 1;
nodes = (
(230,2,l),
(230,336,l),
(350,336,l),
(350,4,l),
(510,4,l),
(510,800,l),
(350,800,l),
(350,471,l),
(230,471,l),
(230,802,l),
(70,802,l),
(70,2,l)
);
}
);
};
layerId = m002;
shapes = (
{
closed = 1;
nodes = (
(44,1,l),
(99,398,l),
(480,398,l),
(425,1,l),
(435,1,l),
(546,799,l),
(536,799,l),
(482,408,l),
(101,408,l),
(155,799,l),
(145,799,l),
(34,1,l)
);
}
);
width = 580;
},
{
anchors = (
{
name = bottom;
pos = (524,1);
},
{
name = center;
pos = (608,601);
},
{
name = top;
pos = (636,799);
},
{
name = topleft;
pos = (95,799);
}
);
background = {
shapes = (
{
closed = 1;
nodes = (
(230,2,l),
(230,336,l),
(350,336,l),
(350,4,l),
(510,4,l),
(510,800,l),
(350,800,l),
(350,471,l),
(230,471,l),
(230,802,l),
(70,802,l),
(70,2,l)
);
}
);
};
layerId = m003;
shapes = (
{
closed = 1;
nodes = (
(133,1,l),
(189,398,l),
(971,398,l),
(915,1,l),
(925,1,l),
(1037,799,l),
(1027,799,l),
(972,408,l),
(190,408,l),
(245,799,l),
(235,799,l),
(123,1,l)
);
}
);
width = 1160;
},
{
anchors = (
{
name = bottom;
pos = (464,1);
},
{
name = center;
pos = (548,600);
},
{
name = top;
pos = (576,799);
},
{
name = topleft;
pos = (95,799);
}
);
layerId = m004;
shapes = (
{
closed = 1;
nodes = (
(344,1,l),
(384,286,l),
(624,286,l),
(584,1,l),
(905,1,l),
(1017,799,l),
(696,799,l),
(657,521,l),
(417,521,l),
(456,799,l),
(135,799,l),
(23,1,l)
);
}
);
width = 1040;
},
{
anchors = (
{
name = bottom;
pos = (345,1);
},
{
name = center;
pos = (429,601);
},
{
name = top;
pos = (457,799);
},
{
name = topleft;
pos = (72,799);
}
);
layerId = "C42BF1BA-B3BB-492C-A865-1DF6B235F68F";
shapes = (
{
closed = 1;
nodes = (
(152,1,l),
(201,354,l),
(587,354,l),
(538,1,l),
(658,1,l),
(770,799,l),
(649,799,l),
(601,454,l),
(215,454,l),
(263,799,l),
(143,799,l),
(31,1,l)
);
}
);
width = 801;
}
);
metricLeft = N;
metricRight = N;
unicode = 72;
},
{
color = 9;
glyphname = I;
kernLeft = H;
kernRight = H;
lastChange = "2024-08-09 20:01:23 +0000";
layers = (
{
anchors = (
{
name = bottom;
pos = (62,1);
},
{
name = ogonek;
pos = (158,11);
},
{
name = top;
pos = (174,799);
},
{
name = topleft;
pos = (76,799);
}
);
layerId = m01;
shapes = (
{
closed = 1;
nodes = (
(96,799,l),
(-16,1,l),
(139,1,l),
(251,799,l)
);
}
);
width = 235;
},
{
anchors = (
{
name = bottom;
pos = (62,1);
},
{
name = ogonek;
pos = (72,1);
},
{
name = top;
pos = (174,799);
},
{
name = topleft;
pos = (76,799);
}
);
layerId = m002;
shapes = (
{
closed = 1;
nodes = (
(168,799,l),
(56,1,l),
(66,1,l),
(178,799,l)
);
}
);
width = 235;
},
{
anchors = (
{
name = bottom;
pos = (180,1);
},
{
name = ogonek;
pos = (200,1);
},
{
name = top;
pos = (292,799);
},
{
name = topleft;
pos = (95,799);
}
);
layerId = m003;
shapes = (
{
closed = 1;
nodes = (
(285,799,l),
(173,1,l),
(183,1,l),
(295,799,l)
);
}
);
width = 470;
},
{
anchors = (
{
name = bottom;
pos = (180,1);
},
{
name = ogonek;
pos = (370,11);
},
{
name = top;
pos = (292,799);
},
{
name = topleft;
pos = (95,799);
}
);
layerId = m004;
shapes = (
{
closed = 1;
nodes = (
(136,799,l),
(24,1,l),
(334,1,l),
(446,799,l)
);
}
);
width = 470;
},
{
anchors = (
{
name = bottom;
pos = (82,1);
},
{
name = ogonek;
pos = (158,6);
},
{
name = top;
pos = (194,799);
},
{
name = topleft;
pos = (47,799);
}
);
layerId = "C42BF1BA-B3BB-492C-A865-1DF6B235F68F";
shapes = (
{
closed = 1;
nodes = (
(133,799,l),
(21,1,l),
(141,1,l),
(253,799,l)
);
}
);
width = 274;
}
);
unicode = 73;
},
{
color = 9;
glyphname = J;
kernLeft = H;
kernRight = H;
lastChange = "2024-08-09 20:01:23 +0000";
layers = (
{
anchors = (
{
name = bottom;
pos = (79,1);
},
{
name = top;
pos = (191,799);
}
);
layerId = m01;
shapes = (
{
closed = 1;
nodes = (
(111,799,l),
(-1,1,l),
(159,1,l),
(271,799,l)
);
},
{
closed = 1;
nodes = (
(38,-215,o),
(142,-126,o),
(159,1,c),
(-1,1,l),
(-8,-49,o),
(-38,-85,o),
(-73,-85,c),
(-91,-215,l)
);
}
);
width = 240;
},
{
anchors = (
{
name = bottom;
pos = (79,1);
},
{
name = top;
pos = (191,799);
}
);
layerId = m002;
shapes = (
{
closed = 1;
nodes = (
(186,799,l),
(59,-109,l),
(69,-109,l),
(196,799,l)
);
},
{
closed = 1;
nodes = (
(18,-202,o),
(63,-154,o),
(69,-109,c),
(59,-109,l),
(53,-149,o),
(14,-192,o),
(-30,-207,c),
(-31,-217,l)
);
}
);
width = 240;
},
{
anchors = (
{
name = bottom;
pos = (199,1);
},
{
name = top;
pos = (311,799);
}
);
layerId = m003;
shapes = (
{
closed = 1;
nodes = (
(306,799,l),
(193,-9,l),
(203,-9,l),
(316,799,l)
);
},
{
closed = 1;
nodes = (
(112,-201,o),
(187,-121,o),
(203,-9,c),
(193,-9,l),
(178,-114,o),
(108,-190,o),
(10,-207,c),
(9,-217,l)
);
}
);
width = 480;
},
{
anchors = (
{
name = bottom;
pos = (199,1);
},
{
name = top;
pos = (311,799);
}
);
layerId = m004;
shapes = (
{
closed = 1;
nodes = (
(151,799,l),
(53,100,l),
(360,1,l),
(472,799,l)
);
},
{
closed = 1;
nodes = (
(172,-215,o),
(340,-138,o),
(360,1,c),
(53,100,l),
(45,46,o),
(-2,15,o),
(-79,15,c),
(-112,-215,l)
);
}
);
width = 480;
},
{
anchors = (
{
name = bottom;
pos = (96,1);
},
{
name = top;
pos = (208,799);
}
);
layerId = "C42BF1BA-B3BB-492C-A865-1DF6B235F68F";
shapes = (
{
closed = 1;
nodes = (
(148,799,l),
(35,-7,l),
(152,-30,l),
(268,799,l)
);
},
{
closed = 1;
nodes = (
(41,-208,o),
(137,-136,o),
(152,-30,c),
(35,-7,l),
(27,-66,o),
(-19,-108,o),
(-83,-116,c),
(-97,-216,l)
);
}
);
width = 274;
}
);
unicode = 74;
},
{
color = 9;
glyphname = K;
kernLeft = H;
kernRight = C;
lastChange = "2024-08-09 20:01:23 +0000";
layers = (
{
anchors = (
{
name = bottom;
pos = (224,1);
},
{
name = top;
pos = (336,799);
}
);
layerId = m01;
shapes = (
{
closed = 1;
nodes = (
(95,799,l),
(-17,1,l),
(139,1,l),
(251,799,l)
);
},
{
closed = 1;
nodes = (
(427,799,l),
(185,429,l),
(356,429,l),
(598,799,l)
);
},
{
closed = 1;
nodes = (
(356,429,l),
(166,429,l),
(315,1,l),
(505,1,l)
);
}
);
width = 560;
},
{
anchors = (
{
name = bottom;
pos = (186,1);
},
{
name = top;
pos = (298,799);
}
);
background = {
shapes = (
{
closed = 1;
nodes = (
(80,800,l),
(80,0,l),
(235,0,l),
(235,800,l)
);
},
{
closed = 1;
nodes = (
(411,800,l),
(221,429,l),
(392,429,l),
(581,800,l)
);
},
{
closed = 1;
nodes = (
(392,429,l),
(202,429,l),
(411,0,l),
(600,0,l)
);
}
);
};
layerId = m002;
shapes = (
{
closed = 1;
nodes = (
(145,799,l),
(34,1,l),
(44,1,l),
(155,799,l)
);
},
{
closed = 1;
nodes = (
(546,799,l),
(95,429,l),
(109,429,l),
(561,799,l)
);
},
{
closed = 1;
nodes = (
(108,429,l),
(95,429,l),
(446,1,l),
(458,1,l)
);
}
);
width = 513;
},
{
anchors = (
{
name = bottom;
pos = (428,1);
},
{
name = top;
pos = (540,799);
}
);
background = {
shapes = (
{
closed = 1;
nodes = (
(80,800,l),
(80,0,l),
(235,0,l),
(235,800,l)
);
},
{
closed = 1;
nodes = (
(411,800,l),
(221,429,l),
(392,429,l),
(581,800,l)
);
},
{
closed = 1;
nodes = (
(392,429,l),
(202,429,l),
(411,0,l),
(600,0,l)
);
}
);
};
layerId = m003;
shapes = (
{
closed = 1;
nodes = (
(235,799,l),
(123,1,l),
(133,1,l),
(245,799,l)
);
},
{
closed = 1;
nodes = (
(937,799,l),
(185,429,l),
(206,429,l),
(967,799,l)
);
},
{
closed = 1;
nodes = (
(204,429,l),
(185,429,l),
(847,1,l),
(871,1,l)
);
}
);
width = 966;
},
{
anchors = (
{
name = bottom;
pos = (504,1);
},
{
name = top;
pos = (616,799);
}
);
layerId = m004;
shapes = (
{
closed = 1;
nodes = (
(135,799,l),
(23,1,l),
(334,1,l),
(445,799,l)
);
},
{
closed = 1;
nodes = (
(748,799,l),
(366,429,l),
(708,429,l),
(1139,799,l)
);
},
{
closed = 1;
nodes = (
(708,429,l),
(327,429,l),
(636,1,l),
(1065,1,l)
);
}
);
width = 1120;
},
{
anchors = (
{
name = bottom;
pos = (323,1);
},
{
name = top;
pos = (435,799);
}
);
layerId = "C42BF1BA-B3BB-492C-A865-1DF6B235F68F";
shapes = (
{
closed = 1;
nodes = (
(143,799,l),
(31,1,l),
(152,1,l),
(263,799,l)
);
},
{
closed = 1;
nodes = (
(602,799,l),
(189,399,l),
(342,399,l),
(750,799,l)
);
},
{
closed = 1;
nodes = (
(342,399,l),
(165,399,l),
(530,1,l),
(698,1,l)
);
}
);
width = 741;
}
);
metricLeft = N;
unicode = 75;
},
{
color = 9;
glyphname = L;
kernLeft = H;
kernRight = A;
lastChange = "2024-08-09 20:01:23 +0000";
layers = (
{
anchors = (
{
name = bottom;
pos = (147,1);
},
{
name = center;
pos = (203,400);
},
{
name = top;
pos = (259,799);
},
{
name = topright;
pos = (442,799);
}
);
layerId = m01;
shapes = (
{
closed = 1;
nodes = (
(251,799,l),
(96,799,l),
(-16,1,l),
(139,1,l)
);
},
{
closed = 1;
nodes = (
(330,1,l),
(349,141,l),
(4,141,l),
(-16,1,l)
);
}
);
width = 405;
},
{
anchors = (
{
name = bottom;
pos = (148,1);
},
{
name = center;
pos = (204,400);
},
{
name = top;
pos = (260,799);
},
{
name = topright;
pos = (442,799);
}
);
layerId = m002;
shapes = (
{
closed = 1;
nodes = (
(126,799,l),
(116,799,l),
(4,1,l),
(14,1,l)
);
},
{
closed = 1;
nodes = (
(300,1,l),
(301,11,l),
(6,11,l),
(4,1,l)
);
}
);
width = 405;
},
{
anchors = (
{
name = bottom;
pos = (351,1);
},
{
name = center;
pos = (407,400);
},
{
name = top;
pos = (463,799);
},
{
name = topright;
pos = (828,799);
}
);
layerId = m003;
shapes = (
{
closed = 1;
nodes = (
(187,799,l),
(177,799,l),
(65,1,l),
(75,1,l)
);
},
{
closed = 1;
nodes = (
(656,1,l),
(658,11,l),
(66,11,l),
(65,1,l)
);
}
);
width = 810;
},
{
anchors = (
{
name = bottom;
pos = (351,1);
},
{
name = center;
pos = (407,400);
},
{
name = top;
pos = (463,799);
},
{
name = topright;
pos = (828,799);
}
);
layerId = m004;
shapes = (
{
closed = 1;
nodes = (
(447,799,l),
(136,799,l),
(24,1,l),
(335,1,l)
);
},
{
closed = 1;
nodes = (
(716,1,l),
(749,240,l),
(58,240,l),
(24,1,l)
);
}
);
width = 810;
},
{
anchors = (
{
name = bottom;
pos = (251,1);
},
{
name = center;
pos = (307,400);
},
{
name = top;
pos = (363,799);
},
{
name = topright;
pos = (485,799);
}
);
layerId = "C42BF1BA-B3BB-492C-A865-1DF6B235F68F";
shapes = (
{
closed = 1;
nodes = (
(253,799,l),
(133,799,l),
(21,1,l),
(142,1,l)
);
},
{
closed = 1;
nodes = (
(500,1,l),
(514,101,l),
(35,101,l),
(21,1,l)
);
}
);
width = 553;
}
);
unicode = 76;
},
{
color = 9;
glyphname = M;
kernLeft = A;
kernRight = A;
lastChange = "2024-08-09 20:01:23 +0000";
layers = (
{
anchors = (
{
name = bottom;
pos = (289,1);
},
{
name = top;
pos = (401,799);
}
);
layerId = m01;
shapes = (
{
closed = 1;
nodes = (
(-32,1,l),
(109,1,l),
(201,540,l),
(180,540,l),
(224,1,l),
(354,1,l),
(273,799,l),
(112,799,l)
);
},
{
closed = 1;
nodes = (
(223,1,l),
(353,1,l),
(558,540,l),
(537,540,l),
(470,1,l),
(610,1,l),
(700,799,l),
(539,799,l)
);
}
);
width = 690;
},
{
anchors = (
{
name = bottom;
pos = (306,1);
},
{
name = top;
pos = (418,799);
}
);
layerId = m002;
shapes = (
{
closed = 1;
nodes = (
(-24,1,l),
(-14,1,l),
(194,788,l),
(188,788,l),
(302,1,l),
(312,1,l),
(197,799,l),
(187,799,l)
);
},
{
closed = 1;
nodes = (
(302,1,l),
(312,1,l),
(652,788,l),
(646,788,l),
(625,1,l),
(635,1,l),
(657,799,l),
(647,799,l)
);
}
);
width = 723;
},
{
anchors = (
{
name = bottom;
pos = (668,1);
},
{
name = top;
pos = (780,799);
}
);
layerId = m003;
shapes = (
{
closed = 1;
nodes = (
(9,1,l),
(19,1,l),
(324,788,l),
(322,788,l),
(665,1,l),
(676,1,l),
(328,799,l),
(317,799,l)
);
},
{
closed = 1;
nodes = (
(665,1,l),
(676,1,l),
(1250,788,l),
(1248,788,l),
(1316,1,l),
(1326,1,l),
(1257,799,l),
(1246,799,l)
);
}
);
width = 1446;
},
{
anchors = (
{
name = bottom;
pos = (634,1);
},
{
name = top;
pos = (746,799);
}
);
layerId = m004;
shapes = (
{
closed = 1;
nodes = (
(-7,1,l),
(273,1,l),
(383,540,l),
(341,540,l),
(504,1,l),
(764,1,l),
(539,799,l),
(169,799,l)
);
},
{
closed = 1;
nodes = (
(502,1,l),
(762,1,l),
(1097,540,l),
(1054,540,l),
(995,1,l),
(1276,1,l),
(1343,799,l),
(973,799,l)
);
}
);
width = 1380;
},
{
anchors = (
{
name = bottom;
pos = (458,1);
},
{
name = top;
pos = (570,799);
}
);
layerId = "C42BF1BA-B3BB-492C-A865-1DF6B235F68F";
shapes = (
{
closed = 1;
nodes = (
(-30,1,l),
(92,1,l),
(260,670,l),
(240,670,l),
(398,1,l),
(519,1,l),
(337,799,l),
(182,799,l)
);
},
{
closed = 1;
nodes = (
(398,1,l),
(518,1,l),
(875,670,l),
(856,670,l),
(823,1,l),
(945,1,l),
(971,799,l),
(817,799,l)
);
}
);
width = 1035;
}
);
unicode = 77;
},
{
color = 9;
glyphname = N;
kernLeft = H;
kernRight = H;
lastChange = "2024-08-09 20:01:23 +0000";
layers = (
{
anchors = (
{
name = bottom;
pos = (204,1);
},
{
name = top;
pos = (316,799);
}
);
layerId = m01;
shapes = (
{
closed = 1;
nodes = (
(226,799,l),
(95,799,l),
(-16,1,l),
(124,1,l)
);
},
{
closed = 1;
nodes = (
(294,1,l),
(425,1,l),
(536,799,l),
(396,799,l)
);
},
{
closed = 1;
nodes = (
(274,1,l),
(425,1,l),
(241,799,l),
(115,799,l)
);
}
);
width = 520;
},
{
anchors = (
{
name = bottom;
pos = (252,1);
},
{
name = top;
pos = (364,799);
}
);
background = {
shapes = (
{
closed = 1;
nodes = (
(218,802,l),
(88,802,l),
(88,2,l),
(228,2,l)
);
},
{
closed = 1;
nodes = (
(398,4,l),
(528,4,l),
(528,800,l),
(388,800,l)
);
},
{
closed = 1;
nodes = (
(378,4,l),
(528,4,l),
(233,800,l),
(108,800,l)
);
}
);
};
layerId = m002;
shapes = (
{
closed = 1;
nodes = (
(155,799,l),
(145,799,l),
(34,1,l),
(44,1,l)
);
},
{
closed = 1;
nodes = (
(461,1,l),
(471,1,l),
(582,799,l),
(572,799,l)
);
},
{
closed = 1;
nodes = (
(460,1,l),
(471,1,l),
(156,799,l),
(145,799,l)
);
}
);
width = 616;
},
{
anchors = (
{
name = bottom;
pos = (560,1);
},
{
name = top;
pos = (672,799);
}
);
background = {
shapes = (
{
closed = 1;
nodes = (
(218,802,l),
(88,802,l),
(88,2,l),
(228,2,l)
);
},
{
closed = 1;
nodes = (
(398,4,l),
(528,4,l),
(528,800,l),
(388,800,l)
);
},
{
closed = 1;
nodes = (
(378,4,l),
(528,4,l),
(233,800,l),
(108,800,l)
);
}
);
};
layerId = m003;
shapes = (
{
closed = 1;
nodes = (
(245,799,l),
(235,799,l),
(123,1,l),
(133,1,l)
);
},
{
closed = 1;
nodes = (
(987,1,l),
(997,1,l),
(1109,799,l),
(1099,799,l)
);
},
{
closed = 1;
nodes = (
(983,1,l),
(997,1,l),
(249,799,l),
(235,799,l)
);
}
);
width = 1232;
},
{
anchors = (
{
name = bottom;
pos = (464,1);
},
{
name = top;
pos = (576,799);
}
);
layerId = m004;
shapes = (
{
closed = 1;
nodes = (
(396,799,l),
(135,799,l),
(23,1,l),
(304,1,l)
);
},
{
closed = 1;
nodes = (
(644,1,l),
(905,1,l),
(1017,799,l),
(736,799,l)
);
},
{
closed = 1;
nodes = (
(554,1,l),
(905,1,l),
(476,799,l),
(175,799,l)
);
}
);
width = 1040;
},
{
anchors = (
{
name = bottom;
pos = (350,1);
},
{
name = top;
pos = (462,799);
}
);
layerId = "C42BF1BA-B3BB-492C-A865-1DF6B235F68F";
shapes = (
{
closed = 1;
nodes = (
(247,799,l),
(132,799,l),
(20,1,l),
(143,1,l)
);
},
{
closed = 1;
nodes = (
(565,1,l),
(679,1,l),
(791,799,l),
(669,799,l)
);
},
{
closed = 1;
nodes = (
(536,1,l),
(659,1,l),
(274,799,l),
(152,799,l)
);
}
);
width = 811;
}
);
unicode = 78;
},
{
color = 9;
glyphname = Eng;
lastChange = "2024-08-09 20:01:23 +0000";
layers = (
{
layerId = m002;
shapes = (
{
closed = 1;
nodes = (
(169,799,l),
(159,799,l),
(47,1,l),
(57,1,l)
);
},
{
closed = 1;
nodes = (
(460,-99,l),
(470,-99,l),
(596,799,l),
(586,799,l)
);
},
{
closed = 1;
nodes = (
(473,1,l),
(484,1,l),
(170,799,l),
(159,799,l)
);
},
{
closed = 1;
nodes = (
(419,-192,o),
(464,-144,o),
(470,-99,c),
(460,-99,l),
(455,-139,o),
(416,-182,o),
(371,-197,c),
(370,-207,l)
);
}
);
width = 616;
},
{
layerId = m01;
shapes = (
{
closed = 1;
nodes = (
(240,799,l),
(110,799,l),
(-2,1,l),
(138,1,l)
);
},
{
closed = 1;
nodes = (
(309,1,l),
(439,1,l),
(551,799,l),
(411,799,l)
);
},
{
closed = 1;
nodes = (
(289,1,l),
(439,1,l),
(255,799,l),
(130,799,l)
);
},
{
closed = 1;
nodes = (
(318,-215,o),
(421,-126,o),
(439,1,c),
(289,1,l),
(282,-49,o),
(248,-85,o),
(207,-85,c),
(188,-215,l)
);
}
);
width = 520;
},
{
layerId = m003;
shapes = (
{
closed = 1;
nodes = (
(258,799,l),
(248,799,l),
(136,1,l),
(146,1,l)
);
},
{
closed = 1;
nodes = (
(1000,1,l),
(1010,1,l),
(1122,799,l),
(1112,799,l)
);
},
{
closed = 1;
nodes = (
(996,1,l),
(1010,1,l),
(262,799,l),
(248,799,l)
);
},
{
closed = 1;
nodes = (
(919,-191,o),
(994,-111,o),
(1010,1,c),
(1000,1,l),
(985,-104,o),
(914,-180,o),
(817,-197,c),
(815,-207,l)
);
}
);
width = 1232;
},
{
layerId = m004;
shapes = (
{
closed = 1;
nodes = (
(410,799,l),
(149,799,l),
(37,1,l),
(318,1,l)
);
},
{
closed = 1;
nodes = (
(659,1,l),
(919,1,l),
(1031,799,l),
(750,799,l)
);
},
{
closed = 1;
nodes = (
(507,133,l),
(919,1,l),
(490,799,l),
(189,799,l)
);
},
{
closed = 1;
nodes = (
(732,-215,o),
(900,-138,o),
(919,1,c),
(612,101,l),
(605,46,o),
(557,15,o),
(480,15,c),
(448,-215,l)
);
}
);
width = 1040;
},
{
layerId = "C42BF1BA-B3BB-492C-A865-1DF6B235F68F";
shapes = (
{
closed = 1;
nodes = (
(262,799,l),
(146,799,l),
(34,1,l),
(157,1,l)
);
},
{
closed = 1;
nodes = (
(579,1,l),
(693,1,l),
(805,799,l),
(684,799,l)
);
},
{
closed = 1;
nodes = (
(550,1,l),
(673,1,l),
(289,799,l),
(166,799,l)
);
},
{
closed = 1;
nodes = (
(578,-208,o),
(678,-105,o),
(693,1,c),
(579,1,l),
(570,-58,o),
(517,-108,o),
(453,-116,c),
(439,-216,l)
);
}
);
width = 811;
}
);
metricRight = N;
unicode = 330;
},
{
color = 9;
glyphname = O;
kernLeft = O;
kernRight = O;
lastChange = "2024-08-09 20:01:23 +0000";
layers = (
{
anchors = (
{
name = bottom;
pos = (209,1);
},
{
name = center;
pos = (265,400);
},
{
name = ogonek;
pos = (423,11);
},
{
name = top;
pos = (321,799);
},
{
name = topleft;
pos = (75,799);
},
{
name = topright;
pos = (508,799);
}
);
layerId = m01;
shapes = (
{
closed = 1;
nodes = (
(369,-9,o),
(466,121,o),
(508,422,cs),
(547,695,o),
(484,813,o),
(322,813,cs),
(161,813,o),
(66,695,o),
(27,422,cs),
(-15,121,o),
(46,-9,o),
(206,-9,cs)
);
},
{
closed = 1;
nodes = (
(182,136,o),
(164,221,o),
(193,422,cs),
(217,595,o),
(256,668,o),
(301,668,cs),
(347,668,o),
(367,595,o),
(343,422,cs),
(315,221,o),
(273,136,o),
(227,136,cs)
);
}
);
width = 530;
},
{
anchors = (
{
name = bottom;
pos = (238,1);
},
{
name = center;
pos = (295,400);
},
{
name = ogonek;
pos = (271,1);
},
{
name = top;
pos = (350,803);
},
{
name = topleft;
pos = (75,799);
},
{
name = topright;
pos = (586,799);
}
);
background = {
shapes = (
{
closed = 1;
nodes = (
(456,-10,o),
(535,120,o),
(535,422,cs),
(535,696,o),
(456,814,o),
(294,814,cs),
(134,814,o),
(55,696,o),
(55,422,cs),
(55,120,o),
(134,-10,o),
(294,-10,cs)
);
},
{
closed = 1;
nodes = (
(249,135,o),
(220,221,o),
(220,422,cs),
(220,595,o),
(249,669,o),
(294,669,cs),
(340,669,o),
(370,595,o),
(370,422,cs),
(370,221,o),
(340,135,o),
(294,135,cs)
);
}
);
};
layerId = m002;
shapes = (
{
closed = 1;
nodes = (
(399,-9,o),
(498,133,o),
(538,422,cs),
(575,684,o),
(514,813,o),
(352,813,cs),
(191,813,o),
(94,684,o),
(57,422,cs),
(17,133,o),
(76,-9,o),
(236,-9,cs)
);
},
{
closed = 1;
nodes = (
(83,1,o),
(28,140,o),
(67,422,cs),
(103,677,o),
(196,803,o),
(350,803,cs),
(506,803,o),
(564,677,o),
(528,422,cs),
(489,140,o),
(393,1,o),
(238,1,cs)
);
}
);
width = 590;
},
{
anchors = (
{
name = bottom;
pos = (532,1);
},
{
name = center;
pos = (590,400);
},
{
name = ogonek;
pos = (604,1);
},
{
name = top;
pos = (644,799);
},
{
name = topleft;
pos = (94,799);
},
{
name = topright;
pos = (1120,799);
}
);
background = {
shapes = (
{
closed = 1;
nodes = (
(456,-10,o),
(535,120,o),
(535,422,cs),
(535,696,o),
(456,814,o),
(294,814,cs),
(134,814,o),
(55,696,o),
(55,422,cs),
(55,120,o),
(134,-10,o),
(294,-10,cs)
);
},
{
closed = 1;
nodes = (
(249,135,o),
(220,221,o),
(220,422,cs),
(220,595,o),
(249,669,o),
(294,669,cs),
(340,669,o),
(370,595,o),
(370,422,cs),
(370,221,o),
(340,135,o),
(294,135,cs)
);
}
);
};
layerId = m003;
shapes = (
{
closed = 1;
nodes = (
(827,-9,o),
(1037,158,o),
(1074,422,cs),
(1108,662,o),
(942,813,o),
(646,813,cs),
(351,813,o),
(145,662,o),
(112,422,cs),
(75,158,o),
(236,-9,o),
(530,-9,cs)
);
},
{
closed = 1;
nodes = (
(244,1,o),
(85,164,o),
(122,422,cs),
(155,656,o),
(357,803,o),
(644,803,cs),
(935,803,o),
(1097,656,o),
(1064,422,cs),
(1028,164,o),
(822,1,o),
(532,1,cs)
);
}
);
width = 1180;
},
{
anchors = (
{
name = bottom;
pos = (474,1);
},
{
name = center;
pos = (530,400);
},
{
name = ogonek;
pos = (643,11);
},
{
name = top;
pos = (586,799);
},
{
name = topleft;
pos = (94,799);
},
{
name = topright;
pos = (953,799);
}
);
layerId = m004;
shapes = (
{
closed = 1;
nodes = (
(781,-9,o),
(975,145,o),
(1014,422,cs),
(1049,673,o),
(896,813,o),
(586,813,cs),
(278,813,o),
(87,673,o),
(52,422,cs),
(13,145,o),
(163,-9,o),
(470,-9,cs)
);
},
{
closed = 1;
nodes = (
(409,235,o),
(364,292,o),
(381,412,cs),
(394,506,o),
(456,569,o),
(551,569,cs),
(650,569,o),
(695,506,o),
(682,412,cs),
(665,292,o),
(603,235,o),
(505,235,cs)
);
}
);
width = 1060;
},
{
anchors = (
{
name = bottom;
pos = (335,1);
},
{
name = center;
pos = (392,400);
},
{
name = ogonek;
pos = (434,6);
},
{
name = top;
pos = (447,800);
},
{
name = topleft;
pos = (56,799);
},
{
name = topright;
pos = (765,799);
}
);
layerId = "C42BF1BA-B3BB-492C-A865-1DF6B235F68F";
shapes = (
{
closed = 1;
nodes = (
(556,-9,o),
(719,158,o),
(756,422,cs),
(789,662,o),
(671,813,o),
(449,813,cs),
(227,813,o),
(68,662,o),
(34,422,cs),
(-3,158,o),
(112,-9,o),
(333,-9,cs)
);
},
{
closed = 1;
nodes = (
(203,91,o),
(131,217,o),
(159,420,cs),
(184,601,o),
(290,713,o),
(435,713,cs),
(580,713,o),
(655,601,o),
(630,420,cs),
(602,217,o),
(493,91,o),
(347,91,cs)
);
}
);
width = 784;
}
);
unicode = 79;
},
{
glyphname = Oslash;
kernLeft = O;
lastChange = "2024-08-08 09:05:42 +0000";
layers = (
{
anchors = (
{
name = bottom;
pos = (300,0);
},
{
name = top;
pos = (300,800);
}
);
layerId = m002;
shapes = (
{
ref = O;
},
{
closed = 1;
nodes = (
(146,0,l),
(157,0,l),
(457,800,l),
(446,800,l)
);
}
);
width = 590;
},
{
anchors = (
{
name = bottom;
pos = (300,0);
},
{
name = top;
pos = (300,800);
}
);
layerId = m01;
shapes = (
{
ref = O;
},
{
closed = 1;
nodes = (
(75,0,l),
(149,0,l),
(449,800,l),
(375,800,l)
);
}
);
width = 530;
},
{
anchors = (
{
name = bottom;
pos = (300,0);
},
{
name = top;
pos = (300,800);
}
);
layerId = m003;
shapes = (
{
ref = O;
},
{
closed = 1;
nodes = (
(146,0,l),
(157,0,l),
(1070,800,l),
(1059,800,l)
);
}
);
width = 1180;
},
{
anchors = (
{
name = bottom;
pos = (320,0);
},
{
name = top;
pos = (320,800);
}
);
layerId = m004;
shapes = (
{
pos = (20,0);
ref = O;
},
{
closed = 1;
nodes = (
(50,0,l),
(167,0,l),
(1028,800,l),
(911,800,l)
);
}
);
width = 1080;
},
{
anchors = (
{
name = bottom;
pos = (300,0);
},
{
name = top;
pos = (300,800);
}
);
layerId = "C42BF1BA-B3BB-492C-A865-1DF6B235F68F";
shapes = (
{
alignment = -1;
ref = O;
},
{
closed = 1;
nodes = (
(33,0,l),
(133,0,l),
(727,800,l),
(627,800,l)
);
}
);
width = 784;
}
);
metricLeft = O;
metricRight = O;
unicode = 216;
},
{
color = 9;
glyphname = P;
kernLeft = H;
kernRight = V;
lastChange = "2024-08-09 20:01:23 +0000";
layers = (
{
anchors = (
{
name = bottom;
pos = (195,1);
},
{
name = top;
pos = (306,799);
}
);
layerId = m01;
shapes = (
{
closed = 1;
nodes = (
(232,435,l),
(190,435,l),
(222,664,l),
(265,664,l),
(283,799,l),
(96,799,l),
(-16,1,l),
(129,1,l),
(173,300,l),
(214,300,l)
);
},
{
closed = 1;
nodes = (
(214,300,l),
(381,300,o),
(475,389,o),
(500,572,cs),
(522,724,o),
(451,799,o),
(283,799,c),
(265,664,l),
(324,664,o),
(348,633,o),
(340,572,cs),
(327,480,o),
(292,435,o),
(232,435,c)
);
}
);
width = 500;
},
{
anchors = (
{
name = bottom;
pos = (194,1);
},
{
name = top;
pos = (306,799);
}
);
background = {
shapes = (
{
closed = 1;
nodes = (
(247,435,l),
(205,435,l),
(205,665,l),
(247,665,l),
(247,800,l),
(60,800,l),
(60,0,l),
(205,0,l),
(207,300,l),
(247,300,l)
);
},
{
closed = 1;
nodes = (
(247,300,l),
(414,300,o),
(495,389,o),
(495,572,cs),
(495,725,o),
(414,800,o),
(247,800,c),
(247,665,l),
(306,665,o),
(335,634,o),
(335,572,cs),
(335,480,o),
(306,435,o),
(247,435,c)
);
}
);
};
layerId = m002;
shapes = (
{
closed = 1;
nodes = (
(223,372,l),
(96,372,l),
(155,789,l),
(282,789,l),
(283,799,l),
(146,799,l),
(34,1,l),
(42,1,l),
(95,362,l),
(222,362,l)
);
},
{
closed = 1;
nodes = (
(222,362,l),
(368,362,o),
(450,431,o),
(470,572,cs),
(491,724,o),
(430,799,o),
(283,799,c),
(282,789,l),
(422,789,o),
(480,717,o),
(460,572,cs),
(441,438,o),
(364,372,o),
(223,372,c)
);
}
);
width = 500;
},
{
anchors = (
{
name = bottom;
pos = (445,1);
},
{
name = top;
pos = (557,799);
}
);
background = {
shapes = (
{
closed = 1;
nodes = (
(247,435,l),
(205,435,l),
(205,665,l),
(247,665,l),
(247,800,l),
(60,800,l),
(60,0,l),
(205,0,l),
(207,300,l),
(247,300,l)
);
},
{
closed = 1;
nodes = (
(247,300,l),
(414,300,o),
(495,389,o),
(495,572,cs),
(495,725,o),
(414,800,o),
(247,800,c),
(247,665,l),
(306,665,o),
(335,634,o),
(335,572,cs),
(335,480,o),
(306,435,o),
(247,435,c)
);
}
);
};
layerId = m003;
shapes = (
{
closed = 1;
nodes = (
(551,372,l),
(186,372,l),
(244,789,l),
(609,789,l),
(611,799,l),
(236,799,l),
(124,1,l),
(134,1,l),
(185,362,l),
(549,362,l)
);
},
{
closed = 1;
nodes = (
(549,362,l),
(756,362,o),
(898,443,o),
(916,572,cs),
(935,711,o),
(817,799,o),
(611,799,c),
(609,789,l),
(810,789,o),
(924,705,o),
(906,572,cs),
(888,449,o),
(751,372,o),
(551,372,c)
);
}
);
width = 1000;
},
{
anchors = (
{
name = bottom;
pos = (445,1);
},
{
name = top;
pos = (557,799);
}
);
layerId = m004;
shapes = (
{
closed = 1;
nodes = (
(567,485,l),
(382,485,l),
(394,565,l),
(578,565,l),
(611,799,l),
(136,799,l),
(24,1,l),
(315,1,l),
(354,250,l),
(534,250,l)
);
},
{
closed = 1;
nodes = (
(534,250,l),
(790,250,o),
(947,365,o),
(976,572,cs),
(997,718,o),
(867,799,o),
(611,799,c),
(578,565,l),
(627,565,o),
(652,551,o),
(649,526,cs),
(645,500,o),
(616,485,o),
(567,485,c)
);
}
);
width = 1000;
},
{
anchors = (
{
name = bottom;
pos = (309,1);
},
{
name = top;
pos = (421,799);
}
);
layerId = "C42BF1BA-B3BB-492C-A865-1DF6B235F68F";
shapes = (
{
closed = 1;
nodes = (
(407,421,l),
(212,421,l),
(251,699,l),
(446,699,l),
(460,799,l),
(144,799,l),
(32,1,l),
(151,1,l),
(199,321,l),
(393,321,l)
);
},
{
closed = 1;
nodes = (
(393,321,l),
(562,321,o),
(682,416,o),
(703,567,cs),
(723,709,o),
(629,799,o),
(460,799,c),
(446,699,l),
(541,699,o),
(594,648,o),
(582,567,cs),
(570,477,o),
(502,421,o),
(407,421,c)
);
}
);
width = 733;
}
);
metricLeft = N;
metricRight = O;
unicode = 80;
},
{
color = 9;
glyphname = Q;
kernLeft = O;
kernRight = O;
lastChange = "2024-08-09 20:01:23 +0000";
layers = (
{
anchors = (
{
name = bottom;
pos = (223,1);
},
{
name = top;
pos = (335,799);
}
);
layerId = m01;
shapes = (
{
closed = 1;
nodes = (
(383,-9,o),
(480,120,o),
(522,422,cs),
(561,695,o),
(498,813,o),
(336,813,cs),
(175,813,o),
(79,695,o),
(41,422,cs),
(-1,120,o),
(60,-9,o),
(220,-9,cs)
);
},
{
closed = 1;
nodes = (
(195,135,o),
(178,221,o),
(207,422,cs),
(231,594,o),
(270,668,o),
(315,668,cs),
(361,668,o),
(381,594,o),
(357,422,cs),
(329,221,o),
(287,135,o),
(241,135,cs)
);
},
{
closed = 1;
nodes = (
(425,-85,l),
(398,-85,o),
(294,-57,o),
(292,1,c),
(152,1,l),
(169,-143,o),
(273,-215,o),
(407,-215,c)
);
}
);
width = 530;
},
{
anchors = (
{
name = bottom;
pos = (249,1);
},
{
name = top;
pos = (361,799);
}
);
layerId = m002;
shapes = (
{
closed = 1;
nodes = (
(409,-9,o),
(508,132,o),
(549,422,cs),
(585,684,o),
(524,813,o),
(362,813,cs),
(202,813,o),
(104,684,o),
(68,422,cs),
(27,132,o),
(86,-9,o),
(247,-9,cs)
);
},
{
closed = 1;
nodes = (
(94,1,o),
(38,139,o),
(78,422,cs),
(113,677,o),
(206,803,o),
(361,803,cs),
(516,803,o),
(574,677,o),
(539,422,cs),
(499,139,o),
(403,1,o),
(248,1,cs)
);
},
{
closed = 1;
nodes = (
(361,-151,l),
(274,-151,o),
(239,-102,o),
(253,-3,c),
(243,-3,l),
(228,-109,o),
(267,-161,o),
(360,-161,c)
);
}
);
width = 590;
},
{
anchors = (
{
name = bottom;
pos = (544,1);
},
{
name = top;
pos = (656,799);
}
);
layerId = m003;
shapes = (
{
closed = 1;
nodes = (
(837,-9,o),
(1047,157,o),
(1084,422,cs),
(1118,662,o),
(952,813,o),
(656,813,cs),
(361,813,o),
(155,662,o),
(122,422,cs),
(85,157,o),
(246,-9,o),
(540,-9,cs)
);
},
{
closed = 1;
nodes = (
(254,1,o),
(95,163,o),
(132,422,cs),
(164,656,o),
(366,803,o),
(654,803,cs),
(945,803,o),
(1107,656,o),
(1074,422,cs),
(1038,163,o),
(832,1,o),
(542,1,cs)
);
},
{
closed = 1;
nodes = (
(789,-151,l),
(627,-151,o),
(533,-94,o),
(546,-3,c),
(536,-3,l),
(523,-100,o),
(619,-161,o),
(788,-161,c)
);
}
);
width = 1180;
},
{
anchors = (
{
name = bottom;
pos = (487,1);
},
{
name = top;
pos = (599,799);
}
);
layerId = m004;
shapes = (
{
closed = 1;
nodes = (
(795,-9,o),
(989,144,o),
(1027,422,cs),
(1063,673,o),
(910,813,o),
(599,813,cs),
(291,813,o),
(100,673,o),
(65,422,cs),
(26,144,o),
(176,-9,o),
(484,-9,cs)
);
},
{
closed = 1;
nodes = (
(423,235,o),
(379,302,o),
(396,422,cs),
(409,516,o),
(470,568,o),
(565,568,cs),
(663,568,o),
(710,516,o),
(697,422,cs),
(680,302,o),
(616,235,o),
(518,235,cs)
);
},
{
closed = 1;
nodes = (
(918,15,l),
(728,15,o),
(624,10,o),
(626,1,c),
(345,1,l),
(399,-138,o),
(591,-215,o),
(886,-215,c)
);
}
);
width = 1060;
},
{
anchors = (
{
name = bottom;
pos = (371,1);
},
{
name = top;
pos = (483,799);
}
);
layerId = "C42BF1BA-B3BB-492C-A865-1DF6B235F68F";
shapes = (
{
closed = 1;
nodes = (
(592,-9,o),
(754,157,o),
(791,422,cs),
(825,662,o),
(707,813,o),
(484,813,cs),
(263,813,o),
(103,662,o),
(70,422,cs),
(33,157,o),
(148,-9,o),
(369,-9,cs)
);
},
{
closed = 1;
nodes = (
(239,94,o),
(167,220,o),
(195,422,cs),
(220,600,o),
(326,713,o),
(470,713,cs),
(616,713,o),
(691,600,o),
(666,422,cs),
(638,220,o),
(529,94,o),
(383,94,cs)
);
},
{
closed = 1;
nodes = (
(615,-98,l),
(491,-98,o),
(417,-61,o),
(423,-1,c),
(316,-1,l),
(325,-123,o),
(435,-199,o),
(601,-199,c)
);
}
);
width = 830;
}
);
metricLeft = O;
metricRight = O;
unicode = 81;
},
{
color = 9;
glyphname = R;
kernLeft = H;
kernRight = C;
lastChange = "2024-08-09 20:01:23 +0000";
layers = (
{
anchors = (
{
name = bottom;
pos = (204,1);
},
{
name = top;
pos = (316,799);
}
);
layerId = m01;
shapes = (
{
closed = 1;
nodes = (
(232,435,l),
(190,435,l),
(222,664,l),
(265,664,l),
(283,799,l),
(96,799,l),
(-16,1,l),
(129,1,l),
(173,300,l),
(214,300,l)
);
},
{
closed = 1;
nodes = (
(214,300,l),
(381,300,o),
(475,389,o),
(500,572,cs),
(522,724,o),
(451,799,o),
(283,799,c),
(265,664,l),
(324,664,o),
(348,633,o),
(340,572,cs),
(327,480,o),
(292,435,o),
(232,435,c)
);
},
{
closed = 1;
nodes = (
(280,1,l),
(437,1,l),
(374,409,l),
(217,409,l)
);
}
);
width = 517;
},
{
anchors = (
{
name = bottom;
pos = (206,1);
},
{
name = top;
pos = (317,799);
}
);
background = {
shapes = (
{
closed = 1;
nodes = (
(267,435,l),
(225,435,l),
(225,665,l),
(267,665,l),
(267,800,l),
(80,800,l),
(80,0,l),
(225,0,l),
(227,300,l),
(267,300,l)
);
},
{
closed = 1;
nodes = (
(267,300,l),
(434,300,o),
(515,389,o),
(515,572,cs),
(515,725,o),
(434,800,o),
(267,800,c),
(267,665,l),
(326,665,o),
(355,634,o),
(355,572,cs),
(355,480,o),
(326,435,o),
(267,435,c)
);
},
{
closed = 1;
nodes = (
(375,0,l),
(532,0,l),
(412,409,l),
(255,409,l)
);
}
);
};
layerId = m002;
shapes = (
{
closed = 1;
nodes = (
(222,372,l),
(96,372,l),
(155,789,l),
(281,789,l),
(282,799,l),
(146,799,l),
(34,1,l),
(43,1,l),
(96,362,l),
(221,362,l)
);
},
{
closed = 1;
nodes = (
(221,362,l),
(388,362,o),
(469,425,o),
(490,572,cs),
(512,731,o),
(450,799,o),
(282,799,c),
(281,789,l),
(441,789,o),
(501,724,o),
(480,572,cs),
(460,432,o),
(383,372,o),
(222,372,c)
);
},
{
closed = 1;
nodes = (
(400,1,l),
(411,1,l),
(315,375,l),
(304,375,l)
);
}
);
width = 521;
},
{
anchors = (
{
name = bottom;
pos = (467,1);
},
{
name = top;
pos = (579,799);
}
);
background = {
shapes = (
{
closed = 1;
nodes = (
(267,435,l),
(225,435,l),
(225,665,l),
(267,665,l),
(267,800,l),
(80,800,l),
(80,0,l),
(225,0,l),
(227,300,l),
(267,300,l)
);
},
{
closed = 1;
nodes = (
(267,300,l),
(434,300,o),
(515,389,o),
(515,572,cs),
(515,725,o),
(434,800,o),
(267,800,c),
(267,665,l),
(326,665,o),
(355,634,o),
(355,572,cs),
(355,480,o),
(326,435,o),
(267,435,c)
);
},
{
closed = 1;
nodes = (
(375,0,l),
(532,0,l),
(412,409,l),
(255,409,l)
);
}
);
};
layerId = m003;
shapes = (
{
closed = 1;
nodes = (
(551,372,l),
(186,372,l),
(244,789,l),
(609,789,l),
(611,799,l),
(236,799,l),
(124,1,l),
(131,1,l),
(186,362,l),
(550,362,l)
);
},
{
closed = 1;
nodes = (
(550,362,l),
(781,362,o),
(938,443,o),
(956,572,cs),
(975,711,o),
(842,799,o),
(611,799,c),
(609,789,l),
(835,789,o),
(965,705,o),
(946,572,cs),
(929,449,o),
(776,372,o),
(551,372,c)
);
},
{
closed = 1;
nodes = (
(865,1,l),
(878,1,l),
(635,371,l),
(622,371,l)
);
}
);
width = 1042;
},
{
anchors = (
{
name = bottom;
pos = (463,1);
},
{
name = top;
pos = (575,799);
}
);
layerId = m004;
shapes = (
{
closed = 1;
nodes = (
(567,485,l),
(382,485,l),
(394,565,l),
(578,565,l),
(611,799,l),
(136,799,l),
(24,1,l),
(315,1,l),
(354,250,l),
(534,250,l)
);
},
{
closed = 1;
nodes = (
(534,250,l),
(790,250,o),
(947,365,o),
(976,572,cs),
(997,718,o),
(867,799,o),
(611,799,c),
(578,565,l),
(627,565,o),
(652,551,o),
(649,526,cs),
(645,500,o),
(616,485,o),
(567,485,c)
);
},
{
closed = 1;
nodes = (
(585,1,l),
(930,1,l),
(747,409,l),
(443,384,l)
);
}
);
width = 1034;
},
{
anchors = (
{
name = bottom;
pos = (324,1);
},
{
name = top;
pos = (436,799);
}
);
layerId = "C42BF1BA-B3BB-492C-A865-1DF6B235F68F";
shapes = (
{
closed = 1;
nodes = (
(396,421,l),
(211,421,l),
(250,700,l),
(435,700,l),
(449,799,l),
(144,799,l),
(32,1,l),
(150,1,l),
(198,321,l),
(382,321,l)
);
},
{
closed = 1;
nodes = (
(382,321,l),
(561,321,o),
(688,416,o),
(709,567,cs),
(729,709,o),
(628,799,o),
(449,799,c),
(435,700,l),
(541,700,o),
(600,648,o),
(588,567,cs),
(576,477,o),
(502,421,o),
(396,421,c)
);
},
{
closed = 1;
nodes = (
(504,1,l),
(642,1,l),
(484,391,l),
(356,385,l)
);
}
);
width = 752;
}
);
metricLeft = N;
metricRight = O;
unicode = 82;
},
{
color = 9;
glyphname = S;
kernLeft = O;
kernRight = C;
lastChange = "2024-08-09 20:01:23 +0000";
layers = (
{
anchors = (
{
name = bottom;
pos = (184,1);
},
{
name = top;
pos = (296,799);
}
);
layerId = m01;
shapes = (
{
closed = 1;
nodes = (
(322,-9,o),
(400,63,o),
(421,210,cs),
(451,425,o),
(194,469,o),
(211,589,cs),
(219,649,o),
(238,679,o),
(268,679,cs),
(309,679,o),
(324,643,o),
(313,569,c),
(467,569,l),
(490,733,o),
(434,814,o),
(297,814,cs),
(158,814,o),
(80,740,o),
(59,589,cs),
(29,374,o),
(286,330,o),
(269,210,cs),
(261,154,o),
(242,126,o),
(211,126,cs),
(167,126,o),
(151,161,o),
(161,230,c),
(10,230,l),
(-12,70,o),
(44,-9,o),
(182,-9,cs)
);
}
);
width = 480;
},
{
anchors = (
{
name = bottom;
pos = (174,1);
},
{
name = top;
pos = (286,799);
}
);
background = {
shapes = (
{
closed = 1;
nodes = (
(369,-10,o),
(437,62,o),
(437,210,cs),
(437,425,o),
(175,469,o),
(175,589,cs),
(175,650,o),
(189,680,o),
(219,680,cs),
(260,680,o),
(280,644,o),
(280,569,c),
(433,569,l),
(433,734,o),
(366,815,o),
(229,815,cs),
(91,815,o),
(23,741,o),
(23,589,cs),
(23,374,o),
(286,330,o),
(286,210,cs),
(286,153,o),
(271,125,o),
(240,125,cs),
(196,125,o),
(175,160,o),
(175,230,c),
(25,230,l),
(25,69,o),
(92,-10,o),
(230,-10,cs)
);
}
);
};
layerId = m002;
shapes = (
{
closed = 1;
nodes = (
(305,-9,o),
(379,57,o),
(398,191,cs),
(429,414,o),
(41,394,o),
(71,608,cs),
(90,740,o),
(160,804,o),
(285,804,cs),
(410,804,o),
(451,740,o),
(442,608,c),
(450,608,l),
(460,746,o),
(416,814,o),
(287,814,cs),
(154,814,o),
(81,746,o),
(61,608,cs),
(30,385,o),
(418,405,o),
(388,191,cs),
(370,63,o),
(300,1,o),
(174,1,cs),
(50,1,o),
(9,63,o),
(17,191,c),
(7,191,l),
(-2,57,o),
(42,-9,o),
(172,-9,cs)
);
}
);
width = 460;
},
{
anchors = (
{
name = bottom;
pos = (404,1);
},
{
name = top;
pos = (516,799);
}
);
background = {
shapes = (
{
closed = 1;
nodes = (
(369,-10,o),
(437,62,o),
(437,210,cs),
(437,425,o),
(175,469,o),
(175,589,cs),
(175,650,o),
(189,680,o),
(219,680,cs),
(260,680,o),
(280,644,o),
(280,569,c),
(433,569,l),
(433,734,o),
(366,815,o),
(229,815,cs),
(91,815,o),
(23,741,o),
(23,589,cs),
(23,374,o),
(286,330,o),
(286,210,cs),
(286,153,o),
(271,125,o),
(240,125,cs),
(196,125,o),
(175,160,o),
(175,230,c),
(25,230,l),
(25,69,o),
(92,-10,o),
(230,-10,cs)
);
}
);
};
layerId = m003;
shapes = (
{
closed = 1;
nodes = (
(645,-9,o),
(808,68,o),
(825,191,cs),
(871,514,o),
(60,298,o),
(104,608,cs),
(121,728,o),
(279,804,o),
(514,804,cs),
(727,804,o),
(861,728,o),
(862,608,c),
(872,608,l),
(872,735,o),
(734,814,o),
(516,814,cs),
(274,814,o),
(112,735,o),
(94,608,cs),
(49,285,o),
(859,502,o),
(815,191,cs),
(799,74,o),
(640,1,o),
(404,1,cs),
(190,1,o),
(55,74,o),
(53,191,c),
(43,191,l),
(44,68,o),
(183,-9,o),
(402,-9,cs)
);
}
);
width = 920;
},
{
anchors = (
{
name = bottom;
pos = (424,1);
},
{
name = top;
pos = (536,799);
}
);
layerId = m004;
shapes = (
{
closed = 1;
nodes = (
(689,-9,o),
(849,71,o),
(869,215,cs),
(913,530,o),
(379,469,o),
(396,589,cs),
(399,614,o),
(433,629,o),
(490,629,cs),
(568,629,o),
(606,590,o),
(597,519,c),
(903,519,l),
(940,708,o),
(808,814,o),
(536,814,cs),
(270,814,o),
(111,733,o),
(91,589,cs),
(47,274,o),
(583,335,o),
(566,215,cs),
(562,190,o),
(527,176,o),
(468,176,cs),
(384,176,o),
(343,213,o),
(353,280,c),
(52,280,l),
(16,95,o),
(148,-9,o),
(422,-9,cs)
);
}
);
width = 960;
},
{
anchors = (
{
name = bottom;
pos = (228,1);
},
{
name = top;
pos = (424,799);
}
);
layerId = "C42BF1BA-B3BB-492C-A865-1DF6B235F68F";
shapes = (
{
closed = 1;
nodes = (
(455,-9,o),
(583,72,o),
(602,201,cs),
(645,514,o),
(155,415,o),
(181,600,cs),
(191,670,o),
(257,714,o),
(370,714,cs),
(471,714,o),
(532,661,o),
(526,578,c),
(646,578,l),
(662,723,o),
(560,814,o),
(384,814,cs),
(197,814,o),
(79,731,o),
(61,600,cs),
(21,316,o),
(511,416,o),
(481,201,cs),
(472,134,o),
(395,91,o),
(282,91,cs),
(180,91,o),
(118,142,o),
(122,221,c),
(2,221,l),
(-13,80,o),
(90,-9,o),
(268,-9,cs)
);
}
);
width = 658;
}
);
unicode = 83;
},
{
color = 9;
glyphname = Germandbls;
lastChange = "2024-08-09 20:01:23 +0000";
layers = (
{
anchors = (
{
name = bottom;
pos = (199,1);
},
{
name = top;
pos = (318,849);
}
);
layerId = m002;
shapes = (
{
closed = 1;
nodes = (
(84,1,l),
(175,649,l),
(165,649,l),
(74,1,l)
);
},
{
closed = 1;
nodes = (
(170,639,l),
(171,649,l),
(135,649,l),
(134,639,l)
);
},
{
closed = 1;
nodes = (
(175,649,l),
(195,788,l),
(186,799,l),
(165,649,l)
);
},
{
closed = 1;
nodes = (
(307,-17,o),
(410,47,o),
(419,161,cs),
(434,366,o),
(273,292,o),
(292,430,c),
(281,430,l),
(261,285,o),
(423,358,o),
(409,161,cs),
(401,54,o),
(301,-7,o),
(212,1,c),
(210,-9,l)
);
},
{
closed = 1;
nodes = (
(292,430,l),
(316,601,o),
(418,492,o),
(446,689,cs),
(458,781,o),
(403,799,o),
(304,799,c),
(186,799,l),
(195,788,l),
(301,788,l),
(395,788,o),
(448,777,o),
(436,689,cs),
(409,499,o),
(306,608,o),
(281,430,c)
);
}
);
width = 506;
},
{
anchors = (
{
name = bottom;
pos = (245,1);
},
{
name = top;
pos = (357,799);
}
);
layerId = m01;
shapes = (
{
closed = 1;
nodes = (
(155,1,l),
(246,649,l),
(105,649,l),
(14,1,l)
);
},
{
closed = 1;
nodes = (
(222,520,l),
(241,649,l),
(75,649,l),
(57,520,l)
);
},
{
closed = 1;
nodes = (
(246,649,l),
(248,669,l),
(126,799,l),
(105,649,l)
);
},
{
closed = 1;
nodes = (
(395,-9,o),
(486,71,o),
(507,215,cs),
(529,376,o),
(417,324,o),
(426,390,c),
(285,390,l),
(272,297,o),
(381,319,o),
(366,215,cs),
(358,158,o),
(324,126,o),
(269,126,c),
(251,-9,l)
);
},
{
closed = 1;
nodes = (
(426,390,l),
(433,456,o),
(502,449,o),
(525,609,cs),
(542,731,o),
(467,799,o),
(317,799,c),
(126,799,l),
(248,669,l),
(299,669,l),
(359,669,o),
(390,648,o),
(384,609,cs),
(370,506,o),
(298,483,o),
(285,390,c)
);
}
);
width = 556;
},
{
anchors = (
{
name = bottom;
pos = (433,1);
},
{
name = top;
pos = (552,849);
}
);
layerId = m003;
shapes = (
{
closed = 1;
nodes = (
(194,1,l),
(285,649,l),
(275,649,l),
(184,1,l)
);
},
{
closed = 1;
nodes = (
(276,639,l),
(277,649,l),
(215,649,l),
(214,639,l)
);
},
{
closed = 1;
nodes = (
(285,649,l),
(305,789,l),
(296,799,l),
(275,649,l)
);
},
{
closed = 1;
nodes = (
(683,-18,o),
(835,55,o),
(853,181,cs),
(879,366,o),
(540,292,o),
(559,430,c),
(549,430,l),
(529,285,o),
(867,355,o),
(843,181,cs),
(826,60,o),
(678,-9,o),
(459,1,c),
(458,-9,l)
);
},
{
closed = 1;
nodes = (
(559,430,l),
(583,597,o),
(802,492,o),
(827,669,cs),
(839,749,o),
(762,799,o),
(630,799,c),
(296,799,l),
(305,789,l),
(629,789,l),
(755,789,o),
(828,743,o),
(817,669,cs),
(793,499,o),
(574,608,o),
(549,430,c)
);
}
);
width = 992;
},
{
anchors = (
{
name = bottom;
pos = (545,1);
},
{
name = top;
pos = (657,799);
}
);
layerId = m004;
shapes = (
{
closed = 1;
nodes = (
(365,1,l),
(456,649,l),
(175,649,l),
(84,1,l)
);
},
{
closed = 1;
nodes = (
(428,520,l),
(446,649,l),
(115,649,l),
(97,520,l)
);
},
{
closed = 1;
nodes = (
(456,649,l),
(459,669,l),
(196,799,l),
(175,649,l)
);
},
{
closed = 1;
nodes = (
(847,-9,o),
(1018,71,o),
(1039,215,cs),
(1061,376,o),
(843,324,o),
(853,390,c),
(572,390,l),
(559,297,o),
(773,319,o),
(758,215,cs),
(750,158,o),
(685,126,o),
(577,126,c),
(558,-9,l)
);
},
{
closed = 1;
nodes = (
(853,390,l),
(858,456,o),
(997,449,o),
(1020,609,cs),
(1037,731,o),
(879,799,o),
(577,799,c),
(196,799,l),
(459,669,l),
(559,669,l),
(680,669,o),
(745,648,o),
(739,609,cs),
(725,506,o),
(585,483,o),
(572,390,c)
);
}
);
width = 1112;
},
{
anchors = (
{
name = bottom;
pos = (295,1);
},
{
name = top;
pos = (411,825);
}
);
layerId = "C42BF1BA-B3BB-492C-A865-1DF6B235F68F";
shapes = (
{
closed = 1;
nodes = (
(153,1,l),
(244,649,l),
(123,649,l),
(32,1,l)
);
},
{
closed = 1;
nodes = (
(224,560,l),
(237,649,l),
(126,649,l),
(114,560,l)
);
},
{
closed = 1;
nodes = (
(244,649,l),
(251,699,l),
(144,799,l),
(123,649,l)
);
},
{
closed = 1;
nodes = (
(474,-14,o),
(615,66,o),
(633,196,cs),
(656,361,o),
(472,327,o),
(482,401,c),
(358,401,l),
(336,243,o),
(529,309,o),
(513,196,cs),
(503,127,o),
(414,86,o),
(283,91,c),
(269,-9,l)
);
},
{
closed = 1;
nodes = (
(482,401,l),
(491,475,o),
(614,447,o),
(637,611,cs),
(653,726,o),
(551,799,o),
(373,799,c),
(144,799,l),
(251,699,l),
(358,699,l),
(463,699,o),
(525,665,o),
(517,611,cs),
(501,499,o),
(380,559,o),
(358,401,c)
);
}
);
width = 692;
}
);
metricLeft = H;
metricRight = O;
unicode = 7838;
},
{
color = 9;
glyphname = T;
kernLeft = V;
kernRight = V;
lastChange = "2024-08-09 20:01:23 +0000";
layers = (
{
anchors = (
{
name = bottom;
pos = (162,1);
},
{
name = center;
pos = (218,400);
},
{
name = top;
pos = (274,799);
}
);
layerId = m01;
shapes = (
{
closed = 1;
nodes = (
(195,799,l),
(84,1,l),
(239,1,l),
(351,799,l)
);
},
{
closed = 1;
nodes = (
(46,659,l),
(186,659,l),
(206,799,l),
(65,799,l)
);
},
{
closed = 1;
nodes = (
(321,659,l),
(462,659,l),
(481,799,l),
(341,799,l)
);
}
);
width = 435;
},
{
anchors = (
{
name = bottom;
pos = (165,1);
},
{
name = center;
pos = (221,400);
},
{
name = top;
pos = (277,799);
}
);
background = {
shapes = (
{
closed = 1;
nodes = (
(143,800,l),
(143,0,l),
(298,0,l),
(298,800,l)
);
},
{
closed = 1;
nodes = (
(13,660,l),
(153,660,l),
(153,800,l),
(13,800,l)
);
},
{
closed = 1;
nodes = (
(288,660,l),
(428,660,l),
(428,800,l),
(288,800,l)
);
}
);
};
layerId = m002;
shapes = (
{
closed = 1;
nodes = (
(271,799,l),
(159,1,l),
(169,1,l),
(281,799,l)
);
},
{
closed = 1;
nodes = (
(87,789,l),
(269,789,l),
(271,799,l),
(88,799,l)
);
},
{
closed = 1;
nodes = (
(279,789,l),
(463,789,l),
(464,799,l),
(281,799,l)
);
}
);
width = 441;
},
{
anchors = (
{
name = bottom;
pos = (385,1);
},
{
name = center;
pos = (441,400);
},
{
name = top;
pos = (497,799);
}
);
background = {
shapes = (
{
closed = 1;
nodes = (
(143,800,l),
(143,0,l),
(298,0,l),
(298,800,l)
);
},
{
closed = 1;
nodes = (
(13,660,l),
(153,660,l),
(153,800,l),
(13,800,l)
);
},
{
closed = 1;
nodes = (
(288,660,l),
(428,660,l),
(428,800,l),
(288,800,l)
);
}
);
};
layerId = m003;
shapes = (
{
closed = 1;
nodes = (
(489,799,l),
(377,1,l),
(387,1,l),
(499,799,l)
);
},
{
closed = 1;
nodes = (
(119,789,l),
(489,789,l),
(490,799,l),
(120,799,l)
);
},
{
closed = 1;
nodes = (
(498,789,l),
(871,789,l),
(872,799,l),
(499,799,l)
);
}
);
width = 882;
},
{
anchors = (
{
name = bottom;
pos = (379,1);
},
{
name = center;
pos = (435,400);
},
{
name = top;
pos = (491,799);
}
);
layerId = m004;
shapes = (
{
closed = 1;
nodes = (
(335,799,l),
(223,1,l),
(534,1,l),
(646,799,l)
);
},
{
closed = 1;
nodes = (
(41,560,l),
(321,560,l),
(355,799,l),
(74,799,l)
);
},
{
closed = 1;
nodes = (
(592,560,l),
(873,560,l),
(906,799,l),
(626,799,l)
);
}
);
width = 870;
},
{
anchors = (
{
name = bottom;
pos = (238,1);
},
{
name = center;
pos = (293,400);
},
{
name = top;
pos = (349,799);
}
);
layerId = "C42BF1BA-B3BB-492C-A865-1DF6B235F68F";
shapes = (
{
closed = 1;
nodes = (
(288,799,l),
(176,1,l),
(297,1,l),
(409,799,l)
);
},
{
closed = 1;
nodes = (
(39,699,l),
(284,699,l),
(298,799,l),
(53,799,l)
);
},
{
closed = 1;
nodes = (
(386,699,l),
(631,699,l),
(645,799,l),
(400,799,l)
);
}
);
width = 586;
}
);
unicode = 84;
},
{
color = 9;
glyphname = U;
kernLeft = H;
kernRight = H;
lastChange = "2024-08-09 20:01:23 +0000";
layers = (
{
anchors = (
{
name = bottom;
pos = (202,1);
},
{
name = ogonek;
pos = (289,1);
},
{
name = top;
pos = (316,799);
},
{
name = topright;
pos = (537,799);
}
);
layerId = m01;
shapes = (
{
closed = 1;
nodes = (
(350,-9,o),
(435,74,o),
(459,242,c),
(303,242,l),
(293,171,o),
(266,136,o),
(222,136,cs),
(179,136,o),
(163,171,o),
(173,242,c),
(18,242,l),
(-6,74,o),
(55,-9,o),
(202,-9,cs)
);
},
{
closed = 1;
nodes = (
(173,242,l),
(251,799,l),
(96,799,l),
(18,242,l)
);
},
{
closed = 1;
nodes = (
(459,242,l),
(537,799,l),
(381,799,l),
(303,242,l)
);
}
);
width = 520;
},
{
anchors = (
{
name = bottom;
pos = (243,1);
},
{
name = ogonek;
pos = (283,1);
},
{
name = top;
pos = (358,799);
},
{
name = topright;
pos = (609,799);
}
);
background = {
shapes = (
{
closed = 1;
nodes = (
(447,-10,o),
(520,73,o),
(520,242,c),
(80,242,l),
(80,73,o),
(152,-10,o),
(299,-10,cs)
);
},
{
closed = 1;
nodes = (
(256,135,o),
(235,170,o),
(235,242,c),
(365,242,l),
(365,170,o),
(343,135,o),
(299,135,cs)
);
},
{
closed = 1;
nodes = (
(80,800,l),
(80,242,l),
(235,242,l),
(235,800,l)
);
},
{
closed = 1;
nodes = (
(365,800,l),
(365,242,l),
(520,242,l),
(520,800,l)
);
}
);
};
layerId = m002;
shapes = (
{
closed = 1;
nodes = (
(370,-9,o),
(475,74,o),
(499,242,c),
(489,242,l),
(466,80,o),
(366,1,o),
(243,1,cs),
(123,1,o),
(55,81,o),
(78,242,c),
(68,242,l),
(44,74,o),
(115,-9,o),
(242,-9,cs)
);
},
{
closed = 1;
nodes = (
(78,242,l),
(156,799,l),
(146,799,l),
(68,242,l)
);
},
{
closed = 1;
nodes = (
(499,242,l),
(577,799,l),
(567,799,l),
(489,242,l)
);
}
);
width = 610;
},
{
anchors = (
{
name = bottom;
pos = (542,1);
},
{
name = ogonek;
pos = (603,-1);
},
{
name = top;
pos = (666,799);
},
{
name = topright;
pos = (1157,799);
}
);
background = {
shapes = (
{
closed = 1;
nodes = (
(447,-10,o),
(520,73,o),
(520,242,c),
(80,242,l),
(80,73,o),
(152,-10,o),
(299,-10,cs)
);
},
{
closed = 1;
nodes = (
(256,135,o),
(235,170,o),
(235,242,c),
(365,242,l),
(365,170,o),
(343,135,o),
(299,135,cs)
);
},
{
closed = 1;
nodes = (
(80,800,l),
(80,242,l),
(235,242,l),
(235,800,l)
);
},
{
closed = 1;
nodes = (
(365,800,l),
(365,242,l),
(520,242,l),
(520,800,l)
);
}
);
};
layerId = m003;
shapes = (
{
closed = 1;
nodes = (
(813,-9,o),
(997,88,o),
(1019,242,c),
(1009,242,l),
(988,94,o),
(807,1,o),
(542,1,cs),
(290,1,o),
(146,94,o),
(167,242,c),
(157,242,l),
(135,88,o),
(283,-9,o),
(540,-9,cs)
);
},
{
closed = 1;
nodes = (
(167,242,l),
(245,799,l),
(235,799,l),
(157,242,l)
);
},
{
closed = 1;
nodes = (
(1019,242,l),
(1097,799,l),
(1087,799,l),
(1009,242,l)
);
}
);
width = 1220;
},
{
anchors = (
{
name = bottom;
pos = (464,1);
},
{
name = ogonek;
pos = (637,11);
},
{
name = top;
pos = (576,799);
},
{
name = topright;
pos = (1020,799);
}
);
layerId = m004;
shapes = (
{
closed = 1;
nodes = (
(745,-9,o),
(916,81,o),
(939,242,c),
(642,342,l),
(632,273,o),
(580,235,o),
(495,235,cs),
(412,235,o),
(372,273,o),
(381,342,c),
(57,242,l),
(34,81,o),
(178,-9,o),
(460,-9,cs)
);
},
{
closed = 1;
nodes = (
(381,342,l),
(445,799,l),
(135,799,l),
(57,242,l)
);
},
{
closed = 1;
nodes = (
(939,242,l),
(1017,799,l),
(706,799,l),
(642,342,l)
);
}
);
width = 1040;
},
{
anchors = (
{
name = bottom;
pos = (353,1);
},
{
name = ogonek;
pos = (442,3);
},
{
name = top;
pos = (470,799);
},
{
name = topright;
pos = (822,799);
}
);
layerId = "C42BF1BA-B3BB-492C-A865-1DF6B235F68F";
shapes = (
{
closed = 1;
nodes = (
(556,-13,o),
(700,102,o),
(726,284,c),
(606,284,l),
(588,163,o),
(496,87,o),
(365,87,cs),
(242,87,o),
(174,163,o),
(192,284,c),
(71,284,l),
(46,102,o),
(154,-13,o),
(351,-13,cs)
);
},
{
closed = 1;
nodes = (
(192,284,l),
(264,799,l),
(143,799,l),
(71,284,l)
);
},
{
closed = 1;
nodes = (
(726,284,l),
(798,799,l),
(678,799,l),
(606,284,l)
);
}
);
width = 829;
}
);
metricLeft = N;
metricRight = N;
unicode = 85;
},
{
color = 9;
glyphname = V;
kernLeft = V;
kernRight = V;
lastChange = "2024-08-09 20:01:23 +0000";
layers = (
{
anchors = (
{
name = bottom;
pos = (204,1);
},
{
name = top;
pos = (316,799);
}
);
layerId = m01;
shapes = (
{
closed = 1;
nodes = (
(207,799,l),
(55,799,l),
(113,1,l),
(294,1,l),
(576,799,l),
(424,799,l),
(233,212,l)
);
}
);
width = 520;
},
{
anchors = (
{
name = bottom;
pos = (195,1);
},
{
name = top;
pos = (306,799);
}
);
layerId = m002;
shapes = (
{
closed = 1;
nodes = (
(98,799,l),
(88,799,l),
(190,1,l),
(200,1,l),
(525,799,l),
(515,799,l),
(197,18,l)
);
}
);
width = 502;
},
{
anchors = (
{
name = bottom;
pos = (437,1);
},
{
name = top;
pos = (557,799);
}
);
layerId = m003;
shapes = (
{
closed = 1;
nodes = (
(132,799,l),
(120,799,l),
(435,1,l),
(439,1,l),
(985,799,l),
(974,799,l),
(439,18,l)
);
}
);
width = 1004;
},
{
anchors = (
{
name = bottom;
pos = (463,1);
},
{
name = top;
pos = (575,799);
}
);
layerId = m004;
shapes = (
{
closed = 1;
nodes = (
(379,799,l),
(54,799,l),
(283,1,l),
(644,1,l),
(1096,799,l),
(772,799,l),
(507,312,l)
);
}
);
width = 1040;
},
{
anchors = (
{
name = bottom;
pos = (297,1);
},
{
name = top;
pos = (409,799);
}
);
layerId = "C42BF1BA-B3BB-492C-A865-1DF6B235F68F";
shapes = (
{
closed = 1;
nodes = (
(180,799,l),
(51,799,l),
(229,1,l),
(366,1,l),
(767,799,l),
(638,799,l),
(318,149,l)
);
}
);
width = 707;
}
);
unicode = 86;
},
{
color = 9;
glyphname = W;
kernLeft = W;
kernRight = W;
lastChange = "2024-08-09 20:01:23 +0000";
layers = (
{
anchors = (
{
name = bottom;
pos = (294,1);
},
{
name = top;
pos = (406,799);
}
);
layerId = m01;
shapes = (
{
closed = 1;
nodes = (
(226,1,l),
(471,799,l),
(341,799,l),
(186,260,l),
(197,260,l),
(205,799,l),
(55,799,l),
(85,1,l)
);
},
{
closed = 1;
nodes = (
(512,1,l),
(757,799,l),
(606,799,l),
(472,260,l),
(484,260,l),
(470,799,l),
(340,799,l),
(372,1,l)
);
}
);
width = 700;
},
{
anchors = (
{
name = bottom;
pos = (328,1);
},
{
name = top;
pos = (440,799);
}
);
layerId = m002;
shapes = (
{
closed = 1;
nodes = (
(143,1,l),
(448,799,l),
(437,799,l),
(139,19,l),
(142,19,l),
(98,799,l),
(88,799,l),
(133,1,l)
);
},
{
closed = 1;
nodes = (
(520,1,l),
(790,799,l),
(780,799,l),
(517,19,l),
(520,19,l),
(448,799,l),
(437,799,l),
(510,1,l)
);
}
);
width = 767;
},
{
anchors = (
{
name = bottom;
pos = (711,1);
},
{
name = top;
pos = (823,799);
}
);
layerId = m003;
shapes = (
{
closed = 1;
nodes = (
(336,1,l),
(833,799,l),
(823,799,l),
(329,7,l),
(331,7,l),
(130,799,l),
(120,799,l),
(322,1,l)
);
},
{
closed = 1;
nodes = (
(1093,1,l),
(1525,799,l),
(1515,799,l),
(1085,5,l),
(1089,5,l),
(833,799,l),
(823,799,l),
(1079,1,l)
);
}
);
width = 1534;
},
{
anchors = (
{
name = bottom;
pos = (643,1);
},
{
name = top;
pos = (755,799);
}
);
layerId = m004;
shapes = (
{
closed = 1;
nodes = (
(507,1,l),
(886,799,l),
(625,799,l),
(405,360,l),
(427,360,l),
(374,799,l),
(54,799,l),
(226,1,l)
);
},
{
closed = 1;
nodes = (
(1080,1,l),
(1457,799,l),
(1136,799,l),
(978,360,l),
(1001,360,l),
(884,799,l),
(623,799,l),
(800,1,l)
);
}
);
width = 1400;
},
{
anchors = (
{
name = bottom;
pos = (473,1);
},
{
name = top;
pos = (584,799);
}
);
layerId = "C42BF1BA-B3BB-492C-A865-1DF6B235F68F";
shapes = (
{
closed = 1;
nodes = (
(283,1,l),
(647,799,l),
(525,799,l),
(242,168,l),
(260,168,l),
(185,799,l),
(57,799,l),
(161,1,l)
);
},
{
closed = 1;
nodes = (
(789,1,l),
(1111,799,l),
(983,799,l),
(744,168,l),
(755,168,l),
(647,799,l),
(524,799,l),
(667,1,l)
);
}
);
width = 1057;
}
);
unicode = 87;
},
{
color = 9;
glyphname = X;
kernLeft = X;
kernRight = X;
lastChange = "2024-08-09 20:01:23 +0000";
layers = (
{
anchors = (
{
name = bottom;
pos = (209,1);
},
{
name = top;
pos = (321,799);
}
);
background = {
shapes = (
{
closed = 1;
nodes = (
(153,800,l),
(1,800,l),
(184,370,l),
(339,370,l),
(521,800,l),
(369,800,l),
(261,542,l)
);
},
{
closed = 1;
nodes = (
(368,0,l),
(520,0,l),
(337,430,l),
(182,430,l),
(0,0,l),
(152,0,l),
(260,258,l)
);
}
);
};
layerId = m01;
shapes = (
{
closed = 1;
nodes = (
(475,1,l),
(219,799,l),
(56,799,l),
(312,1,l)
);
},
{
closed = 1;
nodes = (
(96,1,l),
(281,315,l),
(293,315,l),
(578,799,l),
(425,799,l),
(255,514,l),
(243,514,l),
(-57,1,l)
);
}
);
width = 530;
},
{
anchors = (
{
name = bottom;
pos = (203,1);
},
{
name = top;
pos = (315,799);
}
);
background = {
shapes = (
{
closed = 1;
nodes = (
(152,800,l),
(0,800,l),
(183,370,l),
(338,370,l),
(520,800,l),
(368,800,l),
(260,542,l)
);
},
{
closed = 1;
nodes = (
(367,0,l),
(519,0,l),
(336,430,l),
(181,430,l),
(-1,0,l),
(151,0,l),
(259,258,l)
);
}
);
};
layerId = m002;
shapes = (
{
closed = 1;
nodes = (
(427,1,l),
(103,799,l),
(92,799,l),
(416,1,l)
);
},
{
closed = 1;
nodes = (
(-10,1,l),
(259,397,l),
(261,397,l),
(530,799,l),
(518,799,l),
(258,410,l),
(256,410,l),
(-21,1,l)
);
}
);
width = 517;
},
{
anchors = (
{
name = bottom;
pos = (462,1);
},
{
name = top;
pos = (574,799);
}
);
background = {
shapes = (
{
closed = 1;
nodes = (
(152,800,l),
(0,800,l),
(183,370,l),
(338,370,l),
(520,800,l),
(368,800,l),
(260,542,l)
);
},
{
closed = 1;
nodes = (
(367,0,l),
(519,0,l),
(336,430,l),
(181,430,l),
(-1,0,l),
(151,0,l),
(259,258,l)
);
}
);
};
layerId = m003;
shapes = (
{
closed = 1;
nodes = (
(909,1,l),
(151,799,l),
(136,799,l),
(894,1,l)
);
},
{
closed = 1;
nodes = (
(35,1,l),
(519,404,l),
(523,404,l),
(995,799,l),
(981,799,l),
(515,410,l),
(511,410,l),
(21,1,l)
);
}
);
width = 1034;
},
{
anchors = (
{
name = bottom;
pos = (474,1);
},
{
name = top;
pos = (586,799);
}
);
background = {
shapes = (
{
closed = 1;
nodes = (
(153,800,l),
(1,800,l),
(184,370,l),
(339,370,l),
(521,800,l),
(369,800,l),
(261,542,l)
);
},
{
closed = 1;
nodes = (
(368,0,l),
(520,0,l),
(337,430,l),
(182,430,l),
(0,0,l),
(152,0,l),
(260,258,l)
);
}
);
};
layerId = m004;
shapes = (
{
closed = 1;
nodes = (
(1005,1,l),
(442,799,l),
(57,799,l),
(630,1,l)
);
},
{
closed = 1;
nodes = (
(308,1,l),
(574,315,l),
(598,315,l),
(1099,799,l),
(744,799,l),
(494,514,l),
(470,514,l),
(-57,1,l)
);
}
);
width = 1060;
},
{
anchors = (
{
name = bottom;
pos = (305,1);
},
{
name = top;
pos = (417,799);
}
);
layerId = "C42BF1BA-B3BB-492C-A865-1DF6B235F68F";
shapes = (
{
closed = 1;
nodes = (
(670,1,l),
(201,799,l),
(53,799,l),
(522,1,l)
);
},
{
closed = 1;
nodes = (
(92,1,l),
(380,353,l),
(390,353,l),
(769,799,l),
(619,799,l),
(345,464,l),
(335,464,l),
(-61,1,l)
);
}
);
width = 721;
}
);
unicode = 88;
},
{
color = 9;
glyphname = Y;
kernLeft = V;
kernRight = V;
lastChange = "2024-08-09 20:01:23 +0000";
layers = (
{
anchors = (
{
name = bottom;
pos = (204,1);
},
{
name = top;
pos = (316,799);
},
{
name = topleft;
pos = (75,799);
}
);
layerId = m01;
shapes = (
{
closed = 1;
nodes = (
(207,799,l),
(55,799,l),
(170,310,l),
(325,310,l),
(576,799,l),
(424,799,l),
(271,482,l)
);
},
{
closed = 1;
nodes = (
(170,310,l),
(126,1,l),
(282,1,l),
(325,310,l)
);
}
);
width = 520;
},
{
anchors = (
{
name = bottom;
pos = (186,1);
},
{
name = top;
pos = (297,799);
},
{
name = topleft;
pos = (75,799);
}
);
layerId = m002;
shapes = (
{
closed = 1;
nodes = (
(99,799,l),
(88,799,l),
(231,360,l),
(241,360,l),
(507,799,l),
(496,799,l),
(238,373,l)
);
},
{
closed = 1;
nodes = (
(231,360,l),
(181,1,l),
(191,1,l),
(241,360,l)
);
}
);
width = 484;
},
{
anchors = (
{
name = bottom;
pos = (427,1);
},
{
name = top;
pos = (539,799);
},
{
name = topleft;
pos = (94,799);
}
);
layerId = m003;
shapes = (
{
closed = 1;
nodes = (
(133,799,l),
(120,799,l),
(472,360,l),
(482,360,l),
(958,799,l),
(945,799,l),
(479,369,l)
);
},
{
closed = 1;
nodes = (
(472,360,l),
(422,1,l),
(432,1,l),
(482,360,l)
);
}
);
width = 968;
},
{
anchors = (
{
name = bottom;
pos = (463,1);
},
{
name = top;
pos = (575,799);
},
{
name = topleft;
pos = (94,799);
}
);
layerId = m004;
shapes = (
{
closed = 1;
nodes = (
(389,799,l),
(54,799,l),
(352,310,l),
(663,310,l),
(1096,799,l),
(762,799,l),
(538,532,l)
);
},
{
closed = 1;
nodes = (
(352,310,l),
(309,1,l),
(620,1,l),
(663,310,l)
);
}
);
width = 1040;
},
{
anchors = (
{
name = bottom;
pos = (283,1);
},
{
name = top;
pos = (395,799);
},
{
name = topleft;
pos = (48,799);
}
);
layerId = "C42BF1BA-B3BB-492C-A865-1DF6B235F68F";
shapes = (
{
closed = 1;
nodes = (
(188,799,l),
(44,799,l),
(270,336,l),
(391,336,l),
(746,799,l),
(603,799,l),
(347,455,l)
);
},
{
closed = 1;
nodes = (
(270,336,l),
(223,1,l),
(344,1,l),
(391,336,l)
);
}
);
width = 679;
}
);
unicode = 89;
},
{
color = 9;
glyphname = Z;
kernLeft = H;
kernRight = H;
lastChange = "2024-08-09 20:01:23 +0000";
layers = (
{
anchors = (
{
name = bottom;
pos = (164,1);
},
{
name = center;
pos = (220,400);
},
{
name = top;
pos = (276,799);
}
);
layerId = m01;
shapes = (
{
closed = 1;
nodes = (
(359,0,l),
(380,150,l),
(164,150,l),
(454,674,l),
(471,799,l),
(81,799,l),
(60,649,l),
(272,649,l),
(-14,125,l),
(-31,0,l)
);
}
);
width = 440;
},
{
anchors = (
{
name = bottom;
pos = (164,1);
},
{
name = center;
pos = (220,400);
},
{
name = top;
pos = (276,799);
}
);
background = {
shapes = (
{
closed = 1;
nodes = (
(415,-1,l),
(415,149,l),
(199,149,l),
(415,675,l),
(415,800,l),
(25,800,l),
(25,650,l),
(237,650,l),
(25,124,l),
(25,-1,l)
);
}
);
};
layerId = m002;
shapes = (
{
closed = 1;
nodes = (
(350,1,l),
(351,11,l),
(-7,11,l),
(461,794,l),
(461,799,l),
(90,799,l),
(89,789,l),
(447,789,l),
(-21,6,l),
(-21,1,l)
);
}
);
width = 440;
},
{
anchors = (
{
name = bottom;
pos = (384,1);
},
{
name = center;
pos = (440,400);
},
{
name = top;
pos = (496,799);
}
);
background = {
shapes = (
{
closed = 1;
nodes = (
(415,-1,l),
(415,149,l),
(199,149,l),
(415,675,l),
(415,800,l),
(25,800,l),
(25,650,l),
(237,650,l),
(25,124,l),
(25,-1,l)
);
}
);
};
layerId = m003;
shapes = (
{
closed = 1;
nodes = (
(755,1,l),
(756,11,l),
(41,11,l),
(857,794,l),
(858,799,l),
(125,799,l),
(124,789,l),
(839,789,l),
(22,6,l),
(21,1,l)
);
}
);
width = 880;
},
{
anchors = (
{
name = bottom;
pos = (384,1);
},
{
name = center;
pos = (440,400);
},
{
name = top;
pos = (496,799);
}
);
layerId = m004;
shapes = (
{
closed = 1;
nodes = (
(775,0,l),
(809,244,l),
(449,244,l),
(869,674,l),
(887,799,l),
(105,799,l),
(70,550,l),
(427,550,l),
(11,125,l),
(-7,0,l)
);
}
);
width = 880;
},
{
anchors = (
{
name = bottom;
pos = (245,1);
},
{
name = center;
pos = (301,400);
},
{
name = top;
pos = (357,799);
}
);
layerId = "C42BF1BA-B3BB-492C-A865-1DF6B235F68F";
shapes = (
{
closed = 1;
nodes = (
(531,1,l),
(545,100,l),
(126,100,l),
(633,727,l),
(643,799,l),
(71,799,l),
(57,699,l),
(474,699,l),
(-30,75,l),
(-41,1,l)
);
}
);
width = 601;
}
);
unicode = 90;
},
{
color = 9;
glyphname = Saltillo;
lastChange = "2024-08-09 20:01:23 +0000";
layers = (
{
layerId = m002;
shapes = (
{
closed = 1;
nodes = (
(79,558,l),
(118,850,l),
(108,850,l),
(69,558,l)
);
}
);
width = 187;
},
{
layerId = m01;
shapes = (
{
closed = 1;
nodes = (
(133,558,l),
(200,850,l),
(97,850,l),
(84,558,l)
);
}
);
width = 257;
},
{
layerId = m003;
shapes = (
{
closed = 1;
nodes = (
(58,508,l),
(96,800,l),
(86,800,l),
(48,508,l)
);
}
);
width = 144;
},
{
layerId = m004;
shapes = (
{
closed = 1;
nodes = (
(281,508,l),
(376,800,l),
(69,800,l),
(84,508,l)
);
}
);
width = 404;
},
{
layerId = "C42BF1BA-B3BB-492C-A865-1DF6B235F68F";
shapes = (
{
closed = 1;
nodes = (
(99,558,l),
(153,800,l),
(25,800,l),
(11,558,l)
);
}
);
width = 144;
}
);
unicode = 42891;
},
{
color = 9;
glyphname = a;
lastChange = "2024-08-09 20:01:23 +0000";
layers = (
{
anchors = (
{
name = bottom;
pos = (190,1);
},
{
name = ogonek;
pos = (380,11);
},
{
name = top;
pos = (298,649);
}
);
background = {
shapes = (
{
closed = 1;
nodes = (
(308,650,l),
(308,212,l),
(308,167,o),
(285,138,o),
(248,138,cs),
(211,138,o),
(188,167,o),
(188,212,cs),
(188,650,l),
(28,650,l),
(28,162,l),
(28,56,o),
(82,-10,o),
(168,-10,cs),
(248,-10,o),
(311,37,o),
(321,109,c),
(314,125,l),
(314,0,l),
(468,0,l),
(468,650,l)
);
}
);
};
layerId = m01;
shapes = (
{
closed = 1;
nodes = (
(190,-9,o),
(232,12,o),
(267,56,c),
(259,1,l),
(384,1,l),
(448,450,ls),
(468,590,o),
(410,659,o),
(274,659,cs),
(138,659,o),
(62,590,o),
(42,450,c),
(172,450,l),
(181,510,o),
(208,534,o),
(256,534,cs),
(293,534,o),
(306,510,o),
(298,450,cs),
(289,391,l),
(111,391,o),
(14,324,o),
(-5,187,cs),
(-23,56,o),
(24,-9,o),
(138,-9,cs)
);
},
{
closed = 1;
nodes = (
(145,114,o),
(129,137,o),
(136,187,cs),
(144,250,o),
(190,281,o),
(274,281,c),
(260,187,ls),
(252,137,o),
(229,114,o),
(187,114,cs)
);
}
);
width = 470;
},
{
anchors = (
{
name = bottom;
pos = (188,1);
},
{
name = ogonek;
pos = (375,11);
},
{
name = top;
pos = (278,649);
}
);
background = {
shapes = (
{
closed = 1;
nodes = (
(232,-10,o),
(271,11,o),
(299,55,c),
(299,0,l),
(424,0,l),
(425,450,ls),
(425,591,o),
(358,660,o),
(222,660,cs),
(86,660,o),
(20,591,o),
(20,450,c),
(150,450,l),
(150,510,o),
(174,540,o),
(222,540,cs),
(258,540,o),
(275,510,o),
(275,450,cs),
(275,391,l),
(97,391,o),
(10,324,o),
(10,187,cs),
(10,55,o),
(66,-10,o),
(180,-10,cs)
);
},
{
closed = 1;
nodes = (
(170,113,o),
(150,137,o),
(150,187,cs),
(150,250,o),
(191,281,o),
(275,281,c),
(274,187,ls),
(273,137,o),
(253,113,o),
(212,113,cs)
);
}
);
};
layerId = m002;
shapes = (
{
closed = 1;
nodes = (
(238,-9,o),
(303,18,o),
(328,66,c),
(319,1,l),
(329,1,l),
(397,480,ls),
(413,590,o),
(367,659,o),
(269,659,cs),
(179,659,o),
(102,590,o),
(91,480,c),
(101,480,l),
(111,583,o),
(184,649,o),
(267,649,cs),
(360,649,o),
(402,583,o),
(387,480,cs),
(368,346,l),
(178,346,o),
(47,273,o),
(31,157,cs),
(17,55,o),
(66,-9,o),
(159,-9,cs)
);
},
{
closed = 1;
nodes = (
(73,1,o),
(28,62,o),
(41,157,cs),
(57,267,o),
(182,336,o),
(367,336,c),
(334,108,ls),
(325,42,o),
(258,1,o),
(161,1,cs)
);
}
);
width = 465;
},
{
anchors = (
{
name = bottom;
pos = (366,1);
},
{
name = ogonek;
pos = (443,1);
},
{
name = top;
pos = (509,649);
}
);
background = {
shapes = (
{
closed = 1;
nodes = (
(232,-10,o),
(271,11,o),
(299,55,c),
(299,0,l),
(424,0,l),
(425,450,ls),
(425,591,o),
(358,660,o),
(222,660,cs),
(86,660,o),
(20,591,o),
(20,450,c),
(150,450,l),
(150,510,o),
(174,540,o),
(222,540,cs),
(258,540,o),
(275,510,o),
(275,450,cs),
(275,391,l),
(97,391,o),
(10,324,o),
(10,187,cs),
(10,55,o),
(66,-10,o),
(180,-10,cs)
);
},
{
closed = 1;
nodes = (
(170,113,o),
(150,137,o),
(150,187,cs),
(150,250,o),
(191,281,o),
(275,281,c),
(274,187,ls),
(273,137,o),
(253,113,o),
(212,113,cs)
);
}
);
};
layerId = m003;
shapes = (
{
closed = 1;
nodes = (
(553,-9,o),
(673,24,o),
(704,76,c),
(693,1,l),
(703,1,l),
(772,480,ls),
(788,590,o),
(677,659,o),
(485,659,cs),
(291,659,o),
(166,590,o),
(161,480,c),
(171,480,l),
(175,583,o),
(296,649,o),
(483,649,cs),
(670,649,o),
(777,583,o),
(762,480,cs),
(744,346,l),
(255,346,o),
(102,273,o),
(86,157,cs),
(71,55,o),
(190,-9,o),
(391,-9,cs)
);
},
{
closed = 1;
nodes = (
(197,1,o),
(82,62,o),
(96,157,cs),
(111,267,o),
(260,336,o),
(742,336,c),
(708,108,ls),
(699,42,o),
(577,1,o),
(393,1,cs)
);
}
);
width = 930;
},
{
anchors = (
{
name = bottom;
pos = (423,1);
},
{
name = ogonek;
pos = (787,11);
},
{
name = top;
pos = (500,649);
}
);
background = {
shapes = (
{
closed = 1;
nodes = (
(308,650,l),
(308,212,l),
(308,167,o),
(285,138,o),
(248,138,cs),
(211,138,o),
(188,167,o),
(188,212,cs),
(188,650,l),
(28,650,l),
(28,162,l),
(28,56,o),
(82,-10,o),
(168,-10,cs),
(248,-10,o),
(311,37,o),
(321,109,c),
(314,125,l),
(314,0,l),
(468,0,l),
(468,650,l)
);
}
);
};
layerId = m004;
shapes = (
{
closed = 1;
nodes = (
(417,-9,o),
(514,24,o),
(574,76,c),
(563,1,l),
(814,1,l),
(879,450,ls),
(897,578,o),
(751,659,o),
(501,659,cs),
(252,659,o),
(85,578,o),
(67,450,c),
(327,450,l),
(331,478,o),
(390,495,o),
(478,495,cs),
(543,495,o),
(582,478,o),
(578,450,cs),
(572,411,l),
(246,411,o),
(29,325,o),
(10,187,cs),
(-7,67,o),
(114,-9,o),
(323,-9,cs)
);
},
{
closed = 1;
nodes = (
(334,153,o),
(288,169,o),
(292,195,cs),
(296,229,o),
(396,251,o),
(550,251,c),
(545,217,ls),
(540,178,o),
(487,153,o),
(410,153,cs)
);
}
);
width = 940;
},
{
anchors = (
{
name = bottom;
pos = (239,1);
},
{
name = ogonek;
pos = (528,8);
},
{
name = top;
pos = (386,649);
}
);
layerId = "C42BF1BA-B3BB-492C-A865-1DF6B235F68F";
shapes = (
{
closed = 1;
nodes = (
(326,-9,o),
(407,20,o),
(450,65,c),
(441,1,l),
(545,1,l),
(612,466,ls),
(629,584,o),
(534,659,o),
(366,659,cs),
(205,659,o),
(95,584,o),
(82,466,c),
(202,466,l),
(208,524,o),
(265,559,o),
(352,559,cs),
(445,559,o),
(499,524,o),
(491,466,cs),
(480,387,l),
(219,397,o),
(43,321,o),
(25,191,cs),
(7,69,o),
(92,-9,o),
(242,-9,cs)
);
},
{
closed = 1;
nodes = (
(179,92,o),
(136,130,o),
(145,193,cs),
(156,267,o),
(279,307,o),
(468,297,c),
(450,182,ls),
(443,126,o),
(368,92,o),
(256,92,cs)
);
}
);
width = 658;
}
);
metricLeft = o;
metricRight = n;
unicode = 97;
},
{
color = 9;
glyphname = ae;
lastChange = "2024-08-09 20:01:23 +0000";
layers = (
{
anchors = (
{
name = bottom;
pos = (187,1);
},
{
name = ogonek;
pos = (349,11);
},
{
name = top;
pos = (427,649);
}
);
layerId = m002;
shapes = (
{
closed = 1;
nodes = (
(591,-9,o),
(683,42,o),
(707,146,c),
(697,146,l),
(675,49,o),
(588,1,o),
(521,1,cs),
(389,1,o),
(345,113,o),
(377,342,cs),
(406,548,o),
(480,649,o),
(602,649,cs),
(722,649,o),
(767,547,o),
(738,341,c),
(375,341,l),
(374,331,l),
(747,331,l),
(747,335,o),
(748,337,o),
(748,341,cs),
(778,554,o),
(731,659,o),
(603,659,cs),
(475,659,o),
(400,555,o),
(370,342,cs),
(337,107,o),
(379,-9,o),
(518,-9,cs)
);
},
{
closed = 1;
nodes = (
(238,-9,o),
(303,18,o),
(327,61,c),
(336,76,l),
(394,480,ls),
(409,590,o),
(367,659,o),
(279,659,cs),
(178,659,o),
(101,590,o),
(91,480,c),
(101,480,l),
(111,583,o),
(184,649,o),
(277,649,cs),
(359,649,o),
(401,583,o),
(387,480,cs),
(367,341,l),
(177,341,o),
(46,268,o),
(30,152,cs),
(16,50,o),
(66,-9,o),
(159,-9,cs)
);
},
{
closed = 1;
nodes = (
(73,1,o),
(27,62,o),
(41,157,cs),
(56,267,o),
(181,331,o),
(366,331,c),
(333,105,ls),
(324,39,o),
(257,1,o),
(160,1,cs)
);
}
);
width = 800;
},
{
anchors = (
{
name = bottom;
pos = (255,1);
},
{
name = ogonek;
pos = (299,11);
},
{
name = top;
pos = (408,649);
}
);
layerId = m01;
shapes = (
{
closed = 1;
nodes = (
(568,-9,o),
(647,59,o),
(684,196,c),
(537,196,l),
(524,148,o),
(501,125,o),
(463,125,cs),
(409,125,o),
(402,196,o),
(423,342,cs),
(440,468,o),
(466,529,o),
(520,529,cs),
(573,529,o),
(588,484,o),
(575,391,c),
(357,391,l),
(342,281,l),
(702,281,l),
(707,302,o),
(711,322,o),
(713,342,cs),
(739,555,o),
(682,659,o),
(538,659,cs),
(383,659,o),
(352,555,o),
(322,342,cs),
(289,107,o),
(289,-9,o),
(445,-9,cs)
);
},
{
closed = 1;
nodes = (
(190,-9,o),
(232,12,o),
(266,56,c),
(357,170,l),
(398,450,ls),
(418,590,o),
(410,659,o),
(274,659,cs),
(137,659,o),
(61,590,o),
(42,450,c),
(172,450,l),
(180,510,o),
(208,534,o),
(256,534,cs),
(292,534,o),
(306,510,o),
(297,450,cs),
(289,391,l),
(111,391,o),
(14,324,o),
(-5,187,cs),
(-23,56,o),
(24,-9,o),
(138,-9,cs)
);
},
{
closed = 1;
nodes = (
(145,114,o),
(128,137,o),
(135,187,cs),
(144,250,o),
(190,281,o),
(274,281,c),
(260,187,ls),
(252,137,o),
(228,114,o),
(187,114,cs)
);
}
);
width = 725;
},
{
anchors = (
{
name = bottom;
pos = (420,1);
},
{
name = ogonek;
pos = (742,11);
},
{
name = top;
pos = (810,649);
}
);
layerId = m003;
shapes = (
{
closed = 1;
nodes = (
(1266,-9,o),
(1403,51,o),
(1433,146,c),
(1423,146,l),
(1395,57,o),
(1264,1,o),
(1082,1,cs),
(843,1,o),
(712,132,o),
(741,342,cs),
(768,530,o),
(927,649,o),
(1152,649,cs),
(1379,649,o),
(1505,530,o),
(1478,341,c),
(737,341,l),
(736,331,l),
(1487,331,l),
(1487,335,o),
(1488,337,o),
(1488,341,cs),
(1515,536,o),
(1386,659,o),
(1154,659,cs),
(922,659,o),
(760,536,o),
(732,342,cs),
(702,126,o),
(835,-9,o),
(1076,-9,cs)
);
},
{
closed = 1;
nodes = (
(529,-9,o),
(655,22,o),
(692,72,c),
(705,87,l),
(762,480,ls),
(778,590,o),
(682,659,o),
(510,659,cs),
(301,659,o),
(166,590,o),
(160,480,c),
(170,480,l),
(175,583,o),
(305,649,o),
(509,649,cs),
(672,649,o),
(766,583,o),
(752,480,cs),
(732,341,l),
(250,341,o),
(101,269,o),
(85,155,cs),
(71,55,o),
(178,-9,o),
(364,-9,cs)
);
},
{
closed = 1;
nodes = (
(186,1,o),
(81,61,o),
(95,155,cs),
(110,263,o),
(255,331,o),
(731,331,c),
(697,105,ls),
(688,41,o),
(560,1,o),
(366,1,cs)
);
}
);
width = 1594;
},
{
anchors = (
{
name = bottom;
pos = (554,1);
},
{
name = ogonek;
pos = (642,11);
},
{
name = top;
pos = (770,649);
}
);
layerId = m004;
shapes = (
{
closed = 1;
nodes = (
(1151,-9,o),
(1322,82,o),
(1380,226,c),
(1095,226,l),
(1081,189,o),
(1029,165,o),
(960,165,cs),
(873,165,o),
(828,233,o),
(843,342,cs),
(856,433,o),
(919,490,o),
(1006,490,cs),
(1097,490,o),
(1149,452,o),
(1140,391,c),
(705,391,l),
(690,281,l),
(1400,281,l),
(1406,298,o),
(1411,321,o),
(1414,342,cs),
(1434,536,o),
(1285,659,o),
(1030,659,cs),
(819,659,o),
(670,536,o),
(642,342,cs),
(612,126,o),
(725,-9,o),
(936,-9,cs)
);
},
{
closed = 1;
nodes = (
(419,-9,o),
(514,16,o),
(567,36,c),
(727,101,l),
(778,450,ls),
(797,578,o),
(691,659,o),
(500,659,cs),
(252,659,o),
(83,570,o),
(63,430,c),
(324,430,l),
(329,470,o),
(389,495,o),
(477,495,cs),
(543,495,o),
(581,478,o),
(577,450,cs),
(569,391,l),
(242,391,o),
(27,312,o),
(9,187,cs),
(-8,67,o),
(113,-9,o),
(323,-9,cs)
);
},
{
closed = 1;
nodes = (
(333,153,o),
(288,174,o),
(293,207,cs),
(299,252,o),
(399,281,o),
(554,281,c),
(539,187,ls),
(535,166,o),
(485,153,o),
(409,153,cs)
);
}
);
width = 1440;
},
{
anchors = (
{
name = bottom;
pos = (341,1);
},
{
name = ogonek;
pos = (500,11);
},
{
name = top;
pos = (595,649);
}
);
background = {
shapes = (
{
closed = 1;
nodes = (
(373,-10,o),
(449,19,o),
(486,64,c),
(486,0,l),
(590,0,l),
(592,466,ls),
(592,585,o),
(487,660,o),
(319,660,cs),
(158,660,o),
(59,585,o),
(63,466,c),
(183,466,l),
(180,524,o),
(232,560,o),
(319,560,cs),
(412,560,o),
(471,524,o),
(471,466,cs),
(471,387,l),
(209,397,o),
(44,321,o),
(44,191,cs),
(44,68,o),
(139,-10,o),
(289,-10,cs)
);
},
{
closed = 1;
nodes = (
(212,91,o),
(164,130,o),
(164,193,cs),
(164,267,o),
(282,307,o),
(471,297,c),
(470,182,ls),
(470,126,o),
(400,91,o),
(289,91,cs)
);
},
{
closed = 1;
nodes = (
(934,-10,o),
(1040,62,o),
(1063,176,c),
(948,176,l),
(936,123,o),
(875,90,o),
(789,90,cs),
(664,90,o),
(585,187,o),
(585,342,cs),
(585,476,o),
(661,560,o),
(781,560,cs),
(895,560,o),
(967,491,o),
(967,380,c),
(532,380,l),
(532,290,l),
(1078,290,l),
(1080,296,o),
(1081,316,o),
(1081,341,cs),
(1078,537,o),
(962,660,o),
(781,660,cs),
(592,660,o),
(473,537,o),
(473,342,cs),
(473,126,o),
(595,-10,o),
(789,-10,cs)
);
}
);
};
layerId = "C42BF1BA-B3BB-492C-A865-1DF6B235F68F";
shapes = (
{
closed = 1;
nodes = (
(899,-9,o),
(1009,57,o),
(1045,175,c),
(928,176,l),
(913,121,o),
(851,91,o),
(757,91,cs),
(626,91,o),
(565,180,o),
(588,342,cs),
(607,482,o),
(688,559,o),
(815,559,cs),
(937,559,o),
(996,496,o),
(980,380,c),
(540,380,l),
(527,291,l),
(1077,291,l),
(1080,302,o),
(1084,319,o),
(1087,341,cs),
(1112,545,o),
(1019,659,o),
(826,659,cs),
(645,659,o),
(529,545,o),
(500,342,cs),
(469,117,o),
(553,-9,o),
(738,-9,cs)
);
},
{
closed = 1;
nodes = (
(360,-9,o),
(465,26,o),
(514,81,cs),
(557,129,l),
(606,466,ls),
(624,584,o),
(537,659,o),
(380,659,cs),
(210,659,o),
(94,584,o),
(82,466,c),
(202,466,l),
(208,524,o),
(271,559,o),
(366,559,cs),
(450,559,o),
(497,524,o),
(490,466,c),
(480,387,l),
(217,387,o),
(41,315,o),
(25,200,cs),
(7,72,o),
(90,-9,o),
(241,-9,cs)
);
},
{
closed = 1;
nodes = (
(182,92,o),
(136,130,o),
(146,200,cs),
(154,262,o),
(270,297,o),
(467,297,c),
(451,192,ls),
(442,127,o),
(379,92,o),
(274,92,cs)
);
}
);
width = 1127;
}
);
metricLeft = a;
metricRight = e;
unicode = 230;
},
{
color = 9;
glyphname = b;
lastChange = "2024-08-09 20:01:23 +0000";
layers = (
{
anchors = (
{
name = bottom;
pos = (197,1);
},
{
name = center;
pos = (164,679);
},
{
name = top;
pos = (287,649);
}
);
layerId = m01;
shapes = (
{
closed = 1;
nodes = (
(100,849,l),
(-19,1,l),
(131,1,l),
(250,849,l)
);
},
{
closed = 1;
nodes = (
(378,-9,o),
(452,107,o),
(485,342,cs),
(515,556,o),
(471,659,o),
(353,659,cs),
(226,659,o),
(154,556,o),
(124,342,cs),
(91,107,o),
(132,-9,o),
(259,-9,cs)
);
},
{
closed = 1;
nodes = (
(188,116,o),
(168,191,o),
(189,342,cs),
(206,465,o),
(245,525,o),
(285,525,cs),
(325,525,o),
(347,465,o),
(330,342,cs),
(308,191,o),
(268,116,o),
(228,116,cs)
);
}
);
width = 510;
},
{
anchors = (
{
name = bottom;
pos = (212,1);
},
{
name = center;
pos = (172,679);
},
{
name = top;
pos = (303,649);
}
);
background = {
shapes = (
{
closed = 1;
nodes = (
(80,850,l),
(80,0,l),
(230,0,l),
(230,850,l)
);
},
{
closed = 1;
nodes = (
(477,-10,o),
(535,106,o),
(535,342,cs),
(535,556,o),
(477,660,o),
(359,660,cs),
(232,660,o),
(175,556,o),
(175,342,cs),
(175,106,o),
(232,-10,o),
(359,-10,cs)
);
},
{
closed = 1;
nodes = (
(270,115,o),
(240,190,o),
(240,342,cs),
(240,465,o),
(270,525,o),
(310,525,cs),
(350,525,o),
(380,465,o),
(380,342,cs),
(380,190,o),
(350,115,o),
(310,115,cs)
);
}
);
};
layerId = m002;
shapes = (
{
closed = 1;
nodes = (
(150,849,l),
(31,1,l),
(41,1,l),
(160,849,l)
);
},
{
closed = 1;
nodes = (
(367,-9,o),
(442,107,o),
(475,342,cs),
(505,556,o),
(460,659,o),
(339,659,cs),
(195,659,o),
(109,556,o),
(79,342,cs),
(46,107,o),
(101,-9,o),
(245,-9,cs)
);
},
{
closed = 1;
nodes = (
(109,1,o),
(57,113,o),
(89,342,cs),
(118,549,o),
(199,649,o),
(338,649,cs),
(452,649,o),
(494,549,o),
(465,342,cs),
(433,113,o),
(361,1,o),
(247,1,cs)
);
}
);
width = 540;
},
{
anchors = (
{
name = bottom;
pos = (483,1);
},
{
name = center;
pos = (307,679);
},
{
name = top;
pos = (574,649);
}
);
background = {
shapes = (
{
closed = 1;
nodes = (
(80,850,l),
(80,0,l),
(230,0,l),
(230,850,l)
);
},
{
closed = 1;
nodes = (
(477,-10,o),
(535,106,o),
(535,342,cs),
(535,556,o),
(477,660,o),
(359,660,cs),
(232,660,o),
(175,556,o),
(175,342,cs),
(175,106,o),
(232,-10,o),
(359,-10,cs)
);
},
{
closed = 1;
nodes = (
(270,115,o),
(240,190,o),
(240,342,cs),
(240,465,o),
(270,525,o),
(310,525,cs),
(350,525,o),
(380,465,o),
(380,342,cs),
(380,190,o),
(350,115,o),
(310,115,cs)
);
}
);
};
layerId = m003;
shapes = (
{
closed = 1;
nodes = (
(241,849,l),
(122,1,l),
(132,1,l),
(251,849,l)
);
},
{
closed = 1;
nodes = (
(750,-9,o),
(931,127,o),
(962,342,cs),
(989,537,o),
(844,659,o),
(585,659,cs),
(357,659,o),
(197,537,o),
(170,342,cs),
(139,127,o),
(264,-9,o),
(491,-9,cs)
);
},
{
closed = 1;
nodes = (
(271,1,o),
(150,133,o),
(180,342,cs),
(206,531,o),
(362,649,o),
(584,649,cs),
(836,649,o),
(978,531,o),
(952,342,cs),
(922,133,o),
(745,1,o),
(493,1,cs)
);
}
);
width = 1080;
},
{
anchors = (
{
name = bottom;
pos = (452,1);
},
{
name = center;
pos = (293,679);
},
{
name = top;
pos = (543,649);
}
);
layerId = m004;
shapes = (
{
closed = 1;
nodes = (
(140,849,l),
(21,1,l),
(322,1,l),
(441,849,l)
);
},
{
closed = 1;
nodes = (
(796,-9,o),
(951,127,o),
(981,342,cs),
(1009,537,o),
(889,659,o),
(673,659,cs),
(452,659,o),
(297,537,o),
(270,342,cs),
(239,127,o),
(359,-9,o),
(579,-9,cs)
);
},
{
closed = 1;
nodes = (
(426,215,o),
(378,260,o),
(388,332,cs),
(397,395,o),
(457,434,o),
(543,434,cs),
(629,434,o),
(678,395,o),
(669,332,cs),
(659,260,o),
(599,215,o),
(512,215,cs)
);
}
);
width = 1020;
},
{
anchors = (
{
name = bottom;
pos = (303,1);
},
{
name = center;
pos = (202,679);
},
{
name = top;
pos = (394,649);
}
);
layerId = "C42BF1BA-B3BB-492C-A865-1DF6B235F68F";
shapes = (
{
closed = 1;
nodes = (
(126,849,l),
(7,1,l),
(128,1,l),
(247,849,l)
);
},
{
closed = 1;
nodes = (
(525,-9,o),
(663,127,o),
(693,342,cs),
(720,537,o),
(619,659,o),
(431,659,cs),
(252,659,o),
(123,537,o),
(95,342,cs),
(65,127,o),
(158,-9,o),
(338,-9,cs)
);
},
{
closed = 1;
nodes = (
(221,91,o),
(154,187,o),
(175,340,cs),
(194,475,o),
(287,560,o),
(417,560,cs),
(532,560,o),
(591,475,o),
(572,340,cs),
(551,187,o),
(466,91,o),
(352,91,cs)
);
}
);
width = 746;
}
);
metricLeft = n;
metricRight = o;
unicode = 98;
},
{
color = 9;
glyphname = c;
lastChange = "2024-08-09 20:01:23 +0000";
layers = (
{
anchors = (
{
name = bottom;
pos = (185,1);
},
{
name = top;
pos = (275,649);
}
);
layerId = m01;
shapes = (
{
closed = 1;
nodes = (
(457,410,l),
(481,577,o),
(424,659,o),
(284,659,cs),
(134,659,o),
(47,555,o),
(17,344,cs),
(-16,107,o),
(41,-9,o),
(190,-9,cs),
(328,-9,o),
(406,67,o),
(428,220,c),
(274,220,l),
(265,156,o),
(244,125,o),
(209,125,cs),
(167,125,o),
(157,196,o),
(177,342,cs),
(194,465,o),
(223,525,o),
(265,525,cs),
(304,525,o),
(318,487,o),
(307,410,c)
);
}
);
width = 460;
},
{
anchors = (
{
name = bottom;
pos = (194,1);
},
{
name = top;
pos = (284,649);
}
);
background = {
shapes = (
{
closed = 1;
nodes = (
(530,410,l),
(530,578,o),
(462,660,o),
(322,660,cs),
(173,660,o),
(100,556,o),
(100,344,cs),
(100,106,o),
(173,-10,o),
(322,-10,cs),
(460,-10,o),
(527,66,o),
(527,220,c),
(374,220,l),
(374,156,o),
(357,125,o),
(322,125,cs),
(280,125,o),
(260,196,o),
(260,342,cs),
(260,465,o),
(280,525,o),
(322,525,cs),
(361,525,o),
(380,487,o),
(380,410,c)
);
}
);
};
layerId = m002;
shapes = (
{
closed = 1;
nodes = (
(442,460,l),
(453,593,o),
(392,659,o),
(294,659,cs),
(165,659,o),
(87,555,o),
(57,344,cs),
(24,107,o),
(71,-9,o),
(200,-9,cs),
(286,-9,o),
(373,50,o),
(398,170,c),
(388,170,l),
(364,57,o),
(281,1,o),
(202,1,cs),
(79,1,o),
(35,113,o),
(67,342,cs),
(96,548,o),
(170,649,o),
(292,649,cs),
(385,649,o),
(442,587,o),
(432,460,c)
);
}
);
width = 478;
},
{
anchors = (
{
name = bottom;
pos = (432,1);
},
{
name = top;
pos = (523,649);
}
);
background = {
shapes = (
{
closed = 1;
nodes = (
(530,410,l),
(530,578,o),
(462,660,o),
(322,660,cs),
(173,660,o),
(100,556,o),
(100,344,cs),
(100,106,o),
(173,-10,o),
(322,-10,cs),
(460,-10,o),
(527,66,o),
(527,220,c),
(374,220,l),
(374,156,o),
(357,125,o),
(322,125,cs),
(280,125,o),
(260,196,o),
(260,342,cs),
(260,465,o),
(280,525,o),
(322,525,cs),
(361,525,o),
(380,487,o),
(380,410,c)
);
}
);
};
layerId = m003;
shapes = (
{
closed = 1;
nodes = (
(866,460,l),
(868,582,o),
(742,659,o),
(541,659,cs),
(304,659,o),
(139,537,o),
(112,344,cs),
(81,127,o),
(211,-9,o),
(447,-9,cs),
(644,-9,o),
(787,60,o),
(817,170,c),
(807,170,l),
(778,67,o),
(639,1,o),
(449,1,cs),
(218,1,o),
(92,132,o),
(121,342,cs),
(148,531,o),
(309,649,o),
(539,649,cs),
(735,649,o),
(857,576,o),
(856,460,c)
);
}
);
width = 956;
},
{
anchors = (
{
name = bottom;
pos = (429,1);
},
{
name = top;
pos = (519,649);
}
);
layerId = m004;
shapes = (
{
closed = 1;
nodes = (
(896,360,l),
(922,543,o),
(777,659,o),
(521,659,cs),
(247,659,o),
(59,537,o),
(32,344,cs),
(1,127,o),
(153,-9,o),
(427,-9,cs),
(684,-9,o),
(859,99,o),
(883,270,c),
(583,270,l),
(579,242,o),
(531,225,o),
(460,225,cs),
(384,225,o),
(341,266,o),
(351,331,cs),
(359,389,o),
(412,425,o),
(488,425,cs),
(559,425,o),
(601,400,o),
(595,360,c)
);
}
);
width = 920;
},
{
anchors = (
{
name = bottom;
pos = (308,1);
},
{
name = top;
pos = (398,649);
}
);
layerId = "C42BF1BA-B3BB-492C-A865-1DF6B235F68F";
shapes = (
{
closed = 1;
nodes = (
(655,424,l),
(669,568,o),
(571,659,o),
(400,659,cs),
(209,659,o),
(73,537,o),
(46,344,cs),
(16,127,o),
(116,-9,o),
(306,-9,cs),
(475,-9,o),
(595,74,o),
(620,206,c),
(500,206,l),
(485,135,o),
(415,91,o),
(320,91,cs),
(204,91,o),
(144,186,o),
(165,339,cs),
(184,475,o),
(270,559,o),
(386,559,cs),
(483,559,o),
(541,508,o),
(534,424,c)
);
}
);
width = 684;
}
);
metricLeft = o;
metricRight = o;
unicode = 99;
},
{
color = 9;
glyphname = d;
lastChange = "2024-08-09 20:01:23 +0000";
layers = (
{
anchors = (
{
name = bottom;
pos = (196,1);
},
{
name = center;
pos = (419,679);
},
{
name = top;
pos = (287,649);
},
{
name = topright;
pos = (510,849);
}
);
layerId = m01;
shapes = (
{
closed = 1;
nodes = (
(261,1,l),
(411,1,l),
(530,849,l),
(380,849,l)
);
},
{
closed = 1;
nodes = (
(258,-9,o),
(331,107,o),
(364,342,cs),
(394,556,o),
(351,659,o),
(224,659,cs),
(106,659,o),
(33,556,o),
(3,342,cs),
(-30,107,o),
(12,-9,o),
(130,-9,cs)
);
},
{
closed = 1;
nodes = (
(158,126,o),
(138,197,o),
(159,342,cs),
(176,465,o),
(214,525,o),
(254,525,cs),
(294,525,o),
(316,465,o),
(299,342,cs),
(278,197,o),
(238,126,o),
(198,126,cs)
);
}
);
width = 510;
},
{
anchors = (
{
name = bottom;
pos = (211,1);
},
{
name = center;
pos = (441,679);
},
{
name = top;
pos = (302,649);
},
{
name = topright;
pos = (520,849);
}
);
layerId = m002;
shapes = (
{
closed = 1;
nodes = (
(381,1,l),
(391,1,l),
(510,849,l),
(500,849,l)
);
},
{
closed = 1;
nodes = (
(319,-9,o),
(406,107,o),
(439,342,cs),
(469,556,o),
(412,659,o),
(268,659,cs),
(147,659,o),
(73,556,o),
(43,342,cs),
(10,107,o),
(53,-9,o),
(174,-9,cs)
);
},
{
closed = 1;
nodes = (
(62,1,o),
(21,113,o),
(53,342,cs),
(82,549,o),
(152,649,o),
(267,649,cs),
(405,649,o),
(458,549,o),
(429,342,cs),
(397,113,o),
(314,1,o),
(176,1,cs)
);
}
);
width = 540;
},
{
anchors = (
{
name = bottom;
pos = (480,1);
},
{
name = center;
pos = (846,679);
},
{
name = top;
pos = (571,649);
},
{
name = topright;
pos = (980,849);
}
);
layerId = m003;
shapes = (
{
closed = 1;
nodes = (
(831,1,l),
(841,1,l),
(960,849,l),
(950,849,l)
);
},
{
closed = 1;
nodes = (
(693,-9,o),
(859,127,o),
(889,342,cs),
(916,537,o),
(786,659,o),
(553,659,cs),
(300,659,o),
(124,537,o),
(97,342,cs),
(67,127,o),
(206,-9,o),
(459,-9,cs)
);
},
{
closed = 1;
nodes = (
(214,1,o),
(78,133,o),
(107,342,cs),
(134,531,o),
(305,649,o),
(551,649,cs),
(779,649,o),
(906,531,o),
(879,342,cs),
(850,133,o),
(688,1,o),
(460,1,cs)
);
}
);
width = 1080;
},
{
anchors = (
{
name = bottom;
pos = (321,-9);
},
{
name = center;
pos = (830,679);
},
{
name = top;
pos = (415,659);
},
{
name = topright;
pos = (825,849);
}
);
layerId = m004;
shapes = (
{
closed = 1;
nodes = (
(581,1,l),
(882,1,l),
(1000,849,l),
(700,849,l)
);
},
{
closed = 1;
nodes = (
(541,-9,o),
(699,127,o),
(729,342,cs),
(756,537,o),
(635,659,o),
(415,659,cs),
(198,659,o),
(44,537,o),
(17,342,cs),
(-13,127,o),
(104,-9,o),
(321,-9,cs)
);
},
{
closed = 1;
nodes = (
(366,226,o),
(317,266,o),
(327,332,cs),
(335,389,o),
(394,425,o),
(480,425,cs),
(566,425,o),
(615,389,o),
(607,332,cs),
(598,266,o),
(538,226,o),
(452,226,cs)
);
}
);
width = 1020;
},
{
anchors = (
{
name = bottom;
pos = (294,-1);
},
{
name = center;
pos = (624,679);
},
{
name = top;
pos = (386,651);
},
{
name = topright;
pos = (701,849);
}
);
layerId = "C42BF1BA-B3BB-492C-A865-1DF6B235F68F";
shapes = (
{
closed = 1;
nodes = (
(501,1,l),
(621,1,l),
(740,849,l),
(620,849,l)
);
},
{
closed = 1;
nodes = (
(445,-9,o),
(568,127,o),
(598,342,cs),
(625,537,o),
(538,659,o),
(372,659,cs),
(190,659,o),
(59,537,o),
(32,342,cs),
(1,127,o),
(97,-9,o),
(278,-9,cs)
);
},
{
closed = 1;
nodes = (
(183,84,o),
(129,183,o),
(151,340,cs),
(170,479,o),
(251,567,o),
(359,567,cs),
(495,567,o),
(568,479,o),
(549,340,cs),
(527,183,o),
(427,84,o),
(291,84,cs)
);
}
);
width = 746;
}
);
metricLeft = o;
metricRight = n;
unicode = 100;
},
{
color = 9;
glyphname = eth;
lastChange = "2024-08-05 10:19:43 +0000";
layers = (
{
anchors = (
{
name = bottom;
pos = (334,0);
},
{
name = top;
pos = (334,850);
}
);
layerId = m002;
shapes = (
{
closed = 1;
nodes = (
(418,475,o),
(354,513,o),
(262,513,c),
(123,513,o),
(55,436,o),
(55,280,cs),
(55,85,o),
(123,-10,o),
(262,-10,cs),
(400,-10,o),
(467,85,o),
(467,280,c),
(457,280,l),
(457,92,o),
(393,0,o),
(262,0,cs),
(130,0,o),
(65,92,o),
(65,280,cs),
(65,429,o),
(130,502,o),
(262,502,cs),
(357,502,o),
(421,461,o),
(456,377,c),
(456,396,l)
);
},
{
closed = 1;
nodes = (
(467,600,o),
(360,776,o),
(141,817,c),
(138,808,l),
(350,769,o),
(455,595,o),
(457,280,c),
(509,280,o),
(415,280,o),
(467,280,cs)
);
},
{
angle = 30;
pos = (415,277);
ref = hyphen;
}
);
width = 557;
},
{
anchors = (
{
name = bottom;
pos = (276,0);
},
{
name = top;
pos = (276,850);
}
);
layerId = m01;
shapes = (
{
closed = 1;
nodes = (
(307,518,o),
(275,533,o),
(242,533,c),
(90,533,o),
(15,450,o),
(15,280,cs),
(15,85,o),
(83,-10,o),
(222,-10,cs),
(359,-10,o),
(427,85,o),
(427,280,c),
(278,280,l),
(278,159,o),
(273,100,o),
(222,100,cs),
(170,100,o),
(164,159,o),
(164,280,cs),
(164,376,o),
(176,423,o),
(242,423,cs),
(281,423,o),
(313,409,o),
(340,381,c),
(338,487,l)
);
},
{
closed = 1;
nodes = (
(427,600,o),
(320,776,o),
(101,817,c),
(83,711,l),
(225,677,o),
(276,535,o),
(278,280,c),
(330,280,o),
(375,280,o),
(427,280,cs)
);
},
{
angle = 30;
pos = (209,458);
ref = hyphen;
scale = (1,0.3813);
}
);
width = 467;
},
{
anchors = (
{
name = bottom;
pos = (334,0);
},
{
name = top;
pos = (334,850);
}
);
layerId = m003;
shapes = (
{
closed = 1;
nodes = (
(418,475,o),
(354,513,o),
(262,513,c),
(123,513,o),
(55,436,o),
(55,280,cs),
(55,85,o),
(123,-10,o),
(262,-10,cs),
(400,-10,o),
(467,85,o),
(467,280,c),
(457,280,l),
(457,92,o),
(393,0,o),
(262,0,cs),
(130,0,o),
(65,92,o),
(65,280,cs),
(65,429,o),
(130,502,o),
(262,502,cs),
(357,502,o),
(421,461,o),
(456,377,c),
(456,396,l)
);
},
{
closed = 1;
nodes = (
(467,600,o),
(360,776,o),
(141,817,c),
(138,808,l),
(350,769,o),
(455,595,o),
(457,280,c),
(509,280,o),
(415,280,o),
(467,280,cs)
);
},
{
angle = 30;
pos = (415,277);
ref = hyphen;
}
);
width = 557;
},
{
anchors = (
{
name = bottom;
pos = (276,0);
},
{
name = top;
pos = (276,850);
}
);
layerId = m004;
shapes = (
{
closed = 1;
nodes = (
(307,518,o),
(275,533,o),
(242,533,c),
(90,533,o),
(15,450,o),
(15,280,cs),
(15,85,o),
(83,-10,o),
(222,-10,cs),
(359,-10,o),
(427,85,o),
(427,280,c),
(278,280,l),
(278,159,o),
(273,100,o),
(222,100,cs),
(170,100,o),
(164,159,o),
(164,280,cs),
(164,376,o),
(176,423,o),
(242,423,cs),
(281,423,o),
(313,409,o),
(340,381,c),
(338,487,l)
);
},
{
closed = 1;
nodes = (
(427,600,o),
(320,776,o),
(101,817,c),
(83,711,l),
(225,677,o),
(276,535,o),
(278,280,c),
(330,280,o),
(375,280,o),
(427,280,cs)
);
},
{
angle = 30;
pos = (209,458);
ref = hyphen;
scale = (1,0.3813);
}
);
width = 467;
},
{
anchors = (
{
name = bottom;
pos = (306,0);
},
{
name = top;
pos = (306,850);
}
);
layerId = "C42BF1BA-B3BB-492C-A865-1DF6B235F68F";
shapes = (
{
closed = 1;
nodes = (
(365,495,o),
(316,523,o),
(253,523,c),
(107,523,o),
(36,443,o),
(36,280,cs),
(36,85,o),
(104,-10,o),
(243,-10,cs),
(381,-10,o),
(448,85,o),
(448,280,c),
(372,280,l),
(372,124,o),
(336,48,o),
(243,48,cs),
(149,48,o),
(112,124,o),
(112,280,cs),
(112,404,o),
(152,464,o),
(253,464,cs),
(321,464,o),
(370,436,o),
(401,379,c),
(400,439,l)
);
},
{
closed = 1;
nodes = (
(448,600,o),
(341,776,o),
(122,817,c),
(112,762,l),
(291,725,o),
(370,567,o),
(372,280,c),
(424,280,o),
(396,280,o),
(448,280,cs)
);
},
{
alignment = -1;
angle = 30;
pos = (317,363);
ref = hyphen;
scale = (1,0.7061);
}
);
width = 514;
}
);
metricLeft = o;
metricRight = n;
unicode = 240;
},
{
color = 9;
glyphname = e;
lastChange = "2024-08-09 20:01:23 +0000";
layers = (
{
anchors = (
{
name = bottom;
pos = (190,1);
},
{
name = ogonek;
pos = (308,1);
},
{
name = top;
pos = (280,649);
}
);
layerId = m01;
shapes = (
{
closed = 1;
nodes = (
(312,-9,o),
(391,59,o),
(428,196,c),
(281,196,l),
(268,148,o),
(245,125,o),
(208,125,cs),
(154,125,o),
(147,196,o),
(167,342,cs),
(185,468,o),
(211,530,o),
(265,530,cs),
(318,530,o),
(332,484,o),
(319,391,c),
(102,391,l),
(86,281,l),
(446,281,l),
(451,302,o),
(455,322,o),
(458,342,cs),
(484,555,o),
(426,659,o),
(283,659,cs),
(127,659,o),
(47,555,o),
(17,342,cs),
(-16,107,o),
(34,-9,o),
(189,-9,cs)
);
}
);
width = 470;
},
{
anchors = (
{
name = bottom;
pos = (200,1);
},
{
name = ogonek;
pos = (397,11);
},
{
name = top;
pos = (290,649);
}
);
background = {
shapes = (
{
closed = 1;
nodes = (
(444,-10,o),
(513,58,o),
(531,196,c),
(384,196,l),
(378,148,o),
(358,125,o),
(321,125,cs),
(267,125,o),
(250,196,o),
(250,342,cs),
(250,468,o),
(267,530,o),
(321,530,cs),
(374,530,o),
(395,484,o),
(395,391,c),
(178,391,l),
(178,281,l),
(537,281,l),
(539,302,o),
(540,322,o),
(540,342,cs),
(536,556,o),
(464,660,o),
(321,660,cs),
(166,660,o),
(100,556,o),
(100,342,cs),
(100,106,o),
(166,-10,o),
(321,-10,cs)
);
}
);
};
layerId = m002;
shapes = (
{
closed = 1;
nodes = (
(282,-9,o),
(373,42,o),
(396,146,c),
(386,146,l),
(365,49,o),
(278,1,o),
(211,1,cs),
(78,1,o),
(35,113,o),
(67,342,cs),
(96,548,o),
(169,649,o),
(291,649,cs),
(412,649,o),
(457,547,o),
(428,341,c),
(65,341,l),
(63,331,l),
(436,331,l),
(437,335,o),
(437,337,o),
(438,341,cs),
(468,554,o),
(420,659,o),
(293,659,cs),
(165,659,o),
(87,555,o),
(57,342,cs),
(24,107,o),
(71,-9,o),
(209,-9,cs)
);
}
);
width = 490;
},
{
anchors = (
{
name = bottom;
pos = (444,1);
},
{
name = ogonek;
pos = (839,11);
},
{
name = top;
pos = (535,649);
}
);
background = {
shapes = (
{
closed = 1;
nodes = (
(444,-10,o),
(513,58,o),
(531,196,c),
(384,196,l),
(378,148,o),
(358,125,o),
(321,125,cs),
(267,125,o),
(250,196,o),
(250,342,cs),
(250,468,o),
(267,530,o),
(321,530,cs),
(374,530,o),
(395,484,o),
(395,391,c),
(178,391,l),
(178,281,l),
(537,281,l),
(539,302,o),
(540,322,o),
(540,342,cs),
(536,556,o),
(464,660,o),
(321,660,cs),
(166,660,o),
(100,556,o),
(100,342,cs),
(100,106,o),
(166,-10,o),
(321,-10,cs)
);
}
);
};
layerId = m003;
shapes = (
{
closed = 1;
nodes = (
(653,-9,o),
(788,51,o),
(818,146,c),
(808,146,l),
(780,57,o),
(649,1,o),
(467,1,cs),
(225,1,o),
(92,132,o),
(121,342,cs),
(148,531,o),
(308,649,o),
(537,649,cs),
(764,649,o),
(890,531,o),
(863,341,c),
(117,341,l),
(116,331,l),
(872,331,l),
(872,335,o),
(873,337,o),
(873,341,cs),
(901,536,o),
(771,659,o),
(539,659,cs),
(303,659,o),
(139,536,o),
(111,342,cs),
(81,126,o),
(218,-9,o),
(465,-9,cs)
);
}
);
width = 980;
},
{
anchors = (
{
name = bottom;
pos = (425,1);
},
{
name = ogonek;
pos = (661,1);
},
{
name = top;
pos = (515,649);
}
);
layerId = m004;
shapes = (
{
closed = 1;
nodes = (
(660,-9,o),
(855,80,o),
(899,221,c),
(584,221,l),
(573,193,o),
(522,175,o),
(451,175,cs),
(364,175,o),
(318,239,o),
(332,342,cs),
(344,427,o),
(406,480,o),
(494,480,cs),
(585,480,o),
(637,446,o),
(630,391,c),
(195,391,l),
(178,271,l),
(918,271,l),
(924,289,o),
(930,316,o),
(934,342,cs),
(953,536,o),
(781,659,o),
(519,659,cs),
(246,659,o),
(59,536,o),
(31,342,cs),
(1,126,o),
(152,-9,o),
(425,-9,cs)
);
}
);
width = 960;
},
{
anchors = (
{
name = bottom;
pos = (308,1);
},
{
name = ogonek;
pos = (411,6);
},
{
name = top;
pos = (396,649);
}
);
layerId = "C42BF1BA-B3BB-492C-A865-1DF6B235F68F";
shapes = (
{
closed = 1;
nodes = (
(458,-9,o),
(575,63,o),
(614,176,c),
(499,176,l),
(479,123,o),
(413,91,o),
(327,91,cs),
(202,91,o),
(136,187,o),
(158,342,cs),
(177,476,o),
(265,559,o),
(385,559,cs),
(499,559,o),
(562,491,o),
(546,380,c),
(110,380,l),
(97,290,l),
(645,290,l),
(648,296,o),
(651,316,o),
(655,341,cs),
(679,536,o),
(580,659,o),
(399,659,cs),
(209,659,o),
(73,536,o),
(46,342,cs),
(15,126,o),
(119,-9,o),
(313,-9,cs)
);
}
);
width = 696;
}
);
metricLeft = o;
metricRight = o;
unicode = 101;
},
{
color = 9;
glyphname = schwa;
lastChange = "2024-08-09 20:01:23 +0000";
layers = (
{
anchors = (
{
name = bottom;
pos = (255,1);
},
{
name = top;
pos = (346,649);
}
);
layerId = m002;
shapes = (
{
closed = 1;
nodes = (
(208,659,o),
(117,608,o),
(94,504,c),
(104,504,l),
(125,601,o),
(212,649,o),
(279,649,cs),
(412,649,o),
(455,537,o),
(423,308,cs),
(394,102,o),
(321,1,o),
(199,1,cs),
(78,1,o),
(33,103,o),
(62,309,c),
(425,309,l),
(427,319,l),
(54,319,l),
(53,315,o),
(53,313,o),
(52,309,cs),
(22,96,o),
(70,-9,o),
(197,-9,cs),
(325,-9,o),
(403,95,o),
(433,308,cs),
(466,543,o),
(419,659,o),
(281,659,cs)
);
}
);
width = 490;
},
{
anchors = (
{
name = bottom;
pos = (255,1);
},
{
name = top;
pos = (346,649);
}
);
layerId = m01;
shapes = (
{
closed = 1;
nodes = (
(158,659,o),
(79,591,o),
(42,454,c),
(189,454,l),
(202,502,o),
(225,525,o),
(262,525,cs),
(316,525,o),
(323,454,o),
(303,308,cs),
(285,182,o),
(259,120,o),
(205,120,cs),
(152,120,o),
(138,166,o),
(151,259,c),
(368,259,l),
(384,369,l),
(24,369,l),
(19,348,o),
(15,328,o),
(12,308,cs),
(-14,95,o),
(44,-9,o),
(187,-9,cs),
(343,-9,o),
(423,95,o),
(453,308,cs),
(486,543,o),
(436,659,o),
(281,659,cs)
);
}
);
width = 470;
},
{
anchors = (
{
name = bottom;
pos = (555,1);
},
{
name = top;
pos = (646,649);
}
);
layerId = m003;
shapes = (
{
closed = 1;
nodes = (
(328,659,o),
(192,599,o),
(162,504,c),
(173,504,l),
(201,593,o),
(332,649,o),
(513,649,cs),
(755,649,o),
(888,518,o),
(859,308,cs),
(832,119,o),
(672,1,o),
(443,1,cs),
(216,1,o),
(90,119,o),
(117,309,c),
(863,309,l),
(864,319,l),
(108,319,l),
(108,315,o),
(107,313,o),
(107,309,cs),
(79,114,o),
(209,-9,o),
(441,-9,cs),
(677,-9,o),
(841,114,o),
(869,308,cs),
(899,524,o),
(762,659,o),
(515,659,cs)
);
}
);
width = 980;
},
{
anchors = (
{
name = bottom;
pos = (555,1);
},
{
name = top;
pos = (646,649);
}
);
layerId = m004;
shapes = (
{
closed = 1;
nodes = (
(284,659,o),
(122,575,o),
(61,424,c),
(356,424,l),
(368,457,o),
(416,475,o),
(489,475,cs),
(580,475,o),
(623,415,o),
(608,308,cs),
(596,219,o),
(538,170,o),
(446,170,cs),
(351,170,o),
(302,202,o),
(310,259,c),
(745,259,l),
(761,369,l),
(41,369,l),
(34,350,o),
(29,328,o),
(27,308,cs),
(6,105,o),
(146,-9,o),
(421,-9,cs),
(706,-9,o),
(880,105,o),
(909,308,cs),
(940,533,o),
(800,659,o),
(515,659,cs)
);
}
);
width = 940;
},
{
anchors = (
{
name = bottom;
pos = (371,1);
},
{
name = top;
pos = (462,649);
}
);
layerId = "C42BF1BA-B3BB-492C-A865-1DF6B235F68F";
shapes = (
{
closed = 1;
nodes = (
(204,659,o),
(92,590,o),
(58,480,c),
(171,480,l),
(185,529,o),
(249,559,o),
(345,559,cs),
(470,559,o),
(531,467,o),
(511,318,cs),
(491,178,o),
(407,91,o),
(287,91,cs),
(169,91,o),
(110,164,o),
(127,283,c),
(556,283,l),
(568,373,l),
(28,373,l),
(24,351,o),
(19,326,o),
(17,309,cs),
(-7,114,o),
(89,-9,o),
(273,-9,cs),
(463,-9,o),
(595,118,o),
(623,318,cs),
(652,528,o),
(553,659,o),
(359,659,cs)
);
}
);
width = 643;
}
);
metricLeft = o;
metricRight = o;
unicode = 601;
},
{
color = 9;
glyphname = f;
lastChange = "2024-08-09 20:01:23 +0000";
layers = (
{
anchors = (
{
name = bottom;
pos = (83,1);
},
{
name = top;
pos = (202,849);
}
);
layerId = m01;
shapes = (
{
closed = 1;
nodes = (
(150,1,l),
(241,649,l),
(91,649,l),
(0,1,l)
);
},
{
closed = 1;
nodes = (
(298,520,l),
(316,649,l),
(30,649,l),
(12,520,l)
);
},
{
closed = 1;
nodes = (
(240,644,l),
(247,694,o),
(264,718,o),
(291,718,c),
(303,718,o),
(315,717,o),
(325,715,c),
(344,850,l),
(321,856,o),
(293,859,o),
(260,859,cs),
(166,859,o),
(110,788,o),
(90,644,c)
);
}
);
width = 285;
},
{
anchors = (
{
name = bottom;
pos = (83,1);
},
{
name = top;
pos = (202,849);
}
);
background = {
shapes = (
{
closed = 1;
nodes = (
(210,0,l),
(210,650,l),
(60,650,l),
(60,0,l)
);
},
{
closed = 1;
nodes = (
(285,520,l),
(285,650,l),
(0,650,l),
(0,520,l)
);
},
{
closed = 1;
nodes = (
(210,645,l),
(210,695,o),
(223,719,o),
(250,719,c),
(262,719,o),
(274,718,o),
(285,716,c),
(285,851,l),
(261,857,o),
(233,860,o),
(200,860,cs),
(106,860,o),
(60,789,o),
(60,645,c)
);
}
);
};
layerId = m002;
shapes = (
{
closed = 1;
nodes = (
(80,1,l),
(171,649,l),
(161,649,l),
(70,1,l)
);
},
{
closed = 1;
nodes = (
(285,639,l),
(286,649,l),
(61,649,l),
(59,639,l)
);
},
{
closed = 1;
nodes = (
(171,649,l),
(189,779,o),
(228,843,o),
(288,843,cs),
(289,843,o),
(310,843,o),
(313,843,c),
(315,853,l),
(313,854,o),
(305,854,o),
(290,854,cs),
(223,854,o),
(180,787,o),
(161,649,c)
);
}
);
width = 285;
},
{
anchors = (
{
name = bottom;
pos = (226,1);
},
{
name = top;
pos = (345,849);
}
);
background = {
shapes = (
{
closed = 1;
nodes = (
(210,0,l),
(210,650,l),
(60,650,l),
(60,0,l)
);
},
{
closed = 1;
nodes = (
(285,520,l),
(285,650,l),
(0,650,l),
(0,520,l)
);
},
{
closed = 1;
nodes = (
(210,645,l),
(210,695,o),
(223,719,o),
(250,719,c),
(262,719,o),
(274,718,o),
(285,716,c),
(285,851,l),
(261,857,o),
(233,860,o),
(200,860,cs),
(106,860,o),
(60,789,o),
(60,645,c)
);
}
);
};
layerId = m003;
shapes = (
{
closed = 1;
nodes = (
(215,1,l),
(306,649,l),
(296,649,l),
(205,1,l)
);
},
{
closed = 1;
nodes = (
(540,639,l),
(541,649,l),
(90,649,l),
(89,639,l)
);
},
{
closed = 1;
nodes = (
(306,649,l),
(322,768,o),
(404,843,o),
(518,843,cs),
(520,843,o),
(562,843,o),
(568,843,c),
(570,853,l),
(568,854,o),
(548,854,o),
(520,854,cs),
(400,854,o),
(313,775,o),
(296,649,c)
);
}
);
width = 570;
},
{
anchors = (
{
name = bottom;
pos = (226,1);
},
{
name = top;
pos = (345,849);
}
);
layerId = m004;
shapes = (
{
closed = 1;
nodes = (
(360,1,l),
(451,649,l),
(150,649,l),
(59,1,l)
);
},
{
closed = 1;
nodes = (
(569,420,l),
(601,649,l),
(30,649,l),
(-2,420,l)
);
},
{
closed = 1;
nodes = (
(450,644,l),
(457,689,o),
(492,718,o),
(541,718,c),
(565,718,o),
(592,717,o),
(611,715,c),
(630,850,l),
(588,856,o),
(523,859,o),
(460,859,cs),
(288,859,o),
(168,776,o),
(150,644,c)
);
}
);
width = 570;
},
{
anchors = (
{
name = bottom;
pos = (99,1);
},
{
name = top;
pos = (235,849);
}
);
layerId = "C42BF1BA-B3BB-492C-A865-1DF6B235F68F";
shapes = (
{
closed = 1;
nodes = (
(163,1,l),
(254,649,l),
(134,649,l),
(43,1,l)
);
},
{
closed = 1;
nodes = (
(384,560,l),
(396,649,l),
(15,649,l),
(3,560,l)
);
},
{
closed = 1;
nodes = (
(254,647,l),
(263,715,o),
(305,757,o),
(366,757,cs),
(381,757,o),
(399,756,o),
(411,755,c),
(425,852,l),
(411,854,o),
(380,856,o),
(345,856,cs),
(236,856,o),
(151,775,o),
(133,647,c)
);
}
);
width = 350;
}
);
unicode = 102;
},
{
color = 9;
glyphname = g;
lastChange = "2024-08-09 20:01:23 +0000";
layers = (
{
anchors = (
{
name = bottom;
pos = (196,-199);
},
{
name = top;
pos = (315,649);
}
);
layerId = m01;
shapes = (
{
closed = 1;
nodes = (
(280,-32,l),
(274,-78,o),
(248,-100,o),
(201,-100,cs),
(155,-100,o),
(136,-67,o),
(140,-40,c),
(-1,-40,l),
(-16,-144,o),
(43,-215,o),
(185,-215,cs),
(335,-215,o),
(418,-154,o),
(435,-30,cs),
(529,649,l),
(381,649,l)
);
},
{
closed = 1;
nodes = (
(297,1,o),
(380,112,o),
(412,342,cs),
(442,555,o),
(389,659,o),
(252,659,cs),
(134,659,o),
(61,555,o),
(31,342,cs),
(-1,112,o),
(41,1,o),
(160,1,cs)
);
},
{
closed = 1;
nodes = (
(179,125,o),
(166,196,o),
(186,342,cs),
(204,464,o),
(235,524,o),
(282,524,cs),
(329,524,o),
(344,464,o),
(327,342,cs),
(306,196,o),
(273,125,o),
(226,125,cs)
);
}
);
width = 510;
},
{
anchors = (
{
name = bottom;
pos = (211,-199);
},
{
name = top;
pos = (329,649);
}
);
background = {
shapes = (
{
closed = 1;
nodes = (
(401,-33,l),
(401,-79,o),
(378,-101,o),
(331,-101,cs),
(285,-101,o),
(262,-68,o),
(262,-41,c),
(121,-41,l),
(121,-145,o),
(190,-216,o),
(331,-216,cs),
(481,-216,o),
(555,-155,o),
(555,-31,cs),
(554,650,l),
(406,650,l)
);
},
{
closed = 1;
nodes = (
(413,0,o),
(480,112,o),
(480,342,cs),
(480,556,o),
(413,660,o),
(276,660,cs),
(158,660,o),
(100,556,o),
(100,342,cs),
(100,112,o),
(158,0,o),
(276,0,cs)
);
},
{
closed = 1;
nodes = (
(278,125,o),
(255,196,o),
(255,342,cs),
(255,465,o),
(278,525,o),
(325,525,cs),
(372,525,o),
(395,465,o),
(395,342,cs),
(395,196,o),
(372,125,o),
(325,125,cs)
);
}
);
};
layerId = m002;
shapes = (
{
closed = 1;
nodes = (
(404,-31,ls),
(389,-144,o),
(321,-199,o),
(196,-199,cs),
(104,-199,o),
(49,-166,o),
(49,-90,c),
(39,-90,l),
(38,-173,o),
(95,-209,o),
(195,-209,cs),
(325,-209,o),
(398,-151,o),
(414,-31,cs),
(509,649,l),
(499,649,l)
);
},
{
closed = 1;
nodes = (
(343,-9,o),
(433,106,o),
(466,342,cs),
(496,555,o),
(437,659,o),
(307,659,cs),
(171,659,o),
(101,555,o),
(71,342,cs),
(38,106,o),
(78,-9,o),
(213,-9,cs)
);
},
{
closed = 1;
nodes = (
(86,1,o),
(49,112,o),
(81,342,cs),
(110,548,o),
(177,649,o),
(305,649,cs),
(429,649,o),
(485,548,o),
(456,342,cs),
(424,112,o),
(338,1,o),
(214,1,cs)
);
}
);
width = 540;
},
{
anchors = (
{
name = bottom;
pos = (480,-199);
},
{
name = top;
pos = (599,649);
}
);
background = {
shapes = (
{
closed = 1;
nodes = (
(401,-33,l),
(401,-79,o),
(378,-101,o),
(331,-101,cs),
(285,-101,o),
(262,-68,o),
(262,-41,c),
(121,-41,l),
(121,-145,o),
(190,-216,o),
(331,-216,cs),
(481,-216,o),
(555,-155,o),
(555,-31,cs),
(554,650,l),
(406,650,l)
);
},
{
closed = 1;
nodes = (
(413,0,o),
(480,112,o),
(480,342,cs),
(480,556,o),
(413,660,o),
(276,660,cs),
(158,660,o),
(100,556,o),
(100,342,cs),
(100,112,o),
(158,0,o),
(276,0,cs)
);
},
{
closed = 1;
nodes = (
(278,125,o),
(255,196,o),
(255,342,cs),
(255,465,o),
(278,525,o),
(325,525,cs),
(372,525,o),
(395,465,o),
(395,342,cs),
(395,196,o),
(372,125,o),
(325,125,cs)
);
}
);
};
layerId = m003;
shapes = (
{
closed = 1;
nodes = (
(855,-31,ls),
(840,-134,o),
(681,-199,o),
(442,-199,cs),
(262,-199,o),
(142,-157,o),
(134,-90,c),
(123,-90,l),
(130,-163,o),
(253,-209,o),
(441,-209,cs),
(685,-209,o),
(849,-140,o),
(865,-31,cs),
(958,649,l),
(948,649,l)
);
},
{
closed = 1;
nodes = (
(712,-9,o),
(885,126,o),
(915,342,cs),
(942,536,o),
(806,659,o),
(562,659,cs),
(321,659,o),
(152,536,o),
(125,342,cs),
(95,126,o),
(227,-9,o),
(469,-9,cs)
);
},
{
closed = 1;
nodes = (
(235,1,o),
(106,132,o),
(135,342,cs),
(161,530,o),
(325,649,o),
(561,649,cs),
(799,649,o),
(931,530,o),
(905,342,cs),
(875,132,o),
(708,1,o),
(470,1,cs)
);
}
);
width = 1080;
},
{
anchors = (
{
name = bottom;
pos = (431,-209);
},
{
name = top;
pos = (569,649);
}
);
layerId = m004;
shapes = (
{
closed = 1;
nodes = (
(600,-2,l),
(594,-44,o),
(537,-70,o),
(450,-70,cs),
(365,-70,o),
(316,-43,o),
(322,0,c),
(39,0,l),
(21,-132,o),
(171,-215,o),
(430,-215,cs),
(706,-215,o),
(891,-132,o),
(909,0,cs),
(998,649,l),
(702,649,l)
);
},
{
closed = 1;
nodes = (
(600,40,o),
(771,156,o),
(797,342,cs),
(824,536,o),
(687,659,o),
(442,659,cs),
(226,659,o),
(72,536,o),
(45,342,cs),
(19,156,o),
(139,40,o),
(356,40,cs)
);
},
{
closed = 1;
nodes = (
(394,225,o),
(345,266,o),
(354,332,cs),
(362,389,o),
(422,425,o),
(508,425,cs),
(594,425,o),
(643,389,o),
(635,332,cs),
(626,266,o),
(566,225,o),
(480,225,cs)
);
}
);
width = 1011;
},
{
anchors = (
{
name = bottom;
pos = (283,-201);
},
{
name = top;
pos = (443,649);
}
);
layerId = "C42BF1BA-B3BB-492C-A865-1DF6B235F68F";
shapes = (
{
closed = 1;
nodes = (
(527,1,ls),
(517,-68,o),
(432,-112,o),
(326,-112,cs),
(217,-112,o),
(162,-91,o),
(163,-57,c),
(42,-57,l),
(35,-152,o),
(132,-212,o),
(312,-212,cs),
(492,-212,o),
(630,-129,o),
(648,2,cs),
(738,649,l),
(621,649,l)
);
},
{
closed = 1;
nodes = (
(492,30,o),
(611,132,o),
(640,342,cs),
(667,536,o),
(580,659,o),
(414,659,cs),
(223,659,o),
(87,536,o),
(59,342,cs),
(30,132,o),
(135,30,o),
(326,30,cs)
);
},
{
closed = 1;
nodes = (
(222,130,o),
(158,193,o),
(178,340,cs),
(197,474,o),
(282,559,o),
(400,559,cs),
(527,559,o),
(594,474,o),
(575,340,cs),
(555,193,o),
(467,130,o),
(340,130,cs)
);
}
);
width = 745;
}
);
metricLeft = o;
metricRight = n;
unicode = 103;
},
{
color = 9;
glyphname = h;
lastChange = "2024-08-09 20:01:23 +0000";
layers = (
{
anchors = (
{
name = bottom;
pos = (201,1);
},
{
name = center;
pos = (166,679);
},
{
name = top;
pos = (178,849);
}
);
background = {
shapes = (
{
closed = 1;
nodes = (
(200,0,l),
(200,438,l),
(200,483,o),
(223,512,o),
(260,512,cs),
(297,512,o),
(320,483,o),
(320,438,cs),
(320,0,l),
(480,0,l),
(480,488,l),
(480,594,o),
(426,660,o),
(340,660,cs),
(260,660,o),
(197,613,o),
(187,541,c),
(194,525,l),
(194,650,l),
(40,650,l),
(40,0,l)
);
}
);
};
layerId = m01;
shapes = (
{
closed = 1;
nodes = (
(141,1,l),
(161,146,o),
(196,394,o),
(202,438,cs),
(209,486,o),
(234,512,o),
(273,512,cs),
(312,512,o),
(329,486,o),
(323,438,cs),
(261,1,l),
(422,1,l),
(443,151,o),
(478,404,o),
(490,489,cs),
(506,599,o),
(464,659,o),
(374,659,cs),
(291,659,o),
(229,617,o),
(204,541,c),
(211,525,l),
(257,849,l),
(100,849,l),
(-19,1,l)
);
}
);
width = 520;
},
{
anchors = (
{
name = bottom;
pos = (221,1);
},
{
name = center;
pos = (176,679);
},
{
name = top;
pos = (340,849);
}
);
background = {
shapes = (
{
closed = 1;
nodes = (
(240,0,l),
(240,145,o),
(240,394,o),
(240,438,cs),
(240,486,o),
(261,512,o),
(300,512,cs),
(339,512,o),
(360,486,o),
(360,438,cs),
(360,0,l),
(520,0,l),
(520,150,o),
(520,404,o),
(520,489,cs),
(520,599,o),
(470,660,o),
(380,660,cs),
(297,660,o),
(242,617,o),
(227,541,c),
(237,525,l),
(237,850,l),
(80,850,l),
(80,0,l)
);
}
);
};
layerId = m002;
shapes = (
{
closed = 1;
nodes = (
(41,1,l),
(61,147,o),
(97,399,o),
(102,438,cs),
(122,580,o),
(194,649,o),
(322,649,cs),
(437,649,o),
(484,589,o),
(467,464,cs),
(402,1,l),
(412,1,l),
(433,152,o),
(466,388,o),
(477,464,cs),
(495,596,o),
(445,659,o),
(324,659,cs),
(200,659,o),
(128,601,o),
(103,479,c),
(105,455,l),
(160,849,l),
(150,849,l),
(31,1,l)
);
}
);
width = 560;
},
{
anchors = (
{
name = bottom;
pos = (502,1);
},
{
name = center;
pos = (317,679);
},
{
name = top;
pos = (621,849);
}
);
background = {
shapes = (
{
closed = 1;
nodes = (
(240,0,l),
(240,145,o),
(240,394,o),
(240,438,cs),
(240,486,o),
(261,512,o),
(300,512,cs),
(339,512,o),
(360,486,o),
(360,438,cs),
(360,0,l),
(520,0,l),
(520,150,o),
(520,404,o),
(520,489,cs),
(520,599,o),
(470,660,o),
(380,660,cs),
(297,660,o),
(242,617,o),
(227,541,c),
(237,525,l),
(237,850,l),
(80,850,l),
(80,0,l)
);
}
);
};
layerId = m003;
shapes = (
{
closed = 1;
nodes = (
(131,1,l),
(152,147,o),
(187,399,o),
(193,438,cs),
(211,568,o),
(373,649,o),
(613,649,cs),
(826,649,o),
(949,578,o),
(933,464,cs),
(868,1,l),
(883,1,l),
(904,152,o),
(938,388,o),
(948,464,cs),
(965,584,o),
(836,659,o),
(615,659,cs),
(389,659,o),
(229,590,o),
(198,479,c),
(195,455,l),
(250,849,l),
(240,849,l),
(121,1,l)
);
}
);
width = 1120;
},
{
anchors = (
{
name = bottom;
pos = (462,1);
},
{
name = center;
pos = (296,679);
},
{
name = top;
pos = (296,849);
}
);
background = {
shapes = (
{
closed = 1;
nodes = (
(200,0,l),
(200,438,l),
(200,483,o),
(223,512,o),
(260,512,cs),
(297,512,o),
(320,483,o),
(320,438,cs),
(320,0,l),
(480,0,l),
(480,488,l),
(480,594,o),
(426,660,o),
(340,660,cs),
(260,660,o),
(197,613,o),
(187,541,c),
(194,525,l),
(194,650,l),
(40,650,l),
(40,0,l)
);
}
);
};
layerId = m004;
shapes = (
{
closed = 1;
nodes = (
(342,1,l),
(362,146,o),
(379,264,o),
(385,308,cs),
(394,372,o),
(445,412,o),
(520,412,cs),
(594,412,o),
(636,383,o),
(629,338,cs),
(582,1,l),
(903,1,l),
(924,151,o),
(955,374,o),
(967,459,cs),
(984,582,o),
(887,659,o),
(715,659,cs),
(562,659,o),
(436,603,o),
(387,511,c),
(405,495,l),
(454,849,l),
(140,849,l),
(21,1,l)
);
}
);
width = 1040;
},
{
anchors = (
{
name = bottom;
pos = (315,1);
},
{
name = center;
pos = (206,679);
},
{
name = top;
pos = (332,849);
}
);
background = {
shapes = (
{
closed = 1;
nodes = (
(186,0,l),
(186,399,l),
(186,497,o),
(267,559,o),
(396,559,cs),
(482,559,o),
(536,497,o),
(536,399,cs),
(536,0,l),
(656,0,l),
(656,399,l),
(656,559,o),
(556,660,o),
(396,660,cs),
(290,660,o),
(205,618,o),
(176,550,c),
(181,516,l),
(181,650,l),
(66,650,l),
(66,0,l)
);
}
);
};
layerId = "C42BF1BA-B3BB-492C-A865-1DF6B235F68F";
shapes = (
{
closed = 1;
nodes = (
(127,1,l),
(148,147,o),
(178,362,o),
(184,403,cs),
(197,500,o),
(283,561,o),
(406,561,cs),
(512,561,o),
(571,500,o),
(558,403,cs),
(501,1,l),
(621,1,l),
(643,152,o),
(666,322,o),
(678,403,cs),
(700,561,o),
(600,659,o),
(420,659,cs),
(313,659,o),
(217,606,o),
(171,521,c),
(194,501,l),
(243,849,l),
(126,849,l),
(7,1,l)
);
}
);
width = 745;
}
);
metricLeft = n;
metricRight = n;
unicode = 104;
},
{
glyphname = i;
lastChange = "2024-08-05 10:19:43 +0000";
layers = (
{
anchors = (
{
name = bottom;
pos = (120,0);
}
);
layerId = m01;
shapes = (
{
ref = idotless;
},
{
pos = (36,-1);
ref = dotaccentcomb;
}
);
width = 240;
},
{
anchors = (
{
name = bottom;
pos = (120,0);
}
);
background = {
shapes = (
{
closed = 1;
nodes = (
(40,651,l),
(40,0,l),
(200,0,l),
(200,651,l)
);
},
{
closed = 1;
nodes = (
(37,716,l),
(203,716,l),
(203,850,l),
(37,850,l)
);
}
);
};
layerId = m002;
shapes = (
{
ref = idotless;
},
{
pos = (32,-1);
ref = dotaccentcomb;
}
);
width = 234;
},
{
anchors = (
{
name = bottom;
pos = (120,0);
}
);
background = {
shapes = (
{
closed = 1;
nodes = (
(40,651,l),
(40,0,l),
(200,0,l),
(200,651,l)
);
},
{
closed = 1;
nodes = (
(37,716,l),
(203,716,l),
(203,850,l),
(37,850,l)
);
}
);
};
layerId = m003;
shapes = (
{
ref = idotless;
},
{
pos = (4,-1);
ref = dotaccentcomb;
}
);
width = 468;
},
{
anchors = (
{
name = bottom;
pos = (120,0);
}
);
layerId = m004;
shapes = (
{
ref = idotless;
},
{
pos = (4,-1);
ref = dotaccentcomb;
}
);
width = 480;
},
{
anchors = (
{
name = bottom;
pos = (120,0);
}
);
layerId = "C42BF1BA-B3BB-492C-A865-1DF6B235F68F";
shapes = (
{
ref = idotless;
},
{
pos = (64,-1);
ref = dotaccentcomb;
}
);
width = 244;
}
);
unicode = 105;
},
{
color = 9;
glyphname = idotless;
lastChange = "2024-08-09 20:01:23 +0000";
layers = (
{
anchors = (
{
name = bottom;
pos = (67,1);
},
{
name = ogonek;
pos = (67,1);
},
{
name = top;
pos = (157,649);
}
);
layerId = m002;
shapes = (
{
closed = 1;
nodes = (
(157,649,l),
(67,1,l),
(77,1,l),
(167,649,l)
);
}
);
width = 234;
},
{
anchors = (
{
name = bottom;
pos = (80,1);
},
{
name = ogonek;
pos = (85,1);
},
{
name = top;
pos = (167,649);
}
);
layerId = m01;
shapes = (
{
closed = 1;
nodes = (
(85,650,l),
(-6,1,l),
(155,1,l),
(246,650,l)
);
}
);
width = 240;
},
{
anchors = (
{
name = bottom;
pos = (189,1);
},
{
name = ogonek;
pos = (214,1);
},
{
name = top;
pos = (279,649);
}
);
layerId = m003;
shapes = (
{
closed = 1;
nodes = (
(274,649,l),
(184,1,l),
(194,1,l),
(284,649,l)
);
}
);
width = 468;
},
{
anchors = (
{
name = bottom;
pos = (194,1);
},
{
name = ogonek;
pos = (355,1);
},
{
name = top;
pos = (285,649);
}
);
layerId = m004;
shapes = (
{
closed = 1;
nodes = (
(125,650,l),
(34,1,l),
(355,1,l),
(446,650,l)
);
}
);
width = 480;
},
{
anchors = (
{
name = bottom;
pos = (77,1);
},
{
name = ogonek;
pos = (122,1);
},
{
name = top;
pos = (166,649);
}
);
layerId = "C42BF1BA-B3BB-492C-A865-1DF6B235F68F";
shapes = (
{
closed = 1;
nodes = (
(107,649,l),
(16,1,l),
(137,1,l),
(228,649,l)
);
}
);
width = 244;
}
);
unicode = 305;
},
{
color = 9;
glyphname = jdotless;
lastChange = "2024-08-09 20:01:23 +0000";
layers = (
{
anchors = (
{
name = bottom;
pos = (56,-199);
},
{
name = top;
pos = (181,649);
}
);
layerId = m002;
shapes = (
{
closed = 1;
nodes = (
(175,649,l),
(84,1,l),
(94,1,l),
(185,649,l)
);
},
{
closed = 1;
nodes = (
(34,-204,o),
(75,-137,o),
(94,1,c),
(84,1,l),
(66,-130,o),
(29,-194,o),
(-29,-194,c),
(-30,-204,l)
);
}
);
width = 237;
},
{
anchors = (
{
name = bottom;
pos = (49,-199);
},
{
name = top;
pos = (182,649);
}
);
layerId = m01;
shapes = (
{
closed = 1;
nodes = (
(100,650,l),
(9,1,l),
(170,1,l),
(261,650,l)
);
},
{
closed = 1;
nodes = (
(73,-215,o),
(150,-144,o),
(170,1,c),
(9,1,l),
(1,-57,o),
(-16,-85,o),
(-43,-85,c),
(-61,-215,l)
);
}
);
width = 237;
},
{
anchors = (
{
name = bottom;
pos = (171,-199);
},
{
name = top;
pos = (302,649);
}
);
layerId = m003;
shapes = (
{
closed = 1;
nodes = (
(295,649,l),
(204,1,l),
(214,1,l),
(305,649,l)
);
},
{
closed = 1;
nodes = (
(114,-204,o),
(196,-125,o),
(214,1,c),
(204,1,l),
(187,-119,o),
(109,-194,o),
(1,-194,c),
(0,-204,l)
);
}
);
width = 474;
},
{
anchors = (
{
name = bottom;
pos = (156,-199);
},
{
name = top;
pos = (301,649);
}
);
layerId = m004;
shapes = (
{
closed = 1;
nodes = (
(140,650,l),
(56,50,l),
(377,50,l),
(461,650,l)
);
},
{
closed = 1;
nodes = (
(185,-215,o),
(354,-112,o),
(377,50,c),
(56,50,l),
(45,-33,o),
(6,-85,o),
(-43,-85,c),
(-61,-215,l)
);
}
);
width = 474;
},
{
anchors = (
{
name = bottom;
pos = (50,-199);
},
{
name = top;
pos = (183,649);
}
);
layerId = "C42BF1BA-B3BB-492C-A865-1DF6B235F68F";
shapes = (
{
closed = 1;
nodes = (
(122,649,l),
(33,13,l),
(153,13,l),
(242,649,l)
);
},
{
closed = 1;
nodes = (
(39,-209,o),
(134,-123,o),
(153,13,c),
(33,13,l),
(22,-62,o),
(-21,-109,o),
(-80,-109,c),
(-94,-209,l)
);
}
);
width = 244;
}
);
unicode = 567;
},
{
color = 9;
glyphname = k;
lastChange = "2024-08-09 20:01:23 +0000";
layers = (
{
anchors = (
{
name = bottom;
pos = (211,1);
},
{
name = top;
pos = (330,849);
}
);
layerId = m01;
shapes = (
{
closed = 1;
nodes = (
(100,849,l),
(-19,1,l),
(136,1,l),
(255,849,l)
);
},
{
closed = 1;
nodes = (
(363,649,l),
(171,349,l),
(332,349,l),
(534,649,l)
);
},
{
closed = 1;
nodes = (
(332,349,l),
(142,349,l),
(282,1,l),
(482,1,l)
);
}
);
width = 520;
},
{
anchors = (
{
name = bottom;
pos = (174,1);
},
{
name = top;
pos = (293,849);
}
);
background = {
shapes = (
{
closed = 1;
nodes = (
(40,800,l),
(40,0,l),
(195,0,l),
(195,800,l)
);
},
{
closed = 1;
nodes = (
(331,650,l),
(181,349,l),
(342,349,l),
(501,650,l)
);
},
{
closed = 1;
nodes = (
(342,349,l),
(152,349,l),
(341,0,l),
(540,0,l)
);
}
);
};
layerId = m002;
shapes = (
{
closed = 1;
nodes = (
(132,849,l),
(11,1,l),
(21,1,l),
(142,849,l)
);
},
{
closed = 1;
nodes = (
(431,649,l),
(63,348,l),
(74,348,l),
(442,649,l)
);
},
{
closed = 1;
nodes = (
(74,348,l),
(63,348,l),
(376,1,l),
(387,1,l)
);
}
);
width = 465;
},
{
anchors = (
{
name = bottom;
pos = (408,1);
},
{
name = top;
pos = (527,849);
}
);
background = {
shapes = (
{
closed = 1;
nodes = (
(40,800,l),
(40,0,l),
(195,0,l),
(195,800,l)
);
},
{
closed = 1;
nodes = (
(331,650,l),
(181,349,l),
(342,349,l),
(501,650,l)
);
},
{
closed = 1;
nodes = (
(342,349,l),
(152,349,l),
(341,0,l),
(540,0,l)
);
}
);
};
layerId = m003;
shapes = (
{
closed = 1;
nodes = (
(204,849,l),
(81,1,l),
(91,1,l),
(214,849,l)
);
},
{
closed = 1;
nodes = (
(830,649,l),
(132,348,l),
(156,348,l),
(852,649,l)
);
},
{
closed = 1;
nodes = (
(156,348,l),
(132,348,l),
(811,1,l),
(833,1,l)
);
}
);
width = 930;
},
{
anchors = (
{
name = bottom;
pos = (462,1);
},
{
name = top;
pos = (601,849);
}
);
layerId = m004;
shapes = (
{
closed = 1;
nodes = (
(140,849,l),
(21,1,l),
(332,1,l),
(451,849,l)
);
},
{
closed = 1;
nodes = (
(655,649,l),
(302,349,l),
(675,349,l),
(1076,649,l)
);
},
{
closed = 1;
nodes = (
(675,349,l),
(294,349,l),
(594,1,l),
(1023,1,l)
);
}
);
width = 1040;
},
{
anchors = (
{
name = bottom;
pos = (291,1);
},
{
name = top;
pos = (415,849);
}
);
layerId = "C42BF1BA-B3BB-492C-A865-1DF6B235F68F";
shapes = (
{
closed = 1;
nodes = (
(123,849,l),
(3,1,l),
(122,1,l),
(243,849,l)
);
},
{
closed = 1;
nodes = (
(481,649,l),
(122,348,l),
(277,348,l),
(640,649,l)
);
},
{
closed = 1;
nodes = (
(277,348,l),
(102,348,l),
(407,1,l),
(595,1,l)
);
}
);
width = 648;
}
);
unicode = 107;
},
{
color = 9;
glyphname = l;
lastChange = "2024-08-09 20:01:23 +0000";
layers = (
{
anchors = (
{
name = bottom;
pos = (59,1);
},
{
name = center;
pos = (104,325);
},
{
name = top;
pos = (177,849);
},
{
name = topright;
pos = (235,849);
}
);
layerId = m01;
shapes = (
{
closed = 1;
nodes = (
(99,849,l),
(-20,1,l),
(136,1,l),
(255,849,l)
);
}
);
width = 235;
},
{
anchors = (
{
name = bottom;
pos = (59,1);
},
{
name = center;
pos = (104,325);
},
{
name = top;
pos = (177,849);
},
{
name = topright;
pos = (275,849);
}
);
background = {
shapes = (
{
closed = 1;
nodes = (
(40,850,l),
(40,0,l),
(195,0,l),
(195,850,l)
);
}
);
};
layerId = m002;
shapes = (
{
closed = 1;
nodes = (
(171,849,l),
(53,1,l),
(63,1,l),
(181,849,l)
);
}
);
width = 235;
},
{
anchors = (
{
name = bottom;
pos = (177,1);
},
{
name = center;
pos = (222,325);
},
{
name = top;
pos = (295,849);
},
{
name = topright;
pos = (490,849);
}
);
background = {
shapes = (
{
closed = 1;
nodes = (
(40,850,l),
(40,0,l),
(195,0,l),
(195,850,l)
);
}
);
};
layerId = m003;
shapes = (
{
closed = 1;
nodes = (
(288,849,l),
(170,1,l),
(180,1,l),
(298,849,l)
);
}
);
width = 470;
},
{
anchors = (
{
name = bottom;
pos = (177,1);
},
{
name = center;
pos = (222,325);
},
{
name = top;
pos = (295,849);
},
{
name = topright;
pos = (410,849);
}
);
layerId = m004;
shapes = (
{
closed = 1;
nodes = (
(139,849,l),
(20,1,l),
(331,1,l),
(450,849,l)
);
}
);
width = 470;
},
{
anchors = (
{
name = bottom;
pos = (64,1);
},
{
name = center;
pos = (109,325);
},
{
name = top;
pos = (198,849);
},
{
name = topright;
pos = (217,849);
}
);
layerId = "C42BF1BA-B3BB-492C-A865-1DF6B235F68F";
shapes = (
{
closed = 1;
nodes = (
(121,849,l),
(2,1,l),
(123,1,l),
(242,849,l)
);
}
);
width = 244;
}
);
unicode = 108;
},
{
color = 9;
glyphname = m;
lastChange = "2024-08-09 20:01:23 +0000";
layers = (
{
anchors = (
{
name = bottom;
pos = (354,1);
},
{
name = top;
pos = (445,649);
}
);
layerId = m01;
shapes = (
{
closed = 1;
nodes = (
(154,1,l),
(215,438,l),
(222,486,o),
(246,512,o),
(285,512,cs),
(325,512,o),
(342,486,o),
(335,438,cs),
(274,1,l),
(429,1,l),
(501,510,l),
(513,605,o),
(473,659,o),
(386,659,cs),
(314,659,o),
(258,627,o),
(227,569,c),
(239,649,l),
(84,649,l),
(-7,1,l)
);
},
{
closed = 1;
nodes = (
(715,1,l),
(786,509,l),
(800,605,o),
(757,659,o),
(667,659,cs),
(570,659,o),
(501,614,o),
(475,534,c),
(491,438,l),
(497,486,o),
(524,512,o),
(566,512,cs),
(605,512,o),
(623,486,o),
(616,438,cs),
(555,1,l)
);
}
);
width = 800;
},
{
anchors = (
{
name = bottom;
pos = (385,1);
},
{
name = top;
pos = (476,649);
}
);
background = {
shapes = (
{
closed = 1;
nodes = (
(200,0,l),
(200,145,o),
(200,394,o),
(200,438,cs),
(200,486,o),
(221,512,o),
(260,512,cs),
(299,512,o),
(320,486,o),
(320,438,cs),
(320,0,l),
(475,0,l),
(475,510,l),
(474,606,o),
(426,660,o),
(340,660,cs),
(268,660,o),
(216,628,o),
(194,570,c),
(194,650,l),
(40,650,l),
(40,0,l)
);
},
{
closed = 1;
nodes = (
(475,438,l),
(475,486,o),
(498,512,o),
(540,512,cs),
(579,512,o),
(600,486,o),
(600,438,cs),
(600,0,l),
(760,0,l),
(760,150,o),
(760,424,o),
(760,509,cs),
(760,606,o),
(710,660,o),
(620,660,cs),
(523,660,o),
(461,615,o),
(446,535,c)
);
}
);
};
layerId = m002;
shapes = (
{
closed = 1;
nodes = (
(53,1,l),
(119,470,l),
(136,590,o),
(202,649,o),
(321,649,cs),
(424,649,o),
(467,590,o),
(450,470,cs),
(384,1,l),
(394,1,l),
(460,470,l),
(478,597,o),
(432,659,o),
(322,659,cs),
(224,659,o),
(160,620,o),
(129,540,c),
(144,649,l),
(134,649,l),
(44,1,l)
);
},
{
closed = 1;
nodes = (
(726,1,l),
(792,470,l),
(810,597,o),
(764,659,o),
(654,659,cs),
(555,659,o),
(491,620,o),
(461,541,c),
(451,470,l),
(468,590,o),
(534,649,o),
(653,649,cs),
(756,649,o),
(799,590,o),
(782,470,cs),
(716,1,l)
);
}
);
width = 861;
},
{
anchors = (
{
name = bottom;
pos = (817,1);
},
{
name = top;
pos = (907,649);
}
);
background = {
shapes = (
{
closed = 1;
nodes = (
(200,0,l),
(200,145,o),
(200,394,o),
(200,438,cs),
(200,486,o),
(221,512,o),
(260,512,cs),
(299,512,o),
(320,486,o),
(320,438,cs),
(320,0,l),
(475,0,l),
(475,510,l),
(474,606,o),
(426,660,o),
(340,660,cs),
(268,660,o),
(216,628,o),
(194,570,c),
(194,650,l),
(40,650,l),
(40,0,l)
);
},
{
closed = 1;
nodes = (
(475,438,l),
(475,486,o),
(498,512,o),
(540,512,cs),
(579,512,o),
(600,486,o),
(600,438,cs),
(600,0,l),
(760,0,l),
(760,150,o),
(760,424,o),
(760,509,cs),
(760,606,o),
(710,660,o),
(620,660,cs),
(523,660,o),
(461,615,o),
(446,535,c)
);
}
);
};
layerId = m003;
shapes = (
{
closed = 1;
nodes = (
(144,1,l),
(210,470,l),
(225,580,o),
(374,649,o),
(597,649,cs),
(789,649,o),
(901,580,o),
(885,470,cs),
(820,1,l),
(830,1,l),
(895,470,l),
(912,586,o),
(797,659,o),
(598,659,cs),
(405,659,o),
(258,605,o),
(217,520,c),
(235,649,l),
(224,649,l),
(135,1,l)
);
},
{
closed = 1;
nodes = (
(1498,1,l),
(1564,470,l),
(1580,586,o),
(1463,659,o),
(1262,659,cs),
(1073,659,o),
(929,605,o),
(890,520,c),
(889,495,l),
(917,589,o),
(1061,649,o),
(1260,649,cs),
(1456,649,o),
(1569,580,o),
(1554,470,cs),
(1488,1,l)
);
}
);
width = 1722;
},
{
anchors = (
{
name = bottom;
pos = (754,1);
},
{
name = top;
pos = (845,649);
}
);
layerId = m004;
shapes = (
{
closed = 1;
nodes = (
(354,1,l),
(397,308,l),
(403,356,o),
(454,412,o),
(531,412,cs),
(609,412,o),
(648,386,o),
(641,338,cs),
(594,1,l),
(905,1,l),
(958,380,l),
(978,540,o),
(897,659,o),
(726,659,cs),
(582,659,o),
(469,597,o),
(417,539,c),
(432,649,l),
(124,649,l),
(33,1,l)
);
},
{
closed = 1;
nodes = (
(1476,1,l),
(1543,479,l),
(1557,575,o),
(1468,659,o),
(1288,659,cs),
(1093,659,o),
(959,584,o),
(917,505,c),
(948,308,l),
(955,356,o),
(1009,412,o),
(1093,412,cs),
(1170,412,o),
(1209,386,o),
(1203,338,cs),
(1155,1,l)
);
}
);
width = 1600;
},
{
anchors = (
{
name = bottom;
pos = (545,1);
},
{
name = top;
pos = (636,649);
}
);
background = {
shapes = (
{
closed = 1;
nodes = (
(186,0,l),
(186,399,l),
(186,497,o),
(267,559,o),
(396,559,cs),
(482,559,o),
(536,497,o),
(536,399,cs),
(536,0,l),
(656,0,l),
(656,399,l),
(656,559,o),
(556,660,o),
(396,660,cs),
(290,660,o),
(205,618,o),
(176,550,c),
(181,516,l),
(181,650,l),
(66,650,l),
(66,0,l)
);
}
);
};
layerId = "C42BF1BA-B3BB-492C-A865-1DF6B235F68F";
shapes = (
{
closed = 1;
nodes = (
(139,1,l),
(196,404,l),
(209,500,o),
(300,560,o),
(431,560,cs),
(516,560,o),
(560,503,o),
(547,411,cs),
(489,1,l),
(606,1,l),
(667,438,l),
(685,573,o),
(600,659,o),
(445,659,cs),
(348,659,o),
(258,617,o),
(213,551,c),
(226,649,l),
(110,649,l),
(20,1,l)
);
},
{
closed = 1;
nodes = (
(1072,1,l),
(1136,461,l),
(1153,582,o),
(1065,659,o),
(906,659,cs),
(794,659,o),
(696,612,o),
(654,538,c),
(658,413,l),
(674,504,o),
(764,560,o),
(893,560,cs),
(977,560,o),
(1022,503,o),
(1009,411,cs),
(951,1,l)
);
}
);
width = 1182;
}
);
metricLeft = n;
metricRight = n;
unicode = 109;
},
{
color = 9;
glyphname = n;
lastChange = "2024-08-09 20:01:23 +0000";
layers = (
{
anchors = (
{
name = bottom;
pos = (214,1);
},
{
name = top;
pos = (305,649);
}
);
background = {
shapes = (
{
closed = 1;
nodes = (
(417,-10,o),
(485,96,o),
(485,342,cs),
(485,565,o),
(417,660,o),
(260,660,cs),
(103,660,o),
(35,565,o),
(35,342,cs),
(35,96,o),
(103,-10,o),
(260,-10,cs)
);
},
{
closed = 1;
nodes = (
(215,125,o),
(195,190,o),
(195,342,cs),
(195,470,o),
(215,525,o),
(260,525,cs),
(305,525,o),
(325,470,o),
(325,342,cs),
(325,190,o),
(305,125,o),
(260,125,cs)
);
}
);
};
layerId = m01;
shapes = (
{
closed = 1;
nodes = (
(154,1,l),
(215,438,l),
(222,488,o),
(246,512,o),
(286,512,cs),
(326,512,o),
(343,488,o),
(336,438,cs),
(274,1,l),
(435,1,l),
(503,488,l),
(519,602,o),
(481,659,o),
(387,659,cs),
(313,659,o),
(259,633,o),
(222,580,c),
(221,525,l),
(239,649,l),
(85,649,l),
(-6,1,l)
);
}
);
width = 520;
},
{
anchors = (
{
name = bottom;
pos = (219,1);
},
{
name = top;
pos = (310,649);
}
);
background = {
shapes = (
{
closed = 1;
nodes = (
(210,0,l),
(210,438,l),
(210,483,o),
(233,512,o),
(270,512,cs),
(307,512,o),
(330,483,o),
(330,438,cs),
(330,0,l),
(490,0,l),
(490,488,l),
(490,594,o),
(436,660,o),
(350,660,cs),
(270,660,o),
(207,613,o),
(197,541,c),
(204,525,l),
(204,650,l),
(50,650,l),
(50,0,l)
);
}
);
};
layerId = m002;
shapes = (
{
closed = 1;
nodes = (
(54,1,l),
(120,470,l),
(136,590,o),
(203,649,o),
(321,649,cs),
(424,649,o),
(467,590,o),
(450,470,cs),
(385,1,l),
(395,1,l),
(460,470,l),
(478,597,o),
(433,659,o),
(323,659,cs),
(226,659,o),
(163,620,o),
(130,541,c),
(127,521,l),
(145,649,l),
(135,649,l),
(44,1,l)
);
}
);
width = 530;
},
{
anchors = (
{
name = bottom;
pos = (485,1);
},
{
name = top;
pos = (575,649);
}
);
background = {
shapes = (
{
closed = 1;
nodes = (
(210,0,l),
(210,438,l),
(210,483,o),
(233,512,o),
(270,512,cs),
(307,512,o),
(330,483,o),
(330,438,cs),
(330,0,l),
(490,0,l),
(490,488,l),
(490,594,o),
(436,660,o),
(350,660,cs),
(270,660,o),
(207,613,o),
(197,541,c),
(204,525,l),
(204,650,l),
(50,650,l),
(50,0,l)
);
}
);
};
layerId = m003;
shapes = (
{
closed = 1;
nodes = (
(144,1,l),
(211,483,l),
(226,585,o),
(375,649,o),
(598,649,cs),
(793,649,o),
(907,580,o),
(891,470,cs),
(825,1,l),
(835,1,l),
(901,470,l),
(918,586,o),
(800,659,o),
(599,659,cs),
(403,659,o),
(257,609,o),
(218,529,c),
(217,521,l),
(235,649,l),
(225,649,l),
(134,1,l)
);
}
);
width = 1060;
},
{
anchors = (
{
name = bottom;
pos = (474,1);
},
{
name = top;
pos = (565,649);
}
);
background = {
shapes = (
{
closed = 1;
nodes = (
(417,-10,o),
(485,96,o),
(485,342,cs),
(485,565,o),
(417,660,o),
(260,660,cs),
(103,660,o),
(35,565,o),
(35,342,cs),
(35,96,o),
(103,-10,o),
(260,-10,cs)
);
},
{
closed = 1;
nodes = (
(215,125,o),
(195,190,o),
(195,342,cs),
(195,470,o),
(215,525,o),
(260,525,cs),
(305,525,o),
(325,470,o),
(325,342,cs),
(325,190,o),
(305,125,o),
(260,125,cs)
);
}
);
};
layerId = m004;
shapes = (
{
closed = 1;
nodes = (
(354,1,l),
(397,308,l),
(404,356,o),
(455,412,o),
(532,412,cs),
(609,412,o),
(649,386,o),
(642,338,cs),
(595,1,l),
(916,1,l),
(980,458,l),
(995,568,o),
(908,659,o),
(727,659,cs),
(586,659,o),
(468,601,o),
(405,550,c),
(411,495,l),
(433,649,l),
(124,649,l),
(33,1,l)
);
}
);
width = 1040;
},
{
anchors = (
{
name = bottom;
pos = (311,1);
},
{
name = top;
pos = (402,649);
}
);
layerId = "C42BF1BA-B3BB-492C-A865-1DF6B235F68F";
shapes = (
{
closed = 1;
nodes = (
(136,1,l),
(192,399,l),
(206,497,o),
(285,558,o),
(415,558,cs),
(501,558,o),
(536,497,o),
(523,399,cs),
(467,1,l),
(587,1,l),
(643,399,l),
(665,558,o),
(589,659,o),
(429,659,cs),
(323,659,o),
(241,617,o),
(203,549,c),
(203,516,l),
(222,649,l),
(107,649,l),
(16,1,l)
);
}
);
width = 680;
}
);
unicode = 110;
},
{
color = 9;
glyphname = eng;
lastChange = "2024-08-09 20:01:23 +0000";
layers = (
{
layerId = m002;
shapes = (
{
closed = 1;
nodes = (
(68,1,l),
(133,469,l),
(150,590,o),
(217,649,o),
(335,649,cs),
(438,649,o),
(481,590,o),
(464,469,cs),
(398,1,l),
(408,1,l),
(474,469,l),
(492,597,o),
(447,659,o),
(336,659,cs),
(240,659,o),
(176,620,o),
(143,541,c),
(140,520,l),
(158,649,l),
(148,649,l),
(58,1,l)
);
},
{
closed = 1;
nodes = (
(349,-204,o),
(389,-137,o),
(408,1,c),
(398,1,l),
(380,-130,o),
(343,-194,o),
(286,-194,c),
(284,-204,l)
);
}
);
width = 530;
},
{
layerId = m01;
shapes = (
{
closed = 1;
nodes = (
(169,1,l),
(230,437,l),
(237,487,o),
(260,511,o),
(300,511,cs),
(340,511,o),
(357,487,o),
(350,437,cs),
(289,1,l),
(449,1,l),
(517,487,l),
(534,602,o),
(495,659,o),
(401,659,cs),
(328,659,o),
(273,633,o),
(237,580,c),
(236,524,l),
(253,649,l),
(99,649,l),
(8,1,l)
);
},
{
closed = 1;
nodes = (
(353,-215,o),
(429,-144,o),
(449,1,c),
(289,1,l),
(281,-57,o),
(264,-85,o),
(237,-85,c),
(219,-215,l)
);
}
);
width = 520;
},
{
layerId = m003;
shapes = (
{
closed = 1;
nodes = (
(157,1,l),
(224,482,l),
(239,585,o),
(388,649,o),
(611,649,cs),
(806,649,o),
(920,580,o),
(904,469,cs),
(838,1,l),
(849,1,l),
(914,469,l),
(931,586,o),
(814,659,o),
(612,659,cs),
(416,659,o),
(268,609,o),
(231,529,c),
(230,520,l),
(248,649,l),
(238,649,l),
(147,1,l)
);
},
{
closed = 1;
nodes = (
(749,-204,o),
(831,-125,o),
(849,1,c),
(838,1,l),
(822,-119,o),
(743,-194,o),
(636,-194,c),
(634,-204,l)
);
}
);
width = 1060;
},
{
layerId = m004;
shapes = (
{
closed = 1;
nodes = (
(368,1,l),
(411,308,l),
(418,356,o),
(469,412,o),
(546,412,cs),
(623,412,o),
(663,386,o),
(656,338,cs),
(616,50,l),
(936,50,l),
(994,457,l),
(1009,568,o),
(922,659,o),
(741,659,cs),
(600,659,o),
(482,601,o),
(419,550,c),
(425,494,l),
(447,649,l),
(138,649,l),
(47,1,l)
);
},
{
closed = 1;
nodes = (
(745,-215,o),
(914,-112,o),
(936,50,c),
(616,50,l),
(604,-33,o),
(566,-85,o),
(516,-85,c),
(498,-215,l)
);
}
);
width = 1040;
},
{
layerId = "C42BF1BA-B3BB-492C-A865-1DF6B235F68F";
shapes = (
{
closed = 1;
nodes = (
(150,1,l),
(206,399,l),
(219,496,o),
(305,558,o),
(428,558,cs),
(509,558,o),
(550,496,o),
(536,399,cs),
(481,1,l),
(601,1,l),
(657,399,l),
(679,558,o),
(597,659,o),
(443,659,cs),
(342,659,o),
(255,617,o),
(217,549,c),
(217,515,l),
(236,649,l),
(120,649,l),
(30,1,l)
);
},
{
closed = 1;
nodes = (
(488,-209,o),
(583,-128,o),
(601,1,c),
(481,1,l),
(468,-87,o),
(424,-142,o),
(364,-142,c),
(355,-209,l)
);
}
);
width = 680;
}
);
metricLeft = n;
metricRight = n;
unicode = 331;
},
{
color = 9;
glyphname = o;
lastChange = "2024-08-09 20:01:23 +0000";
layers = (
{
anchors = (
{
name = bottom;
pos = (195,1);
},
{
name = center;
pos = (240,325);
},
{
name = ogonek;
pos = (388,11);
},
{
name = top;
pos = (285,649);
},
{
name = topright;
pos = (506,649);
}
);
background = {
shapes = (
{
closed = 1;
nodes = (
(180,0,l),
(180,438,l),
(180,483,o),
(203,512,o),
(240,512,cs),
(277,512,o),
(300,483,o),
(300,438,cs),
(300,0,l),
(460,0,l),
(460,488,l),
(460,594,o),
(406,660,o),
(320,660,cs),
(240,660,o),
(177,613,o),
(167,541,c),
(174,525,l),
(174,650,l),
(20,650,l),
(20,0,l)
);
}
);
};
layerId = m01;
shapes = (
{
closed = 1;
nodes = (
(351,-9,o),
(434,97,o),
(468,342,cs),
(499,564,o),
(444,659,o),
(287,659,cs),
(129,659,o),
(48,564,o),
(17,342,cs),
(-18,97,o),
(36,-9,o),
(193,-9,cs)
);
},
{
closed = 1;
nodes = (
(167,125,o),
(156,190,o),
(177,342,cs),
(195,470,o),
(223,525,o),
(268,525,cs),
(313,525,o),
(325,470,o),
(308,342,cs),
(286,190,o),
(257,125,o),
(212,125,cs)
);
}
);
width = 480;
},
{
anchors = (
{
name = bottom;
pos = (195,1);
},
{
name = center;
pos = (240,325);
},
{
name = ogonek;
pos = (388,11);
},
{
name = top;
pos = (285,649);
},
{
name = topright;
pos = (506,649);
}
);
background = {
shapes = (
{
closed = 1;
nodes = (
(397,-10,o),
(465,96,o),
(465,342,cs),
(465,565,o),
(397,660,o),
(240,660,cs),
(83,660,o),
(15,565,o),
(15,342,cs),
(15,96,o),
(83,-10,o),
(240,-10,cs)
);
},
{
closed = 1;
nodes = (
(195,125,o),
(175,190,o),
(175,342,cs),
(175,470,o),
(195,525,o),
(240,525,cs),
(285,525,o),
(305,470,o),
(305,342,cs),
(305,190,o),
(285,125,o),
(240,125,cs)
);
}
);
};
layerId = m002;
shapes = (
{
closed = 1;
nodes = (
(317,-9,o),
(395,107,o),
(428,342,cs),
(458,555,o),
(411,659,o),
(287,659,cs),
(163,659,o),
(87,555,o),
(57,342,cs),
(24,107,o),
(69,-9,o),
(193,-9,cs)
);
},
{
closed = 1;
nodes = (
(77,1,o),
(35,113,o),
(67,342,cs),
(96,548,o),
(168,649,o),
(285,649,cs),
(403,649,o),
(447,548,o),
(418,342,cs),
(386,113,o),
(312,1,o),
(195,1,cs)
);
}
);
width = 480;
},
{
anchors = (
{
name = bottom;
pos = (435,1);
},
{
name = center;
pos = (480,325);
},
{
name = ogonek;
pos = (821,11);
},
{
name = top;
pos = (525,649);
},
{
name = topright;
pos = (967,649);
}
);
background = {
shapes = (
{
closed = 1;
nodes = (
(397,-10,o),
(465,96,o),
(465,342,cs),
(465,565,o),
(397,660,o),
(240,660,cs),
(83,660,o),
(15,565,o),
(15,342,cs),
(15,96,o),
(83,-10,o),
(240,-10,cs)
);
},
{
closed = 1;
nodes = (
(195,125,o),
(175,190,o),
(175,342,cs),
(175,470,o),
(195,525,o),
(240,525,cs),
(285,525,o),
(305,470,o),
(305,342,cs),
(305,190,o),
(285,125,o),
(240,125,cs)
);
}
);
};
layerId = m003;
shapes = (
{
closed = 1;
nodes = (
(661,-9,o),
(823,126,o),
(853,342,cs),
(881,536,o),
(754,659,o),
(527,659,cs),
(299,659,o),
(139,536,o),
(111,342,cs),
(81,126,o),
(206,-9,o),
(433,-9,cs)
);
},
{
closed = 1;
nodes = (
(213,1,o),
(92,132,o),
(121,342,cs),
(148,530,o),
(304,649,o),
(525,649,cs),
(747,649,o),
(870,530,o),
(843,342,cs),
(814,132,o),
(656,1,o),
(435,1,cs)
);
}
);
width = 960;
},
{
anchors = (
{
name = bottom;
pos = (435,1);
},
{
name = center;
pos = (480,325);
},
{
name = ogonek;
pos = (604,11);
},
{
name = top;
pos = (525,649);
},
{
name = topright;
pos = (967,649);
}
);
background = {
shapes = (
{
closed = 1;
nodes = (
(180,0,l),
(180,438,l),
(180,483,o),
(203,512,o),
(240,512,cs),
(277,512,o),
(300,483,o),
(300,438,cs),
(300,0,l),
(460,0,l),
(460,488,l),
(460,594,o),
(406,660,o),
(320,660,cs),
(240,660,o),
(177,613,o),
(167,541,c),
(174,525,l),
(174,650,l),
(20,650,l),
(20,0,l)
);
}
);
};
layerId = m004;
shapes = (
{
closed = 1;
nodes = (
(710,-9,o),
(903,126,o),
(933,342,cs),
(961,536,o),
(804,659,o),
(527,659,cs),
(250,659,o),
(59,536,o),
(31,342,cs),
(1,126,o),
(156,-9,o),
(433,-9,cs)
);
},
{
closed = 1;
nodes = (
(386,225,o),
(341,266,o),
(351,332,cs),
(359,389,o),
(414,425,o),
(494,425,cs),
(574,425,o),
(619,389,o),
(611,332,cs),
(602,266,o),
(546,225,o),
(466,225,cs)
);
}
);
width = 960;
},
{
anchors = (
{
name = bottom;
pos = (281,1);
},
{
name = center;
pos = (326,325);
},
{
name = ogonek;
pos = (520,11);
},
{
name = top;
pos = (371,649);
},
{
name = topright;
pos = (639,649);
}
);
layerId = "C42BF1BA-B3BB-492C-A865-1DF6B235F68F";
shapes = (
{
closed = 1;
nodes = (
(468,-9,o),
(605,125,o),
(635,341,cs),
(662,536,o),
(561,659,o),
(373,659,cs),
(184,659,o),
(49,536,o),
(21,341,cs),
(-9,125,o),
(91,-9,o),
(279,-9,cs)
);
},
{
closed = 1;
nodes = (
(178,91,o),
(119,187,o),
(141,341,cs),
(160,476,o),
(244,559,o),
(359,559,cs),
(474,559,o),
(535,476,o),
(516,341,cs),
(494,187,o),
(408,91,o),
(293,91,cs)
);
}
);
width = 652;
}
);
unicode = 111;
},
{
glyphname = oslash;
lastChange = "2024-08-05 10:19:43 +0000";
layers = (
{
anchors = (
{
name = top;
pos = (300,650);
}
);
layerId = m002;
shapes = (
{
ref = o;
},
{
closed = 1;
nodes = (
(89,0,l),
(100,0,l),
(400,650,l),
(389,650,l)
);
}
);
width = 480;
},
{
anchors = (
{
name = top;
pos = (300,650);
}
);
layerId = m01;
shapes = (
{
ref = o;
},
{
closed = 1;
nodes = (
(55,0,l),
(129,0,l),
(429,650,l),
(355,650,l)
);
}
);
width = 480;
},
{
anchors = (
{
name = top;
pos = (300,650);
}
);
layerId = m003;
shapes = (
{
ref = o;
},
{
closed = 1;
nodes = (
(89,0,l),
(100,0,l),
(400,650,l),
(389,650,l)
);
}
);
width = 480;
},
{
anchors = (
{
name = top;
pos = (300,650);
}
);
layerId = m004;
shapes = (
{
ref = o;
},
{
closed = 1;
nodes = (
(55,0,l),
(129,0,l),
(429,650,l),
(355,650,l)
);
}
);
width = 480;
},
{
anchors = (
{
name = top;
pos = (300,650);
}
);
layerId = "C42BF1BA-B3BB-492C-A865-1DF6B235F68F";
shapes = (
{
alignment = -1;
ref = o;
},
{
closed = 1;
nodes = (
(73,0,l),
(114,0,l),
(414,650,l),
(373,650,l)
);
}
);
width = 480;
}
);
unicode = 248;
},
{
color = 9;
glyphname = p;
lastChange = "2024-08-09 20:01:23 +0000";
layers = (
{
anchors = (
{
name = bottom;
pos = (223,1);
},
{
name = top;
pos = (314,649);
}
);
layerId = m01;
shapes = (
{
closed = 1;
nodes = (
(249,649,l),
(99,649,l),
(-20,-199,l),
(130,-199,l)
);
},
{
closed = 1;
nodes = (
(253,659,o),
(181,555,o),
(151,342,cs),
(118,106,o),
(160,-9,o),
(287,-9,cs),
(404,-9,o),
(479,106,o),
(512,342,cs),
(542,555,o),
(498,659,o),
(381,659,cs)
);
},
{
closed = 1;
nodes = (
(359,524,o),
(373,464,o),
(356,342,cs),
(335,190,o),
(301,115,o),
(254,115,cs),
(214,115,o),
(195,190,o),
(216,342,cs),
(233,464,o),
(272,524,o),
(312,524,cs)
);
}
);
width = 510;
},
{
anchors = (
{
name = bottom;
pos = (238,1);
},
{
name = top;
pos = (329,649);
}
);
layerId = m002;
shapes = (
{
closed = 1;
nodes = (
(159,649,l),
(149,649,l),
(30,-199,l),
(40,-199,l)
);
},
{
closed = 1;
nodes = (
(217,659,o),
(134,543,o),
(101,308,cs),
(71,94,o),
(124,-9,o),
(262,-9,cs),
(390,-9,o),
(467,94,o),
(497,308,cs),
(530,543,o),
(484,659,o),
(356,659,cs)
);
},
{
closed = 1;
nodes = (
(475,649,o),
(519,537,o),
(487,308,cs),
(458,101,o),
(385,1,o),
(263,1,cs),
(132,1,o),
(82,101,o),
(111,308,cs),
(143,537,o),
(223,649,o),
(354,649,cs)
);
}
);
width = 540;
},
{
anchors = (
{
name = bottom;
pos = (509,1);
},
{
name = top;
pos = (600,649);
}
);
layerId = m003;
shapes = (
{
closed = 1;
nodes = (
(249,649,l),
(239,649,l),
(120,-199,l),
(130,-199,l)
);
},
{
closed = 1;
nodes = (
(383,659,o),
(221,523,o),
(191,308,cs),
(164,113,o),
(290,-9,o),
(517,-9,cs),
(776,-9,o),
(956,113,o),
(983,308,cs),
(1013,523,o),
(870,659,o),
(611,659,cs)
);
},
{
closed = 1;
nodes = (
(862,649,o),
(1002,517,o),
(973,308,cs),
(946,119,o),
(771,1,o),
(519,1,cs),
(297,1,o),
(174,119,o),
(201,308,cs),
(230,517,o),
(388,649,o),
(610,649,cs)
);
}
);
width = 1080;
},
{
anchors = (
{
name = bottom;
pos = (479,1);
},
{
name = top;
pos = (569,649);
}
);
layerId = m004;
shapes = (
{
closed = 1;
nodes = (
(439,649,l),
(138,649,l),
(20,-199,l),
(320,-199,l)
);
},
{
closed = 1;
nodes = (
(480,659,o),
(323,536,o),
(296,342,cs),
(266,126,o),
(386,-9,o),
(607,-9,cs),
(823,-9,o),
(977,126,o),
(1008,342,cs),
(1035,536,o),
(917,659,o),
(701,659,cs)
);
},
{
closed = 1;
nodes = (
(654,424,o),
(703,389,o),
(695,332,cs),
(685,260,o),
(625,215,o),
(539,215,cs),
(452,215,o),
(405,260,o),
(415,332,cs),
(423,389,o),
(482,424,o),
(568,424,cs)
);
}
);
width = 1020;
},
{
anchors = (
{
name = bottom;
pos = (379,1);
},
{
name = top;
pos = (469,649);
}
);
layerId = "C42BF1BA-B3BB-492C-A865-1DF6B235F68F";
shapes = (
{
closed = 1;
nodes = (
(245,649,l),
(125,649,l),
(6,-199,l),
(126,-199,l)
);
},
{
closed = 1;
nodes = (
(302,659,o),
(178,529,o),
(149,324,cs),
(121,119,o),
(209,-9,o),
(377,-9,cs),
(557,-9,o),
(688,119,o),
(717,324,cs),
(745,529,o),
(650,659,o),
(471,659,cs)
);
},
{
closed = 1;
nodes = (
(565,559,o),
(620,467,o),
(600,322,cs),
(580,179,o),
(499,90,o),
(391,90,cs),
(253,90,o),
(179,179,o),
(199,322,cs),
(219,467,o),
(319,559,o),
(457,559,cs)
);
}
);
width = 746;
}
);
metricLeft = n;
metricRight = o;
unicode = 112;
},
{
color = 9;
glyphname = thorn;
lastChange = "2024-08-09 20:01:23 +0000";
layers = (
{
anchors = (
{
name = bottom;
pos = (225,1);
},
{
name = top;
pos = (316,649);
}
);
layerId = m002;
shapes = (
{
closed = 1;
nodes = (
(174,849,l),
(164,849,l),
(17,-199,l),
(27,-199,l)
);
},
{
closed = 1;
nodes = (
(216,659,o),
(118,523,o),
(88,308,cs),
(61,113,o),
(123,-9,o),
(249,-9,cs),
(366,-9,o),
(457,113,o),
(484,308,cs),
(514,523,o),
(460,659,o),
(343,659,cs)
);
},
{
closed = 1;
nodes = (
(453,649,o),
(503,518,o),
(474,308,cs),
(448,119,o),
(362,1,o),
(250,1,cs),
(130,1,o),
(72,119,o),
(98,308,cs),
(127,518,o),
(221,649,o),
(341,649,cs)
);
}
);
width = 540;
},
{
anchors = (
{
name = bottom;
pos = (255,1);
},
{
name = top;
pos = (374,849);
}
);
layerId = m01;
shapes = (
{
closed = 1;
nodes = (
(264,849,l),
(114,849,l),
(-33,-199,l),
(117,-199,l)
);
},
{
closed = 1;
nodes = (
(240,659,o),
(168,555,o),
(138,342,cs),
(105,107,o),
(147,-9,o),
(274,-9,cs),
(391,-9,o),
(466,107,o),
(499,342,cs),
(529,555,o),
(485,659,o),
(368,659,cs)
);
},
{
closed = 1;
nodes = (
(346,524,o),
(360,465,o),
(343,342,cs),
(322,190,o),
(288,115,o),
(241,115,cs),
(201,115,o),
(182,190,o),
(203,342,cs),
(220,465,o),
(259,524,o),
(299,524,cs)
);
}
);
width = 510;
},
{
anchors = (
{
name = bottom;
pos = (496,1);
},
{
name = top;
pos = (587,649);
}
);
layerId = m003;
shapes = (
{
closed = 1;
nodes = (
(264,849,l),
(254,849,l),
(107,-199,l),
(117,-199,l)
);
},
{
closed = 1;
nodes = (
(375,659,o),
(209,523,o),
(179,308,cs),
(151,113,o),
(281,-9,o),
(515,-9,cs),
(768,-9,o),
(943,113,o),
(970,308,cs),
(1001,523,o),
(861,659,o),
(609,659,cs)
);
},
{
closed = 1;
nodes = (
(854,649,o),
(990,517,o),
(960,308,cs),
(934,119,o),
(763,1,o),
(516,1,cs),
(289,1,o),
(162,119,o),
(189,308,cs),
(218,517,o),
(380,649,o),
(607,649,cs)
);
}
);
width = 1080;
},
{
anchors = (
{
name = bottom;
pos = (556,1);
},
{
name = top;
pos = (675,849);
}
);
layerId = m004;
shapes = (
{
closed = 1;
nodes = (
(454,849,l),
(154,849,l),
(7,-199,l),
(308,-199,l)
);
},
{
closed = 1;
nodes = (
(461,659,o),
(300,536,o),
(273,342,cs),
(243,126,o),
(367,-9,o),
(595,-9,cs),
(810,-9,o),
(965,126,o),
(995,342,cs),
(1022,536,o),
(904,659,o),
(689,659,cs)
);
},
{
closed = 1;
nodes = (
(642,425,o),
(690,385,o),
(681,322,cs),
(672,256,o),
(612,215,o),
(526,215,cs),
(440,215,o),
(391,256,o),
(401,322,cs),
(409,385,o),
(469,425,o),
(555,425,cs)
);
}
);
width = 1020;
},
{
anchors = (
{
name = bottom;
pos = (345,1);
},
{
name = top;
pos = (483,744);
}
);
background = {
shapes = (
{
closed = 1;
nodes = (
(242,660,o),
(136,530,o),
(136,324,cs),
(136,119,o),
(242,-10,o),
(410,-10,cs),
(589,-10,o),
(702,119,o),
(702,324,cs),
(702,530,o),
(589,660,o),
(410,660,cs)
);
},
{
closed = 1;
nodes = (
(518,560,o),
(586,468,o),
(586,322,cs),
(586,179,o),
(518,90,o),
(410,90,cs),
(272,90,o),
(186,179,o),
(186,322,cs),
(186,468,o),
(272,560,o),
(410,560,cs)
);
}
);
};
layerId = "C42BF1BA-B3BB-492C-A865-1DF6B235F68F";
shapes = (
{
closed = 1;
nodes = (
(251,849,l),
(136,849,l),
(-11,-199,l),
(104,-199,l)
);
},
{
closed = 1;
nodes = (
(284,659,o),
(159,529,o),
(130,324,cs),
(102,119,o),
(190,-9,o),
(360,-9,cs),
(540,-9,o),
(671,119,o),
(700,324,cs),
(729,529,o),
(634,659,o),
(454,659,cs)
);
},
{
closed = 1;
nodes = (
(547,560,o),
(601,470,o),
(581,324,cs),
(561,183,o),
(481,96,o),
(375,96,cs),
(239,96,o),
(165,183,o),
(185,324,cs),
(205,470,o),
(304,560,o),
(440,560,cs)
);
}
);
width = 718;
}
);
metricRight = o;
unicode = 254;
},
{
color = 9;
glyphname = q;
lastChange = "2024-08-09 20:01:23 +0000";
layers = (
{
anchors = (
{
name = bottom;
pos = (228,1);
},
{
name = top;
pos = (318,649);
}
);
layerId = m01;
shapes = (
{
closed = 1;
nodes = (
(420,-199,l),
(539,649,l),
(379,649,l),
(260,-199,l)
);
},
{
closed = 1;
nodes = (
(284,-9,o),
(358,106,o),
(391,342,cs),
(421,555,o),
(378,659,o),
(251,659,cs),
(132,659,o),
(60,555,o),
(30,342,cs),
(-3,106,o),
(39,-9,o),
(157,-9,cs)
);
},
{
closed = 1;
nodes = (
(185,125,o),
(165,196,o),
(185,342,cs),
(202,464,o),
(241,524,o),
(281,524,cs),
(321,524,o),
(343,464,o),
(325,342,cs),
(305,196,o),
(265,125,o),
(225,125,cs)
);
}
);
width = 520;
},
{
anchors = (
{
name = bottom;
pos = (237,1);
},
{
name = top;
pos = (328,649);
}
);
layerId = m002;
shapes = (
{
closed = 1;
nodes = (
(390,-199,l),
(509,649,l),
(499,649,l),
(380,-199,l)
);
},
{
closed = 1;
nodes = (
(345,-9,o),
(431,94,o),
(461,308,cs),
(494,543,o),
(439,659,o),
(295,659,cs),
(173,659,o),
(98,543,o),
(65,308,cs),
(35,94,o),
(80,-9,o),
(201,-9,cs)
);
},
{
closed = 1;
nodes = (
(88,1,o),
(46,101,o),
(75,308,cs),
(107,537,o),
(179,649,o),
(293,649,cs),
(431,649,o),
(483,537,o),
(451,308,cs),
(422,101,o),
(341,1,o),
(202,1,cs)
);
}
);
width = 540;
},
{
anchors = (
{
name = bottom;
pos = (506,1);
},
{
name = top;
pos = (597,649);
}
);
layerId = m003;
shapes = (
{
closed = 1;
nodes = (
(839,-199,l),
(958,649,l),
(948,649,l),
(829,-199,l)
);
},
{
closed = 1;
nodes = (
(719,-9,o),
(883,113,o),
(910,308,cs),
(941,523,o),
(812,659,o),
(579,659,cs),
(326,659,o),
(149,523,o),
(118,308,cs),
(91,113,o),
(232,-9,o),
(485,-9,cs)
);
},
{
closed = 1;
nodes = (
(240,1,o),
(102,119,o),
(128,308,cs),
(158,517,o),
(331,649,o),
(577,649,cs),
(805,649,o),
(930,517,o),
(900,308,cs),
(874,119,o),
(714,1,o),
(486,1,cs)
);
}
);
width = 1080;
},
{
anchors = (
{
name = bottom;
pos = (347,-9);
},
{
name = top;
pos = (441,659);
}
);
layerId = m004;
shapes = (
{
closed = 1;
nodes = (
(900,-199,l),
(1019,649,l),
(698,649,l),
(579,-199,l)
);
},
{
closed = 1;
nodes = (
(568,-9,o),
(725,126,o),
(755,342,cs),
(782,536,o),
(661,659,o),
(441,659,cs),
(224,659,o),
(71,536,o),
(43,342,cs),
(13,126,o),
(131,-9,o),
(347,-9,cs)
);
},
{
closed = 1;
nodes = (
(392,225,o),
(344,270,o),
(354,342,cs),
(361,393,o),
(420,425,o),
(506,425,cs),
(592,425,o),
(642,393,o),
(635,342,cs),
(625,270,o),
(564,225,o),
(478,225,cs)
);
}
);
width = 1040;
},
{
anchors = (
{
name = bottom;
pos = (319,-1);
},
{
name = top;
pos = (410,651);
}
);
layerId = "C42BF1BA-B3BB-492C-A865-1DF6B235F68F";
shapes = (
{
closed = 1;
nodes = (
(620,-199,l),
(739,649,l),
(618,649,l),
(499,-199,l)
);
},
{
closed = 1;
nodes = (
(475,-9,o),
(593,119,o),
(622,324,cs),
(651,529,o),
(569,659,o),
(408,659,cs),
(221,659,o),
(84,529,o),
(55,324,cs),
(27,119,o),
(127,-9,o),
(315,-9,cs)
);
},
{
closed = 1;
nodes = (
(212,90,o),
(152,180,o),
(172,324,cs),
(192,468,o),
(278,559,o),
(394,559,cs),
(525,559,o),
(593,468,o),
(573,324,cs),
(553,180,o),
(459,90,o),
(329,90,cs)
);
}
);
width = 746;
}
);
metricLeft = o;
metricRight = n;
unicode = 113;
},
{
color = 9;
glyphname = r;
lastChange = "2024-08-09 20:01:23 +0000";
layers = (
{
anchors = (
{
name = bottom;
pos = (68,1);
},
{
name = top;
pos = (218,649);
}
);
layerId = m01;
shapes = (
{
closed = 1;
nodes = (
(154,1,l),
(208,390,l),
(217,454,o),
(257,486,o),
(328,486,cs),
(340,486,o),
(348,485,o),
(352,484,c),
(377,659,l),
(298,659,o),
(243,619,o),
(206,536,c),
(217,525,l),
(235,649,l),
(84,649,l),
(-7,1,l)
);
}
);
width = 345;
},
{
anchors = (
{
name = bottom;
pos = (122,1);
},
{
name = top;
pos = (213,649);
}
);
background = {
shapes = (
{
closed = 1;
nodes = (
(195,0,l),
(195,145,o),
(195,362,o),
(195,390,cs),
(195,454,o),
(230,486,o),
(301,486,cs),
(313,486,o),
(321,485,o),
(325,484,c),
(325,660,l),
(247,660,o),
(197,620,o),
(172,537,c),
(185,525,l),
(185,650,l),
(35,650,l),
(35,0,l)
);
}
);
};
layerId = m002;
shapes = (
{
closed = 1;
nodes = (
(54,1,l),
(106,370,l),
(132,555,o),
(204,654,o),
(320,646,cs),
(322,646,o),
(324,646,o),
(326,646,c),
(327,656,l),
(217,664,o),
(145,586,o),
(111,444,c),
(111,412,l),
(145,649,l),
(135,649,l),
(44,1,l)
);
}
);
width = 336;
},
{
anchors = (
{
name = bottom;
pos = (290,1);
},
{
name = top;
pos = (381,649);
}
);
background = {
shapes = (
{
closed = 1;
nodes = (
(195,0,l),
(195,145,o),
(195,362,o),
(195,390,cs),
(195,454,o),
(230,486,o),
(301,486,cs),
(313,486,o),
(321,485,o),
(325,484,c),
(325,660,l),
(247,660,o),
(197,620,o),
(172,537,c),
(185,525,l),
(185,650,l),
(35,650,l),
(35,0,l)
);
}
);
};
layerId = m003;
shapes = (
{
closed = 1;
nodes = (
(144,1,l),
(200,405,l),
(222,560,o),
(374,653,o),
(595,646,cs),
(599,646,o),
(603,646,o),
(607,646,c),
(608,656,l),
(404,663,o),
(246,581,o),
(200,444,c),
(201,412,l),
(235,649,l),
(224,649,l),
(134,1,l)
);
}
);
width = 672;
},
{
anchors = (
{
name = bottom;
pos = (182,1);
},
{
name = top;
pos = (281,649);
}
);
layerId = m004;
shapes = (
{
closed = 1;
nodes = (
(354,1,l),
(390,260,l),
(401,337,o),
(490,386,o),
(620,386,cs),
(637,386,o),
(656,385,o),
(668,384,c),
(707,659,l),
(576,659,o),
(449,600,o),
(379,507,c),
(403,495,l),
(425,649,l),
(124,649,l),
(33,1,l)
);
}
);
width = 690;
},
{
anchors = (
{
name = bottom;
pos = (135,1);
},
{
name = top;
pos = (242,649);
}
);
layerId = "C42BF1BA-B3BB-492C-A865-1DF6B235F68F";
shapes = (
{
closed = 1;
nodes = (
(140,1,l),
(190,358,l),
(206,476,o),
(300,547,o),
(432,543,cs),
(440,543,o),
(448,542,o),
(453,542,c),
(469,657,l),
(341,661,o),
(231,596,o),
(188,491,c),
(198,469,l),
(224,649,l),
(110,649,l),
(20,1,l)
);
}
);
width = 467;
}
);
metricLeft = n;
metricRight = o;
unicode = 114;
},
{
color = 9;
glyphname = s;
lastChange = "2024-08-09 20:01:23 +0000";
layers = (
{
anchors = (
{
name = bottom;
pos = (172,1);
},
{
name = top;
pos = (265,649);
}
);
layerId = m01;
shapes = (
{
closed = 1;
nodes = (
(310,-9,o),
(386,53,o),
(404,180,cs),
(433,384,o),
(169,391,o),
(180,470,cs),
(187,517,o),
(206,539,o),
(250,539,cs),
(294,539,o),
(310,500,o),
(301,440,c),
(432,440,l),
(451,580,o),
(398,659,o),
(267,659,cs),
(129,659,o),
(53,597,o),
(35,470,cs),
(6,265,o),
(270,263,o),
(259,180,cs),
(252,133,o),
(233,111,o),
(190,111,cs),
(144,111,o),
(127,150,o),
(136,210,c),
(5,210,l),
(-14,70,o),
(40,-9,o),
(173,-9,cs)
);
}
);
width = 439;
},
{
anchors = (
{
name = bottom;
pos = (169,1);
},
{
name = top;
pos = (259,649);
}
);
layerId = m002;
shapes = (
{
closed = 1;
nodes = (
(277,-9,o),
(339,45,o),
(348,155,cs),
(363,356,o),
(78,322,o),
(90,490,cs),
(97,596,o),
(153,649,o),
(262,649,cs),
(350,649,o),
(376,596,o),
(369,490,c),
(379,490,l),
(387,603,o),
(357,659,o),
(264,659,cs),
(149,659,o),
(87,603,o),
(79,490,cs),
(66,308,o),
(352,348,o),
(338,155,cs),
(330,52,o),
(272,1,o),
(162,1,cs),
(68,1,o),
(37,52,o),
(45,155,c),
(35,155,l),
(26,45,o),
(61,-9,o),
(160,-9,cs)
);
}
);
width = 427;
},
{
anchors = (
{
name = bottom;
pos = (383,1);
},
{
name = top;
pos = (473,649);
}
);
layerId = m003;
shapes = (
{
closed = 1;
nodes = (
(569,-9,o),
(705,55,o),
(719,155,cs),
(761,456,o),
(107,224,o),
(146,490,cs),
(161,587,o),
(290,649,o),
(479,649,cs),
(630,649,o),
(724,587,o),
(726,490,c),
(736,490,l),
(735,593,o),
(637,659,o),
(481,659,cs),
(282,659,o),
(149,593,o),
(134,490,cs),
(95,208,o),
(750,448,o),
(709,155,cs),
(696,61,o),
(564,1,o),
(369,1,cs),
(205,1,o),
(103,61,o),
(103,155,c),
(93,155,l),
(92,55,o),
(198,-9,o),
(367,-9,cs)
);
}
);
width = 854;
},
{
anchors = (
{
name = bottom;
pos = (395,1);
},
{
name = top;
pos = (485,649);
}
);
layerId = m004;
shapes = (
{
closed = 1;
nodes = (
(643,-9,o),
(812,64,o),
(829,180,cs),
(871,484,o),
(339,391,o),
(350,470,cs),
(353,495,o),
(400,510,o),
(471,510,cs),
(548,510,o),
(592,479,o),
(585,430,c),
(846,430,l),
(875,570,o),
(735,659,o),
(482,659,cs),
(232,659,o),
(66,586,o),
(49,470,cs),
(7,165,o),
(540,263,o),
(528,180,cs),
(524,155,o),
(475,140,o),
(399,140,cs),
(319,140,o),
(272,171,o),
(279,220,c),
(18,220,l),
(-11,80,o),
(131,-9,o),
(388,-9,cs)
);
}
);
width = 878;
},
{
anchors = (
{
name = bottom;
pos = (269,1);
},
{
name = top;
pos = (359,649);
}
);
layerId = "C42BF1BA-B3BB-492C-A865-1DF6B235F68F";
shapes = (
{
closed = 1;
nodes = (
(432,-9,o),
(546,59,o),
(562,167,cs),
(600,443,o),
(163,323,o),
(185,481,cs),
(192,530,o),
(254,559,o),
(345,559,cs),
(423,559,o),
(470,523,o),
(466,464,c),
(585,464,l),
(598,583,o),
(510,659,o),
(359,659,cs),
(193,659,o),
(81,590,o),
(65,481,cs),
(28,214,o),
(463,324,o),
(441,167,cs),
(435,121,o),
(372,91,o),
(279,91,cs),
(195,91,o),
(145,126,o),
(149,184,c),
(29,184,l),
(15,66,o),
(106,-9,o),
(265,-9,cs)
);
}
);
width = 627;
}
);
metricLeft = o;
metricRight = o;
unicode = 115;
},
{
color = 9;
glyphname = germandbls;
lastChange = "2024-08-09 20:01:23 +0000";
layers = (
{
anchors = (
{
name = bottom;
pos = (195,1);
},
{
name = top;
pos = (314,849);
}
);
layerId = m002;
shapes = (
{
closed = 1;
nodes = (
(81,1,l),
(171,649,l),
(161,649,l),
(71,1,l)
);
},
{
closed = 1;
nodes = (
(165,639,l),
(166,649,l),
(61,649,l),
(60,639,l)
);
},
{
closed = 1;
nodes = (
(171,649,l),
(190,779,o),
(228,843,o),
(329,843,c),
(330,854,l),
(223,854,o),
(181,787,o),
(161,649,c)
);
},
{
closed = 1;
nodes = (
(303,-17,o),
(406,47,o),
(415,161,cs),
(430,366,o),
(284,312,o),
(288,430,c),
(277,430,l),
(272,298,o),
(419,358,o),
(405,161,cs),
(397,54,o),
(297,-7,o),
(208,1,c),
(206,-9,l)
);
},
{
closed = 1;
nodes = (
(288,430,l),
(306,562,o),
(414,492,o),
(442,689,cs),
(457,800,o),
(434,854,o),
(330,854,c),
(329,843,l),
(426,843,o),
(446,792,o),
(432,689,cs),
(405,499,o),
(296,569,o),
(277,430,c)
);
}
);
width = 506;
},
{
anchors = (
{
name = bottom;
pos = (214,1);
},
{
name = top;
pos = (333,849);
}
);
background = {
shapes = (
{
closed = 1;
nodes = (
(200,0,l),
(200,650,l),
(190,650,l),
(190,0,l)
);
},
{
closed = 1;
nodes = (
(195,640,l),
(195,650,l),
(90,650,l),
(90,640,l)
);
},
{
closed = 1;
nodes = (
(200,650,l),
(200,780,o),
(249,844,o),
(350,844,c),
(350,855,l),
(243,855,o),
(190,788,o),
(190,650,c)
);
},
{
closed = 1;
nodes = (
(514,-10,o),
(558,46,o),
(551,160,cs),
(538,366,o),
(399,312,o),
(387,430,c),
(376,430,l),
(389,298,o),
(528,358,o),
(541,160,cs),
(548,53,o),
(507,0,o),
(417,0,cs),
(331,0,o),
(289,51,o),
(289,155,c),
(279,155,l),
(279,44,o),
(324,-10,o),
(417,-10,cs)
);
},
{
closed = 1;
nodes = (
(387,430,l),
(387,562,o),
(504,492,o),
(504,690,cs),
(504,801,o),
(453,855,o),
(350,855,c),
(350,844,l),
(447,844,o),
(494,793,o),
(494,690,cs),
(494,499,o),
(376,569,o),
(376,430,c)
);
}
);
};
layerId = m01;
shapes = (
{
closed = 1;
nodes = (
(161,1,l),
(252,649,l),
(101,649,l),
(10,1,l)
);
},
{
closed = 1;
nodes = (
(229,520,l),
(247,649,l),
(31,649,l),
(13,520,l)
);
},
{
closed = 1;
nodes = (
(252,649,l),
(258,696,o),
(278,719,o),
(312,719,c),
(331,854,l),
(196,854,o),
(121,787,o),
(101,649,c)
);
},
{
closed = 1;
nodes = (
(394,-9,o),
(482,65,o),
(503,216,cs),
(525,376,o),
(418,364,o),
(427,430,c),
(277,430,l),
(264,337,o),
(367,319,o),
(352,216,cs),
(344,156,o),
(312,126,o),
(256,126,c),
(237,-9,l)
);
},
{
closed = 1;
nodes = (
(427,430,l),
(435,496,o),
(504,489,o),
(526,649,cs),
(546,787,o),
(481,854,o),
(331,854,c),
(312,719,l),
(362,719,o),
(383,696,o),
(376,649,cs),
(362,546,o),
(290,523,o),
(277,430,c)
);
}
);
width = 546;
},
{
anchors = (
{
name = bottom;
pos = (449,1);
},
{
name = top;
pos = (568,849);
}
);
layerId = m003;
shapes = (
{
closed = 1;
nodes = (
(210,1,l),
(301,649,l),
(291,649,l),
(200,1,l)
);
},
{
closed = 1;
nodes = (
(300,639,l),
(301,649,l),
(91,649,l),
(89,639,l)
);
},
{
closed = 1;
nodes = (
(301,649,l),
(318,768,o),
(433,843,o),
(599,843,c),
(601,854,l),
(428,854,o),
(309,775,o),
(291,649,c)
);
},
{
closed = 1;
nodes = (
(703,-18,o),
(851,48,o),
(866,161,cs),
(898,386,o),
(550,262,o),
(575,430,c),
(563,430,l),
(538,248,o),
(887,378,o),
(856,161,cs),
(841,53,o),
(698,-9,o),
(485,1,c),
(484,-9,l)
);
},
{
closed = 1;
nodes = (
(575,430,l),
(598,592,o),
(816,472,o),
(846,689,cs),
(860,790,o),
(766,854,o),
(601,854,c),
(599,843,l),
(757,843,o),
(849,784,o),
(836,689,cs),
(807,479,o),
(587,599,o),
(563,430,c)
);
}
);
width = 1012;
},
{
anchors = (
{
name = bottom;
pos = (487,1);
},
{
name = top;
pos = (606,849);
}
);
background = {
shapes = (
{
closed = 1;
nodes = (
(200,0,l),
(200,650,l),
(190,650,l),
(190,0,l)
);
},
{
closed = 1;
nodes = (
(195,640,l),
(195,650,l),
(90,650,l),
(90,640,l)
);
},
{
closed = 1;
nodes = (
(200,650,l),
(200,780,o),
(249,844,o),
(350,844,c),
(350,855,l),
(243,855,o),
(190,788,o),
(190,650,c)
);
},
{
closed = 1;
nodes = (
(514,-10,o),
(558,46,o),
(551,160,cs),
(538,366,o),
(399,312,o),
(387,430,c),
(376,430,l),
(389,298,o),
(528,358,o),
(541,160,cs),
(548,53,o),
(507,0,o),
(417,0,cs),
(331,0,o),
(289,51,o),
(289,155,c),
(279,155,l),
(279,44,o),
(324,-10,o),
(417,-10,cs)
);
},
{
closed = 1;
nodes = (
(387,430,l),
(387,562,o),
(504,492,o),
(504,690,cs),
(504,801,o),
(453,855,o),
(350,855,c),
(350,844,l),
(447,844,o),
(494,793,o),
(494,690,cs),
(494,499,o),
(376,569,o),
(376,430,c)
);
}
);
};
layerId = m004;
shapes = (
{
closed = 1;
nodes = (
(381,1,l),
(462,580,l),
(171,649,l),
(80,1,l)
);
},
{
closed = 1;
nodes = (
(430,420,l),
(461,639,l),
(31,649,l),
(-1,420,l)
);
},
{
closed = 1;
nodes = (
(462,580,l),
(467,611,o),
(500,629,o),
(549,629,c),
(581,854,l),
(347,854,o),
(189,775,o),
(171,649,c)
);
},
{
closed = 1;
nodes = (
(765,-9,o),
(967,89,o),
(989,245,cs),
(1011,406,o),
(821,334,o),
(830,400,c),
(529,400,l),
(516,307,o),
(652,349,o),
(638,245,cs),
(631,197,o),
(574,166,o),
(488,166,c),
(464,-9,l)
);
},
{
closed = 1;
nodes = (
(830,400,l),
(835,466,o),
(959,489,o),
(981,649,cs),
(999,775,o),
(845,854,o),
(581,854,c),
(549,629,l),
(604,629,o),
(635,611,o),
(631,580,cs),
(616,476,o),
(542,493,o),
(529,400,c)
);
}
);
width = 1042;
},
{
anchors = (
{
name = bottom;
pos = (297,1);
},
{
name = top;
pos = (416,849);
}
);
layerId = "C42BF1BA-B3BB-492C-A865-1DF6B235F68F";
shapes = (
{
closed = 1;
nodes = (
(174,1,l),
(262,632,l),
(144,649,l),
(53,1,l)
);
},
{
closed = 1;
nodes = (
(248,559,l),
(260,647,l),
(16,649,l),
(3,559,l)
);
},
{
closed = 1;
nodes = (
(262,632,l),
(273,707,o),
(332,754,o),
(418,754,c),
(432,854,l),
(273,854,o),
(162,775,o),
(144,649,c)
);
},
{
closed = 1;
nodes = (
(522,-13,o),
(658,73,o),
(675,214,cs),
(694,378,o),
(498,350,o),
(507,423,c),
(386,423,l),
(366,259,o),
(569,347,o),
(553,214,cs),
(544,134,o),
(459,87,o),
(303,91,c),
(289,-9,l)
);
},
{
closed = 1;
nodes = (
(507,423,l),
(519,524,o),
(662,503,o),
(684,662,cs),
(701,780,o),
(603,854,o),
(432,854,c),
(418,754,l),
(516,754,o),
(572,719,o),
(564,662,cs),
(543,514,o),
(410,590,o),
(386,423,c)
);
}
);
width = 723;
}
);
metricLeft = f;
metricRight = o;
unicode = 223;
},
{
color = 9;
glyphname = t;
lastChange = "2024-08-09 20:01:23 +0000";
layers = (
{
anchors = (
{
name = bottom;
pos = (98,1);
},
{
name = center;
pos = (143,325);
},
{
name = top;
pos = (203,749);
},
{
name = topright;
pos = (347,849);
}
);
layerId = m01;
shapes = (
{
closed = 1;
nodes = (
(15,51,o),
(56,-5,o),
(147,-5,cs),
(189,-5,o),
(228,-2,o),
(238,1,c),
(255,119,l),
(247,117,o),
(225,115,o),
(209,115,cs),
(189,115,o),
(177,135,o),
(182,175,cs),
(263,749,l),
(112,749,l),
(31,166,ls)
);
},
{
closed = 1;
nodes = (
(311,520,l),
(329,649,l),
(38,649,l),
(20,520,l)
);
}
);
width = 300;
},
{
anchors = (
{
name = bottom;
pos = (98,1);
},
{
name = center;
pos = (144,325);
},
{
name = top;
pos = (203,749);
},
{
name = topright;
pos = (347,849);
}
);
background = {
shapes = (
{
closed = 1;
nodes = (
(60,50,o),
(109,-6,o),
(200,-6,cs),
(242,-6,o),
(280,-3,o),
(290,0,c),
(290,118,l),
(283,116,o),
(261,114,o),
(245,114,cs),
(225,114,o),
(210,134,o),
(210,175,cs),
(210,750,l),
(60,750,l),
(60,165,ls)
);
},
{
closed = 1;
nodes = (
(290,520,l),
(290,650,l),
(0,650,l),
(0,520,l)
);
}
);
};
layerId = m002;
shapes = (
{
closed = 1;
nodes = (
(82,32,o),
(103,-9,o),
(157,-9,cs),
(172,-9,o),
(189,-8,o),
(208,-4,c),
(209,6,l),
(191,2,o),
(173,1,o),
(158,1,cs),
(111,1,o),
(93,39,o),
(104,117,cs),
(193,749,l),
(183,749,l),
(94,117,ls)
);
},
{
closed = 1;
nodes = (
(298,639,l),
(299,649,l),
(69,649,l),
(67,639,l)
);
}
);
width = 300;
},
{
anchors = (
{
name = bottom;
pos = (248,1);
},
{
name = center;
pos = (294,325);
},
{
name = top;
pos = (353,749);
},
{
name = topright;
pos = (628,849);
}
);
background = {
shapes = (
{
closed = 1;
nodes = (
(60,50,o),
(109,-6,o),
(200,-6,cs),
(242,-6,o),
(280,-3,o),
(290,0,c),
(290,118,l),
(283,116,o),
(261,114,o),
(245,114,cs),
(225,114,o),
(210,134,o),
(210,175,cs),
(210,750,l),
(60,750,l),
(60,165,ls)
);
},
{
closed = 1;
nodes = (
(290,520,l),
(290,650,l),
(0,650,l),
(0,520,l)
);
}
);
};
layerId = m003;
shapes = (
{
closed = 1;
nodes = (
(218,40,o),
(272,-9,o),
(367,-9,cs),
(400,-9,o),
(438,-7,o),
(468,-4,c),
(469,6,l),
(440,3,o),
(401,1,o),
(368,1,cs),
(279,1,o),
(229,46,o),
(239,117,cs),
(328,749,l),
(318,749,l),
(229,117,ls)
);
},
{
closed = 1;
nodes = (
(558,639,l),
(560,649,l),
(98,649,l),
(97,639,l)
);
}
);
width = 600;
},
{
anchors = (
{
name = bottom;
pos = (328,1);
},
{
name = center;
pos = (293,325);
},
{
name = top;
pos = (321,749);
},
{
name = topright;
pos = (627,849);
}
);
layerId = m004;
shapes = (
{
closed = 1;
nodes = (
(80,92,o),
(166,-9,o),
(347,-9,cs),
(439,-9,o),
(504,-4,o),
(528,1,c),
(559,219,l),
(545,215,o),
(513,214,o),
(468,214,cs),
(423,214,o),
(401,236,o),
(407,275,cs),
(473,749,l),
(172,749,l),
(104,265,ls)
);
},
{
closed = 1;
nodes = (
(587,420,l),
(619,649,l),
(38,649,l),
(6,420,l)
);
}
);
width = 600;
},
{
anchors = (
{
name = bottom;
pos = (170,1);
},
{
name = center;
pos = (179,325);
},
{
name = top;
pos = (216,749);
},
{
name = topright;
pos = (448,849);
}
);
layerId = "C42BF1BA-B3BB-492C-A865-1DF6B235F68F";
shapes = (
{
closed = 1;
nodes = (
(59,58,o),
(116,-8,o),
(216,-8,cs),
(255,-8,o),
(294,-6,o),
(320,-2,c),
(334,98,l),
(322,95,o),
(293,93,o),
(262,93,cs),
(212,93,o),
(188,122,o),
(195,169,cs),
(276,749,l),
(156,749,l),
(74,164,ls)
);
},
{
closed = 1;
nodes = (
(399,560,l),
(411,649,l),
(23,649,l),
(11,560,l)
);
}
);
width = 379;
}
);
unicode = 116;
},
{
color = 9;
glyphname = u;
lastChange = "2024-08-09 20:01:23 +0000";
layers = (
{
anchors = (
{
name = bottom;
pos = (215,1);
},
{
name = ogonek;
pos = (395,11);
},
{
name = top;
pos = (306,649);
},
{
name = topright;
pos = (546,649);
}
);
layerId = m01;
shapes = (
{
closed = 1;
nodes = (
(366,649,l),
(304,206,l),
(295,143,o),
(271,113,o),
(231,113,cs),
(190,113,o),
(175,143,o),
(184,206,cs),
(246,649,l),
(85,649,l),
(23,206,l),
(3,62,o),
(46,-9,o),
(153,-9,cs),
(246,-9,o),
(299,25,o),
(318,94,c),
(311,116,l),
(295,1,l),
(435,1,l),
(526,649,l)
);
}
);
width = 520;
},
{
anchors = (
{
name = bottom;
pos = (235,1);
},
{
name = ogonek;
pos = (461,11);
},
{
name = top;
pos = (326,649);
},
{
name = topright;
pos = (586,649);
}
);
background = {
shapes = (
{
closed = 1;
nodes = (
(360,650,l),
(360,206,l),
(360,143,o),
(340,112,o),
(300,112,cs),
(260,112,o),
(240,143,o),
(240,206,cs),
(240,650,l),
(80,650,l),
(80,206,l),
(80,61,o),
(133,-10,o),
(240,-10,cs),
(332,-10,o),
(381,24,o),
(390,93,c),
(380,115,l),
(380,0,l),
(520,0,l),
(520,650,l)
);
}
);
};
layerId = m002;
shapes = (
{
closed = 1;
nodes = (
(506,649,l),
(444,206,ls),
(425,69,o),
(356,1,o),
(235,1,c),
(114,1,o),
(64,69,o),
(83,206,cs),
(145,649,l),
(135,649,l),
(73,206,ls),
(53,62,o),
(105,-9,o),
(233,-9,cs),
(332,-9,o),
(397,37,o),
(433,129,c),
(439,172,l),
(415,1,l),
(425,1,l),
(516,649,l)
);
}
);
width = 560;
},
{
anchors = (
{
name = bottom;
pos = (514,1);
},
{
name = ogonek;
pos = (965,11);
},
{
name = top;
pos = (605,649);
},
{
name = topright;
pos = (1127,649);
}
);
background = {
shapes = (
{
closed = 1;
nodes = (
(360,650,l),
(360,206,l),
(360,143,o),
(340,112,o),
(300,112,cs),
(260,112,o),
(240,143,o),
(240,206,cs),
(240,650,l),
(80,650,l),
(80,206,l),
(80,61,o),
(133,-10,o),
(240,-10,cs),
(332,-10,o),
(381,24,o),
(390,93,c),
(380,115,l),
(380,0,l),
(520,0,l),
(520,650,l)
);
}
);
};
layerId = m003;
shapes = (
{
closed = 1;
nodes = (
(976,649,l),
(908,161,ls),
(900,103,o),
(742,1,o),
(514,1,c),
(287,1,o),
(155,80,o),
(172,206,cs),
(234,649,l),
(224,649,l),
(162,206,ls),
(144,74,o),
(279,-9,o),
(513,-9,cs),
(685,-9,o),
(836,45,o),
(903,129,c),
(909,172,l),
(885,1,l),
(895,1,l),
(986,649,l)
);
}
);
width = 1120;
},
{
anchors = (
{
name = bottom;
pos = (475,1);
},
{
name = ogonek;
pos = (860,11);
},
{
name = top;
pos = (565,649);
},
{
name = topright;
pos = (1047,649);
}
);
layerId = m004;
shapes = (
{
closed = 1;
nodes = (
(686,649,l),
(642,336,l),
(631,260,o),
(578,212,o),
(504,212,cs),
(430,212,o),
(389,248,o),
(397,306,cs),
(445,649,l),
(124,649,l),
(66,236,l),
(45,86,o),
(155,-9,o),
(353,-9,cs),
(516,-9,o),
(640,42,o),
(672,124,c),
(655,145,l),
(635,1,l),
(916,1,l),
(1007,649,l)
);
}
);
width = 1040;
},
{
anchors = (
{
name = bottom;
pos = (318,1);
},
{
name = ogonek;
pos = (629,11);
},
{
name = top;
pos = (409,649);
},
{
name = topright;
pos = (785,649);
}
);
layerId = "C42BF1BA-B3BB-492C-A865-1DF6B235F68F";
shapes = (
{
closed = 1;
nodes = (
(586,649,l),
(534,278,ls),
(518,163,o),
(443,91,o),
(324,91,c),
(203,91,o),
(163,164,o),
(180,283,cs),
(231,649,l),
(111,649,l),
(55,253,ls),
(33,92,o),
(135,-9,o),
(310,-9,cs),
(411,-9,o),
(500,50,o),
(556,142,c),
(532,162,l),
(509,1,l),
(614,1,l),
(705,649,l)
);
}
);
width = 725;
}
);
metricLeft = n;
metricRight = n;
unicode = 117;
},
{
color = 9;
glyphname = v;
lastChange = "2024-08-09 20:01:23 +0000";
layers = (
{
anchors = (
{
name = bottom;
pos = (174,1);
},
{
name = top;
pos = (265,649);
}
);
layerId = m01;
shapes = (
{
closed = 1;
nodes = (
(239,1,l),
(486,649,l),
(335,649,l),
(191,200,l),
(202,200,l),
(195,649,l),
(45,649,l),
(99,1,l)
);
}
);
width = 440;
},
{
anchors = (
{
name = bottom;
pos = (174,1);
},
{
name = top;
pos = (265,649);
}
);
background = {
shapes = (
{
closed = 1;
nodes = (
(285,0,l),
(440,650,l),
(290,650,l),
(209,200,l),
(220,200,l),
(150,650,l),
(0,650,l),
(145,0,l)
);
}
);
};
layerId = m002;
shapes = (
{
closed = 1;
nodes = (
(176,1,l),
(453,649,l),
(443,649,l),
(170,12,l),
(175,12,l),
(87,649,l),
(77,649,l),
(165,1,l)
);
}
);
width = 440;
},
{
anchors = (
{
name = bottom;
pos = (394,1);
},
{
name = top;
pos = (485,649);
}
);
background = {
shapes = (
{
closed = 1;
nodes = (
(285,0,l),
(440,650,l),
(290,650,l),
(209,200,l),
(220,200,l),
(150,650,l),
(0,650,l),
(145,0,l)
);
}
);
};
layerId = m003;
shapes = (
{
closed = 1;
nodes = (
(387,1,l),
(849,649,l),
(838,649,l),
(383,12,l),
(383,12,l),
(119,649,l),
(108,649,l),
(376,1,l)
);
}
);
width = 880;
},
{
anchors = (
{
name = bottom;
pos = (394,1);
},
{
name = top;
pos = (485,649);
}
);
layerId = m004;
shapes = (
{
closed = 1;
nodes = (
(554,1,l),
(926,649,l),
(595,649,l),
(414,300,l),
(436,300,l),
(375,649,l),
(44,649,l),
(214,1,l)
);
}
);
width = 880;
},
{
anchors = (
{
name = bottom;
pos = (244,1);
},
{
name = top;
pos = (335,649);
}
);
layerId = "C42BF1BA-B3BB-492C-A865-1DF6B235F68F";
shapes = (
{
closed = 1;
nodes = (
(299,1,l),
(640,649,l),
(508,649,l),
(238,113,l),
(267,113,l),
(160,649,l),
(29,649,l),
(176,1,l)
);
}
);
width = 578;
}
);
unicode = 118;
},
{
color = 9;
glyphname = w;
lastChange = "2024-08-09 20:01:23 +0000";
layers = (
{
anchors = (
{
name = bottom;
pos = (304,1);
},
{
name = top;
pos = (395,649);
}
);
layerId = m01;
shapes = (
{
closed = 1;
nodes = (
(226,1,l),
(460,649,l),
(330,649,l),
(188,200,l),
(199,200,l),
(195,649,l),
(44,649,l),
(86,1,l)
);
},
{
closed = 1;
nodes = (
(533,1,l),
(746,649,l),
(596,649,l),
(475,200,l),
(486,200,l),
(459,649,l),
(329,649,l),
(392,1,l)
);
}
);
width = 700;
},
{
anchors = (
{
name = bottom;
pos = (304,1);
},
{
name = top;
pos = (395,649);
}
);
background = {
shapes = (
{
closed = 1;
nodes = (
(272,0,l),
(415,650,l),
(285,650,l),
(206,200,l),
(217,200,l),
(150,650,l),
(0,650,l),
(132,0,l)
);
},
{
closed = 1;
nodes = (
(578,0,l),
(700,650,l),
(550,650,l),
(492,200,l),
(503,200,l),
(414,650,l),
(284,650,l),
(438,0,l)
);
}
);
};
layerId = m002;
shapes = (
{
closed = 1;
nodes = (
(130,1,l),
(400,649,l),
(390,649,l),
(126,19,l),
(131,19,l),
(95,649,l),
(85,649,l),
(123,1,l)
);
},
{
closed = 1;
nodes = (
(496,1,l),
(706,649,l),
(696,649,l),
(492,19,l),
(496,19,l),
(400,649,l),
(390,649,l),
(488,1,l)
);
}
);
width = 700;
},
{
anchors = (
{
name = bottom;
pos = (654,1);
},
{
name = top;
pos = (745,649);
}
);
background = {
shapes = (
{
closed = 1;
nodes = (
(272,0,l),
(415,650,l),
(285,650,l),
(206,200,l),
(217,200,l),
(150,650,l),
(0,650,l),
(132,0,l)
);
},
{
closed = 1;
nodes = (
(578,0,l),
(700,650,l),
(550,650,l),
(492,200,l),
(503,200,l),
(414,650,l),
(284,650,l),
(438,0,l)
);
}
);
};
layerId = m003;
shapes = (
{
closed = 1;
nodes = (
(350,1,l),
(751,649,l),
(740,649,l),
(348,14,l),
(353,14,l),
(135,649,l),
(125,649,l),
(346,1,l)
);
},
{
closed = 1;
nodes = (
(979,1,l),
(1366,649,l),
(1356,649,l),
(972,8,l),
(979,8,l),
(751,649,l),
(740,649,l),
(971,1,l)
);
}
);
width = 1400;
},
{
anchors = (
{
name = bottom;
pos = (654,1);
},
{
name = top;
pos = (745,649);
}
);
layerId = m004;
shapes = (
{
closed = 1;
nodes = (
(528,1,l),
(905,649,l),
(585,649,l),
(407,300,l),
(429,300,l),
(374,649,l),
(43,649,l),
(187,1,l)
);
},
{
closed = 1;
nodes = (
(1141,1,l),
(1447,649,l),
(1116,649,l),
(981,300,l),
(1003,300,l),
(903,649,l),
(583,649,l),
(800,1,l)
);
}
);
width = 1400;
},
{
anchors = (
{
name = bottom;
pos = (436,1);
},
{
name = top;
pos = (523,649);
}
);
layerId = "C42BF1BA-B3BB-492C-A865-1DF6B235F68F";
shapes = (
{
closed = 1;
nodes = (
(276,1,l),
(588,649,l),
(466,649,l),
(230,132,l),
(241,132,l),
(160,649,l),
(33,649,l),
(145,1,l)
);
},
{
closed = 1;
nodes = (
(742,1,l),
(1022,649,l),
(896,649,l),
(682,132,l),
(693,132,l),
(588,649,l),
(465,649,l),
(612,1,l)
);
}
);
width = 966;
}
);
unicode = 119;
},
{
color = 9;
glyphname = x;
lastChange = "2024-08-09 20:01:23 +0000";
layers = (
{
anchors = (
{
name = bottom;
pos = (195,1);
},
{
name = top;
pos = (285,649);
}
);
layerId = m01;
shapes = (
{
closed = 1;
nodes = (
(435,1,l),
(207,649,l),
(46,649,l),
(280,1,l)
);
},
{
closed = 1;
nodes = (
(100,1,l),
(257,256,l),
(269,256,l),
(518,649,l),
(366,649,l),
(225,418,l),
(214,418,l),
(-46,1,l)
);
}
);
width = 480;
},
{
anchors = (
{
name = bottom;
pos = (195,1);
},
{
name = top;
pos = (285,649);
}
);
background = {
shapes = (
{
closed = 1;
nodes = (
(480,0,l),
(162,650,l),
(1,650,l),
(325,0,l)
);
},
{
closed = 1;
nodes = (
(146,0,l),
(267,256,l),
(279,256,l),
(472,650,l),
(320,650,l),
(212,418,l),
(201,418,l),
(0,0,l)
);
}
);
};
layerId = m002;
shapes = (
{
closed = 1;
nodes = (
(376,1,l),
(117,649,l),
(106,649,l),
(365,1,l)
);
},
{
closed = 1;
nodes = (
(24,1,l),
(242,324,l),
(243,324,l),
(459,649,l),
(448,649,l),
(238,334,l),
(237,334,l),
(13,1,l)
);
}
);
width = 480;
},
{
anchors = (
{
name = bottom;
pos = (435,1);
},
{
name = top;
pos = (525,649);
}
);
background = {
shapes = (
{
closed = 1;
nodes = (
(480,0,l),
(162,650,l),
(1,650,l),
(325,0,l)
);
},
{
closed = 1;
nodes = (
(146,0,l),
(267,256,l),
(279,256,l),
(472,650,l),
(320,650,l),
(212,418,l),
(201,418,l),
(0,0,l)
);
}
);
};
layerId = m003;
shapes = (
{
closed = 1;
nodes = (
(789,1,l),
(189,649,l),
(175,649,l),
(775,1,l)
);
},
{
closed = 1;
nodes = (
(94,1,l),
(481,326,l),
(483,326,l),
(863,649,l),
(850,649,l),
(476,332,l),
(474,332,l),
(80,1,l)
);
}
);
width = 960;
},
{
anchors = (
{
name = bottom;
pos = (420,1);
},
{
name = top;
pos = (525,649);
}
);
layerId = m004;
shapes = (
{
closed = 1;
nodes = (
(916,1,l),
(429,649,l),
(46,649,l),
(545,1,l)
);
},
{
closed = 1;
nodes = (
(306,1,l),
(525,256,l),
(549,256,l),
(991,649,l),
(626,649,l),
(437,418,l),
(415,418,l),
(-47,1,l)
);
}
);
width = 960;
},
{
anchors = (
{
name = bottom;
pos = (249,1);
},
{
name = top;
pos = (343,649);
}
);
layerId = "C42BF1BA-B3BB-492C-A865-1DF6B235F68F";
shapes = (
{
closed = 1;
nodes = (
(571,1,l),
(183,649,l),
(32,649,l),
(423,1,l)
);
},
{
closed = 1;
nodes = (
(85,1,l),
(328,288,l),
(337,288,l),
(646,649,l),
(494,649,l),
(281,388,l),
(272,388,l),
(-62,1,l)
);
}
);
width = 599;
}
);
unicode = 120;
},
